<svg width="30" height="19" viewBox="0 0 30 19" fill="none" xmlns="http://www.w3.org/2000/svg">
<path d="M29.9401 17.9821C29.9401 18.5395 29.4865 19 28.9374 19H1.00278C0.453639 19 0 18.5395 0 17.9821V1.01786C0 0.460459 0.453639 0 1.00278 0H28.9612C29.5104 0 29.964 0.460459 29.964 1.01786V17.9821H29.9401Z" fill="#F9F9F9"/>
<path d="M13.7762 12.3598H12.3198L13.2271 6.64038H14.7074L13.7762 12.3598Z" fill="#0066B2"/>
<path d="M11.0782 6.64038L9.69341 10.5664L9.52628 9.71819L9.02489 7.14931C9.02489 7.14931 8.97714 6.64038 8.3325 6.64038H6.01655L5.99268 6.73732C5.99268 6.73732 6.70895 6.88273 7.52072 7.39166L8.81001 12.3598H10.3381L12.654 6.64038H11.0782Z" fill="#0066B2"/>
<path d="M22.5862 12.3597H23.9232L22.7533 6.66455H21.5834C21.0343 6.66455 20.9149 7.10078 20.9149 7.10078L18.7422 12.3597H20.2702L20.5806 11.5115H22.4429L22.5862 12.3597ZM20.9865 10.324L21.7505 8.19134L22.1803 10.324H20.9865Z" fill="#0066B2"/>
<path d="M18.838 8.02177L19.0529 6.7858C19.0529 6.7858 18.4082 6.54346 17.7397 6.54346C17.0234 6.54346 15.2805 6.85851 15.2805 8.43376C15.2805 9.91208 17.3099 9.93631 17.3099 10.6876C17.3099 11.4631 15.4954 11.3177 14.8985 10.833L14.6836 12.1174C14.6836 12.1174 15.3282 12.4325 16.331 12.4325C17.3338 12.4325 18.838 11.8993 18.838 10.4695C18.838 8.99116 16.7847 8.84575 16.7847 8.21565C16.8085 7.58555 18.2172 7.68249 18.838 8.02177Z" fill="#0066B2"/>
<path d="M9.52628 9.71819L9.02489 7.14931C9.02489 7.14931 8.97714 6.64038 8.3325 6.64038H6.01655L5.99268 6.73732C5.99268 6.73732 7.09096 6.97967 8.16537 7.85212C9.19202 8.6761 9.52628 9.71819 9.52628 9.71819Z" fill="#F9A533"/>
</svg>
