<svg width="31" height="19" viewBox="0 0 31 19" fill="none" xmlns="http://www.w3.org/2000/svg">
<path d="M30.6906 17.9821C30.6906 18.5395 30.237 19 29.6878 19H1.75327C1.20413 19 0.750488 18.5395 0.750488 17.9821V1.01786C0.750488 0.460459 1.20413 0 1.75327 0H29.7117C30.2609 0 30.7145 0.460459 30.7145 1.01786V17.9821H30.6906Z" fill="#F9F9F9"/>
<path d="M11.0888 14.7589V13.9834C11.1126 13.7411 10.9216 13.523 10.6829 13.4987C10.659 13.4987 10.6351 13.4987 10.6351 13.4987C10.468 13.4987 10.3009 13.5714 10.2054 13.7168C10.1337 13.5714 9.96661 13.4987 9.79948 13.4987C9.65622 13.4987 9.53684 13.5714 9.44134 13.6684V13.523H9.17871V14.7347H9.44134V14.0561C9.41747 13.9107 9.53684 13.7653 9.6801 13.7411C9.70397 13.7411 9.70397 13.7411 9.72785 13.7411C9.89498 13.7411 9.99048 13.8622 9.99048 14.0561V14.7347H10.2531V14.0561C10.2292 13.9107 10.3486 13.7653 10.4919 13.7411C10.5158 13.7411 10.5158 13.7411 10.5396 13.7411C10.7068 13.7411 10.8023 13.8622 10.8023 14.0561V14.7347L11.0888 14.7589ZM14.9805 13.5472H14.5507V13.1837H14.2881V13.5472H14.0494V13.7895H14.2881V14.3469C14.2881 14.6378 14.4075 14.8074 14.694 14.8074C14.8134 14.8074 14.9328 14.7832 15.0283 14.7105L14.9566 14.4923C14.885 14.5408 14.8134 14.565 14.7179 14.565C14.5985 14.565 14.5507 14.4923 14.5507 14.3712V13.8138H14.9805V13.5472ZM17.201 13.523C17.0816 13.523 16.9383 13.5957 16.8906 13.6926V13.5472H16.6279V14.7589H16.8906V14.0804C16.8906 13.8865 16.9861 13.7653 17.1532 13.7653C17.201 13.7653 17.2726 13.7653 17.3203 13.7895L17.392 13.523C17.3203 13.523 17.2487 13.523 17.201 13.523ZM13.8345 13.6441C13.6912 13.5472 13.5241 13.523 13.357 13.523C13.0466 13.523 12.8556 13.6684 12.8556 13.9107C12.8556 14.1046 12.9988 14.2258 13.2615 14.2742L13.3808 14.2985C13.5241 14.3227 13.5957 14.3469 13.5957 14.4196C13.5957 14.5166 13.5002 14.565 13.3331 14.565C13.1898 14.565 13.0466 14.5166 12.9272 14.4439L12.8078 14.662C12.9511 14.7589 13.1421 14.8316 13.3331 14.8316C13.6673 14.8316 13.8822 14.662 13.8822 14.4439C13.8822 14.2258 13.7151 14.1288 13.4525 14.0804L13.3331 14.0561C13.2137 14.0319 13.1182 14.0077 13.1182 13.9349C13.1182 13.8622 13.2137 13.7895 13.357 13.7895C13.5002 13.7895 13.6196 13.838 13.739 13.8865L13.8345 13.6441ZM20.8301 13.523C20.7107 13.523 20.5674 13.5957 20.5197 13.6926V13.5472H20.257V14.7589H20.5197V14.0804C20.5197 13.8865 20.6152 13.7653 20.7823 13.7653C20.8301 13.7653 20.9017 13.7653 20.9494 13.7895L21.0211 13.523C20.9494 13.523 20.8778 13.523 20.8301 13.523ZM17.4636 14.1531C17.4397 14.4923 17.7023 14.7832 18.0366 14.7832C18.0605 14.7832 18.0844 14.7832 18.0844 14.7832C18.2515 14.7832 18.3947 14.7347 18.5141 14.6378L18.3947 14.4196C18.2992 14.4923 18.2037 14.5166 18.0844 14.5408C17.8695 14.5166 17.7262 14.3469 17.7262 14.1288C17.7501 13.9349 17.8933 13.7895 18.0844 13.7653C18.2037 13.7653 18.2992 13.8138 18.3947 13.8865L18.5141 13.6684C18.3947 13.5714 18.2276 13.523 18.0844 13.523C17.7501 13.4987 17.4636 13.7653 17.4397 14.1046C17.4636 14.1046 17.4636 14.1288 17.4636 14.1531ZM19.8989 14.1531V13.5472H19.6363V13.6926C19.5408 13.5714 19.3975 13.4987 19.2543 13.523C18.8961 13.523 18.6335 13.8138 18.6335 14.1531C18.6335 14.5166 18.92 14.7832 19.2543 14.7832C19.3975 14.7832 19.5408 14.7105 19.6363 14.6135V14.7589H19.8989V14.1531ZM18.9439 14.1531C18.9439 13.9592 19.1349 13.7895 19.3259 13.8138C19.5169 13.838 19.684 14.0077 19.6602 14.2015C19.6602 14.3954 19.493 14.5408 19.302 14.5408C19.111 14.5408 18.9439 14.3712 18.9439 14.1773V14.1531ZM15.7923 13.523C15.458 13.523 15.1715 13.8138 15.1715 14.1773C15.1715 14.5408 15.458 14.8074 15.8162 14.8074C16.0072 14.8074 16.1743 14.7589 16.3175 14.6378L16.1982 14.4439C16.1027 14.5166 15.9833 14.565 15.84 14.565C15.649 14.5893 15.5058 14.4439 15.4819 14.2742H16.3653C16.3653 14.25 16.3653 14.2015 16.3653 14.1773C16.3653 13.7653 16.1265 13.523 15.7923 13.523ZM15.7923 13.7411C15.9594 13.7411 16.1027 13.8622 16.1027 14.0319H15.4819C15.4819 13.8865 15.6252 13.7411 15.7923 13.7411ZM22.3104 14.1531V13.0625H22.0477V13.6926C21.9522 13.5714 21.809 13.4987 21.6657 13.523C21.3076 13.523 21.0449 13.8138 21.0449 14.1531C21.0449 14.5166 21.3314 14.7832 21.6657 14.7832C21.809 14.7832 21.9522 14.7105 22.0477 14.6135V14.7589H22.3104V14.1531ZM22.764 14.5893C22.7879 14.5893 22.7879 14.5893 22.8117 14.5893C22.8356 14.5893 22.8356 14.6135 22.8595 14.6135C22.8595 14.6135 22.8834 14.6378 22.8834 14.662C22.9072 14.6862 22.9072 14.7347 22.8834 14.7589C22.8834 14.7832 22.8595 14.7832 22.8595 14.8074C22.8595 14.8074 22.8356 14.8316 22.8117 14.8316C22.7879 14.8316 22.7879 14.8316 22.764 14.8316C22.7162 14.8316 22.6685 14.8074 22.6446 14.7589C22.6207 14.7347 22.6207 14.6862 22.6446 14.662C22.6446 14.6378 22.6685 14.6378 22.6685 14.6135C22.6685 14.6135 22.6924 14.5893 22.7162 14.5893C22.7162 14.5893 22.7401 14.5893 22.764 14.5893ZM22.764 14.8074C22.7879 14.8074 22.7879 14.8074 22.8117 14.8074C22.8117 14.8074 22.8356 14.8074 22.8356 14.7832C22.8595 14.7589 22.8595 14.6862 22.8356 14.662L22.8117 14.6378C22.8117 14.6378 22.7879 14.6378 22.764 14.6378C22.7401 14.6378 22.7401 14.6378 22.7162 14.6378C22.7162 14.6378 22.6924 14.6378 22.6924 14.662C22.6685 14.6862 22.6685 14.7589 22.6924 14.7832L22.7162 14.8074C22.7401 14.8074 22.7401 14.8074 22.764 14.8074ZM22.764 14.662H22.7879C22.7879 14.662 22.8117 14.6862 22.7879 14.6862V14.7105H22.764L22.8117 14.7589H22.7879L22.764 14.7105V14.7589H22.7401V14.6378L22.764 14.662ZM22.7401 14.662V14.6862H22.764C22.764 14.6862 22.764 14.6862 22.7879 14.6862C22.7879 14.6862 22.7879 14.6862 22.764 14.6862L22.7401 14.662ZM21.3553 14.1531C21.3553 13.9592 21.5463 13.7895 21.7373 13.8138C21.9283 13.8138 22.0955 14.0077 22.0716 14.2015C22.0716 14.3954 21.9045 14.5408 21.7135 14.5408C21.5225 14.5408 21.3553 14.3712 21.3553 14.1773V14.1531ZM12.5452 14.1531V13.5472H12.2826V13.6926C12.1871 13.5714 12.0438 13.4987 11.9005 13.523C11.5424 13.523 11.2798 13.8138 11.2798 14.1531C11.2798 14.5166 11.5663 14.7832 11.9005 14.7832C12.0438 14.7832 12.1871 14.7105 12.2826 14.6135V14.7589H12.5452V14.1531ZM11.5902 14.1531C11.5902 13.9592 11.7812 13.7895 11.9722 13.8138C12.1632 13.8138 12.3303 14.0077 12.3064 14.2015C12.3064 14.3954 12.1393 14.5408 11.9483 14.5408C11.7573 14.5408 11.5902 14.3954 11.5902 14.1773C11.5663 14.1773 11.5663 14.1773 11.5902 14.1531Z" fill="#231F20"/>
<path d="M17.6783 4.26538H13.7388V11.4631H17.6783V4.26538Z" fill="#FF5F00"/>
<path d="M14.0014 7.87634C14.0014 6.47072 14.6461 5.13782 15.7205 4.26537C13.7627 2.69011 10.9214 3.05363 9.3934 5.04088C7.84148 7.02812 8.19961 9.91205 10.1574 11.4631C11.8048 12.7717 14.0969 12.7717 15.7443 11.4631C14.6461 10.6149 14.0014 9.28195 14.0014 7.87634Z" fill="#EB001B"/>
<path d="M23.0267 7.87627C23.0267 10.3967 20.9972 12.4566 18.5142 12.4566C17.5114 12.4566 16.5086 12.1173 15.7207 11.4872C17.6785 9.91199 18.0128 7.05229 16.4847 5.06505C16.2698 4.77423 16.0072 4.50765 15.7207 4.28954C17.6785 2.71428 20.5197 3.0778 22.0478 5.06505C22.6924 5.86479 23.0267 6.85842 23.0267 7.87627Z" fill="#F79E1B"/>
<path d="M22.5965 10.7119V10.5665H22.6442V10.5422H22.501V10.5665H22.5726V10.7119H22.5965ZM22.883 10.7119V10.5422H22.8353L22.7875 10.6634L22.7397 10.5422H22.692V10.7119H22.7159V10.5665L22.7636 10.6876H22.7875L22.8353 10.5665V10.7119H22.883Z" fill="#F79E1B"/>
</svg>
