<svg width="31" height="19" viewBox="0 0 31 19" fill="none" xmlns="http://www.w3.org/2000/svg">
<path d="M30.3454 17.9821C30.3454 18.5395 29.8918 19 29.3426 19H1.40805C0.858908 19 0.405273 18.5395 0.405273 17.9821V1.01786C0.405273 0.460459 0.858908 0 1.40805 0H29.3665C29.9156 0 30.3693 0.460459 30.3693 1.01786V17.9821H30.3454Z" fill="#F9F9F9"/>
<path d="M21.1532 8.48214C20.9622 8.3852 20.6757 8.3125 20.2698 8.3125C20.0788 8.3125 19.8639 8.33673 19.6729 8.36097C19.5297 8.3852 19.5058 8.3852 19.4103 8.40944C19.2193 8.45791 19.1954 8.65179 19.1954 8.65179L19.1238 8.89413C19.0999 9.06378 19.1715 9.03954 19.2193 9.03954C19.2909 9.01531 19.3387 8.99107 19.5058 8.9426C19.6729 8.89413 19.8401 8.8699 19.9833 8.8699C20.1743 8.8699 20.3415 8.89413 20.437 8.9426C20.5325 8.99107 20.5802 9.06378 20.5802 9.16071C20.5802 9.18495 20.5802 9.20918 20.5802 9.23342C20.5802 9.25765 20.5563 9.28189 20.5086 9.28189C20.2221 9.30612 20.0311 9.33036 19.7684 9.35459C19.5297 9.37883 19.3148 9.45153 19.1238 9.52423C18.9328 9.62117 18.7895 9.71811 18.694 9.86352C18.5985 10.0089 18.5508 10.1786 18.5508 10.3967C18.5508 10.5906 18.6224 10.7602 18.7657 10.8814C18.9089 11.0026 19.076 11.0753 19.2909 11.0753C19.4342 11.0753 19.5297 11.0753 19.6013 11.051C19.6729 11.0268 19.7446 11.0026 19.8401 10.9783C19.9117 10.9541 19.9833 10.9056 20.055 10.8571C20.1266 10.8087 20.1743 10.7844 20.246 10.736L20.2221 10.8087C20.1982 10.9056 20.2698 10.9783 20.3653 11.0026C20.437 11.0026 20.6518 11.0026 20.7473 11.0026H20.819C20.9145 11.0026 21.01 10.9056 21.0339 10.8087L21.392 9.20918C21.392 9.16071 21.4159 9.13648 21.4159 9.08801C21.4159 9.03954 21.4159 8.99107 21.4159 8.96684C21.4397 8.74872 21.3442 8.57908 21.1532 8.48214ZM20.2698 10.3724C20.1982 10.4209 20.1505 10.4452 20.0788 10.4694C19.9833 10.5179 19.8878 10.5179 19.8162 10.5179C19.6968 10.5179 19.6013 10.4936 19.5297 10.4694C19.4581 10.4452 19.4342 10.3724 19.4342 10.2755C19.4342 10.1786 19.4581 10.0816 19.5058 10.0332C19.5536 9.96046 19.6252 9.91199 19.7207 9.88775C19.8162 9.86352 19.9117 9.83929 20.055 9.81505C20.1743 9.79082 20.3892 9.76658 20.4131 9.76658C20.437 9.76658 20.4608 9.74235 20.437 9.83929C20.437 9.86352 20.3653 10.1543 20.3415 10.2755C20.3415 10.2997 20.2937 10.3482 20.2698 10.3724Z" fill="#336699"/>
<path d="M14.8739 8.33674C14.7784 8.33674 14.6352 8.43367 14.5635 8.53061C14.5635 8.53061 13.8473 9.76658 13.7756 9.88776C13.7279 9.96046 13.704 9.91199 13.6801 9.88776C13.6801 9.86352 13.4653 8.53061 13.4653 8.53061C13.4414 8.43367 13.322 8.33674 13.2026 8.33674H12.749C12.6296 8.33674 12.5818 8.43367 12.6057 8.53061C12.6057 8.53061 12.94 10.4936 13.0116 10.9541C13.0355 11.2207 13.0116 11.2449 13.0116 11.2449L12.5819 12.0204C12.5102 12.1173 12.558 12.2143 12.6535 12.2143H13.1787C13.2743 12.2143 13.4175 12.1173 13.4891 12.0204L15.4708 8.60332C15.4708 8.60332 15.6618 8.3125 15.4947 8.3125C15.3514 8.33673 14.8739 8.33674 14.8739 8.33674Z" fill="#003366"/>
<path d="M8.61868 9.03948C8.47543 9.16065 8.26054 9.20912 7.99791 9.20912H7.87853C7.75915 9.20912 7.7114 9.11219 7.73527 9.01525L7.87853 8.36091C7.90241 8.26397 7.99791 8.16703 8.11729 8.16703H8.28442C8.47543 8.16703 8.61868 8.19127 8.71418 8.26397C8.80968 8.33667 8.85744 8.43361 8.85744 8.55479C8.83356 8.7729 8.76193 8.91831 8.61868 9.03948ZM9.69309 8.02162C9.62146 7.90045 9.54983 7.80351 9.43045 7.73081C9.31107 7.6581 9.16782 7.60963 9.00069 7.56116C8.83356 7.53693 8.64256 7.5127 8.4038 7.5127H7.35326C7.23388 7.5127 7.13838 7.60963 7.1145 7.70657L6.42211 10.8086C6.39823 10.9056 6.46986 11.0025 6.56536 11.0025H7.06676C7.16226 11.0025 7.28164 10.9056 7.30551 10.8086L7.47264 10.0573C7.49651 9.9604 7.59202 9.86346 7.7114 9.86346H7.85465C8.47542 9.86346 8.92906 9.74229 9.2872 9.47571C9.62146 9.23336 9.78859 8.89407 9.78859 8.48208C9.78859 8.31244 9.76472 8.1428 9.69309 8.02162Z" fill="#003366"/>
<path d="M17.6675 9.06365C17.5243 9.18482 17.3094 9.23329 17.0467 9.23329H16.9274C16.808 9.23329 16.7602 9.13635 16.7841 9.03942L16.9274 8.38508C16.9512 8.28814 17.0467 8.1912 17.1661 8.1912H17.3332C17.5243 8.1912 17.6675 8.21544 17.763 8.28814C17.8585 8.36084 17.9063 8.45778 17.9063 8.57896C17.8824 8.77283 17.8108 8.94248 17.6675 9.06365ZM18.7419 8.04579C18.6703 7.92462 18.5748 7.82768 18.4793 7.75498C18.3599 7.68227 18.2167 7.6338 18.0495 7.58533C17.8824 7.5611 17.6914 7.53687 17.4526 7.53687H16.4021C16.2827 7.53687 16.1872 7.6338 16.1633 7.73074L15.4709 10.8328C15.4471 10.9297 15.5187 11.0267 15.6142 11.0267H16.1156C16.2111 11.0267 16.3305 10.9297 16.3543 10.8328L16.5215 10.0815C16.5454 9.98457 16.6647 9.88763 16.7602 9.88763H16.9035C17.5243 9.88763 17.9779 9.76646 18.336 9.49987C18.6703 9.23329 18.8374 8.91824 18.8374 8.50625C18.8374 8.31237 18.8135 8.16697 18.7419 8.04579Z" fill="#336699"/>
<path d="M12.0805 8.48214C11.8895 8.3852 11.603 8.3125 11.1971 8.3125C11.0061 8.3125 10.7912 8.33673 10.6002 8.36097C10.4569 8.3852 10.433 8.3852 10.3375 8.40944C10.1465 8.45791 10.1227 8.65179 10.1227 8.65179L10.051 8.89413C10.0272 9.06378 10.0988 9.03954 10.1465 9.03954C10.2182 9.01531 10.2659 8.99107 10.4331 8.9426C10.6002 8.89413 10.7673 8.8699 10.9106 8.8699C11.1016 8.8699 11.2687 8.89413 11.3642 8.9426C11.4597 8.99107 11.5075 9.06378 11.5075 9.16071C11.5075 9.18495 11.5075 9.20918 11.5075 9.23342C11.5075 9.25765 11.4836 9.28189 11.4358 9.28189C11.1493 9.30612 10.9583 9.33036 10.6957 9.35459C10.4569 9.37883 10.242 9.45153 10.051 9.52423C9.86004 9.62117 9.71678 9.71811 9.62128 9.86352C9.52577 10.0089 9.47803 10.1786 9.47803 10.3967C9.47803 10.5906 9.54965 10.7602 9.69291 10.8814C9.83616 11.0026 10.0033 11.0753 10.2182 11.0753C10.3614 11.0753 10.4569 11.0753 10.5286 11.051C10.6002 11.0268 10.6718 11.0026 10.7673 10.9783C10.8389 10.9541 10.9106 10.9056 10.9822 10.8571C11.0538 10.8087 11.1016 10.7844 11.1732 10.736L11.1493 10.8087C11.1255 10.9056 11.1971 10.9783 11.2926 11.0026C11.3642 11.0026 11.5791 11.0026 11.6746 11.0026H11.7462C11.8417 10.9783 11.9372 10.9056 11.9611 10.8087L12.3192 9.20918C12.3192 9.16071 12.3431 9.13648 12.3431 9.08801C12.3431 9.03954 12.3431 8.99107 12.3431 8.96684C12.367 8.74872 12.2715 8.57908 12.0805 8.48214ZM11.221 10.3724C11.1493 10.4209 11.1016 10.4452 11.0299 10.4694C10.9344 10.5179 10.8389 10.5179 10.7673 10.5179C10.6479 10.5179 10.5524 10.4936 10.4808 10.4694C10.4092 10.4452 10.3853 10.3724 10.3853 10.2755C10.3853 10.1786 10.4092 10.0816 10.4569 10.0332C10.5047 9.96046 10.5763 9.91199 10.6718 9.88775C10.7673 9.86352 10.8628 9.83929 11.0061 9.81505C11.1254 9.79082 11.3403 9.76658 11.3642 9.76658C11.3881 9.76658 11.412 9.74235 11.3881 9.83929C11.3881 9.86352 11.3165 10.1543 11.2926 10.2755C11.2687 10.2997 11.221 10.3482 11.221 10.3724Z" fill="#003366"/>
<path d="M22.8724 7.56128H22.4187C22.3232 7.56128 22.2277 7.63398 22.18 7.73092C22.18 7.73092 22.18 7.73092 22.18 7.75516C22.18 7.75516 22.18 7.80363 22.1561 7.87633L21.5353 10.7118C21.5115 10.7845 21.5115 10.833 21.5115 10.833C21.4876 10.9299 21.5592 11.0026 21.6547 11.0268H22.1084C22.2039 11.0268 22.2994 10.9541 22.3471 10.8572C22.3471 10.8572 22.3471 10.8572 22.3471 10.833L23.0156 7.75516C23.0395 7.63398 22.9679 7.56128 22.8724 7.56128Z" fill="#336699"/>
<path d="M23.5409 8.1912C23.517 8.1912 23.517 8.1912 23.4931 8.1912C23.4692 8.1912 23.4692 8.1912 23.4454 8.1912C23.3976 8.1912 23.3499 8.16697 23.326 8.14273C23.3021 8.1185 23.2782 8.07003 23.2782 8.02156V7.75498H23.2305V7.68227H23.2782V7.53687H23.3498V7.68227H23.517V7.75498H23.3498V7.99732C23.3498 8.02156 23.3498 8.04579 23.3498 8.04579C23.3498 8.07003 23.3499 8.07003 23.3737 8.09426L23.3976 8.1185C23.3976 8.1185 23.4215 8.1185 23.4454 8.1185C23.4692 8.1185 23.4692 8.1185 23.4931 8.1185C23.517 8.1185 23.517 8.1185 23.517 8.1185V8.1912H23.5409Z" fill="#336699"/>
<path d="M24.3525 8.19112H24.2809V7.90031C24.2809 7.87607 24.2809 7.85184 24.2809 7.8276C24.2809 7.80337 24.2809 7.80337 24.257 7.77913C24.257 7.7549 24.2332 7.7549 24.2332 7.7549C24.2093 7.7549 24.2093 7.7549 24.1854 7.7549C24.1615 7.7549 24.1377 7.7549 24.1138 7.77913C24.0899 7.77913 24.066 7.80337 24.0422 7.8276V7.85184V7.87607V8.19112H23.9705V7.90031C23.9705 7.87607 23.9705 7.85184 23.9705 7.8276C23.9705 7.80337 23.9705 7.80337 23.9467 7.77913C23.9467 7.7549 23.9228 7.7549 23.9228 7.7549C23.8989 7.7549 23.8989 7.7549 23.875 7.7549C23.8512 7.7549 23.8273 7.7549 23.8034 7.77913C23.7795 7.77913 23.7557 7.80337 23.7318 7.8276V8.19112H23.6602V7.70643H23.7318V7.7549C23.7557 7.73066 23.7795 7.70643 23.8034 7.70643C23.8273 7.70643 23.8512 7.68219 23.875 7.68219C23.8989 7.68219 23.9467 7.68219 23.9705 7.70643C23.9944 7.73066 24.0183 7.73066 24.0183 7.7549C24.0422 7.73066 24.0899 7.70643 24.1138 7.68219C24.1377 7.65796 24.1615 7.65796 24.2093 7.65796C24.257 7.65796 24.3048 7.68219 24.3287 7.70643C24.3525 7.73066 24.3764 7.77913 24.3764 7.85184V8.19112H24.3525Z" fill="#336699"/>
</svg>
