<svg width="30" height="19" viewBox="0 0 30 19" fill="none" xmlns="http://www.w3.org/2000/svg">
<path d="M30.0002 17.9821C30.0002 18.5395 29.5466 19 28.9974 19H1.06284C0.513693 19 0.0600586 18.5395 0.0600586 17.9821V1.01786C0.0600586 0.460459 0.513693 0 1.06284 0H29.0213C29.5705 0 30.0241 0.460459 30.0241 1.01786V17.9821H30.0002Z" fill="#F9F9F9"/>
<path d="M24.8192 8.65164C24.6998 8.72435 24.5804 8.77282 24.461 8.82129C24.3178 8.86976 24.1745 8.91823 24.0313 8.94246C23.9596 8.94246 23.9119 8.9667 23.8403 8.9667C23.2434 9.01516 22.7181 8.89399 22.4316 8.60318V8.62741C22.4316 8.74858 22.4793 8.86976 22.551 8.9667C22.7897 9.23328 23.2434 9.40292 23.7925 9.40292C24.1506 9.40292 24.461 9.33022 24.7237 9.20904C24.8431 9.16057 24.9386 9.06363 25.0341 8.9667C25.1057 8.86976 25.1534 8.74858 25.1773 8.62741C25.1773 8.55471 25.1534 8.482 25.1296 8.4093C25.0102 8.50624 24.9385 8.57894 24.8192 8.65164ZM23.7686 8.26389C23.1956 8.31236 22.7181 8.21542 22.4077 7.97307C22.4077 8.09425 22.4555 8.19119 22.5271 8.28812C22.7659 8.55471 23.2195 8.72435 23.7686 8.72435C24.1268 8.72435 24.4372 8.65164 24.6998 8.53047C24.8192 8.482 24.9147 8.38506 25.0102 8.28812C25.0818 8.19119 25.1296 8.07001 25.1534 7.94884C25.1534 7.8519 25.1296 7.75496 25.0818 7.68226C25.0102 7.7792 24.6759 8.19119 23.7686 8.26389ZM23.7925 7.99731C24.1506 7.99731 24.461 7.9246 24.7237 7.80343C24.8431 7.75496 24.9386 7.65802 25.0341 7.56108C25.2012 7.36721 25.2012 7.07639 25.0341 6.88251C24.7953 6.61593 24.3417 6.44629 23.7925 6.44629C23.4344 6.44629 23.124 6.51899 22.8613 6.64017C22.742 6.68864 22.6465 6.78557 22.551 6.88251C22.4793 6.97945 22.4316 7.10063 22.4077 7.2218C22.4077 7.34297 22.4555 7.46415 22.5271 7.56108C22.7897 7.8519 23.2672 7.99731 23.7925 7.99731ZM22.742 6.95522C22.8613 6.78557 23.2672 6.64017 23.7448 6.64017C24.0551 6.64017 24.3416 6.71287 24.5327 6.80981C24.6043 6.85828 24.6759 6.90675 24.7475 6.95522C24.7714 7.00369 24.7953 7.05216 24.7953 7.10063C24.7953 7.14909 24.7714 7.19756 24.7475 7.24603C24.6282 7.41568 24.2223 7.56108 23.7448 7.56108C23.4344 7.56108 23.1479 7.48838 22.9569 7.39144C22.8852 7.34297 22.8136 7.2945 22.742 7.24603C22.7181 7.19756 22.6942 7.14909 22.6942 7.10063C22.6942 7.05216 22.7181 7.00369 22.742 6.95522Z" fill="url(#paint0_linear)"/>
<path d="M10.5653 8.40934C10.4459 8.26393 10.2549 8.19123 10.0162 8.19123H8.96564L8.894 8.60322H9.94454C10.04 8.60322 10.1355 8.65169 10.2072 8.72439C10.2788 8.79709 10.3027 8.91827 10.2788 9.01521L10.2549 9.08791V9.13638H9.27602C9.03726 9.13638 8.82237 9.20908 8.65524 9.37873C8.46424 9.52414 8.34486 9.71801 8.29711 9.96036V10.0088C8.24936 10.2512 8.29711 10.4451 8.41649 10.5905C8.53586 10.7359 8.72687 10.8086 8.94175 10.8086H10.3265L10.6847 9.01521C10.7324 8.74862 10.6847 8.55475 10.5653 8.40934ZM9.99229 10.3723H9.01338C8.91787 10.3723 8.82238 10.3239 8.75075 10.2512C8.67912 10.1785 8.65525 10.0815 8.67913 9.96036V9.91189C8.703 9.79072 8.77463 9.69378 8.84626 9.62107C8.94176 9.54837 9.03726 9.4999 9.15664 9.4999H10.1355L9.99229 10.3723ZM12.9529 8.19123L12.5231 10.3723H11.5203C11.4248 10.3723 11.3293 10.3239 11.2577 10.2512C11.1861 10.1785 11.1622 10.0815 11.1861 9.96036L11.5442 8.19123H11.1383L10.7802 9.96036C10.7324 10.2027 10.7802 10.3966 10.8996 10.542C11.0189 10.6874 11.2099 10.7601 11.4487 10.7601H12.4754L12.4515 10.9055C12.4276 11.0267 12.356 11.1236 12.2605 11.1963C12.165 11.269 12.0695 11.3175 11.9501 11.3175H10.5653L10.4937 11.7295H11.8785C12.1172 11.7295 12.3321 11.6326 12.4992 11.4871C12.6902 11.3417 12.8096 11.1479 12.8574 10.9055L13.4065 8.16699L12.9529 8.19123Z" fill="url(#paint1_linear)"/>
<path d="M17.1791 10.7602H15.7943C15.5555 10.7602 15.3884 10.6875 15.269 10.5421C15.1496 10.3967 15.1019 10.2028 15.1496 9.96043V9.91196C15.1974 9.66961 15.3168 9.47573 15.5078 9.33032C15.6749 9.18491 15.9137 9.08798 16.1286 9.08798H17.1075V9.03951L17.1313 8.9668C17.1552 8.84563 17.1314 8.74869 17.0597 8.67599C16.9881 8.60328 16.8926 8.55481 16.7971 8.55481H15.6511L15.7227 8.14282H16.8687C17.1075 8.14282 17.2746 8.21553 17.4179 8.36093C17.5372 8.50634 17.585 8.70022 17.5372 8.91833L17.1791 10.7602ZM16.8448 10.3724L17.012 9.5242H16.0331C15.9137 9.5242 15.8182 9.57267 15.7227 9.64537C15.6272 9.71808 15.5794 9.81502 15.5555 9.93619V9.98466C15.5317 10.1058 15.5555 10.2028 15.6272 10.2755C15.6988 10.3482 15.7943 10.3967 15.8898 10.3967L16.8448 10.3724Z" fill="#231F20"/>
<path d="M19.8291 10.0573C19.7814 10.2754 19.662 10.4693 19.471 10.5905C19.3039 10.7116 19.089 10.7843 18.8741 10.7601H17.5132L17.5848 10.3481H18.9457C19.2084 10.3481 19.3755 10.2512 19.3994 10.0573L19.4232 9.96036C19.471 9.76649 19.3516 9.66955 19.089 9.66955H18.4682C18.2295 9.66955 18.0623 9.62108 17.9429 9.49991C17.7997 9.37873 17.7519 9.18485 17.7997 8.96674L17.8236 8.8698C17.8713 8.65169 17.9907 8.45781 18.1817 8.33664C18.3488 8.21547 18.5637 8.14276 18.7786 8.167H20.1395L20.0679 8.57899H18.707C18.4443 8.57899 18.2772 8.67593 18.2295 8.8698L18.2056 8.96674C18.1578 9.16062 18.2772 9.25756 18.5637 9.25756H19.1845C19.4232 9.25756 19.5904 9.30603 19.7098 9.4272C19.853 9.54838 19.9008 9.74225 19.853 9.96036L19.8291 10.0573Z" fill="#231F20"/>
<path d="M21.6674 10.76H21.0228C20.784 10.76 20.6169 10.6873 20.4975 10.5419C20.3782 10.3965 20.3304 10.2026 20.3782 9.96026L20.6647 8.55465H20.402L20.4975 8.14266H20.7602L20.9512 7.19751H21.357L21.166 8.14266H22.0256L21.9301 8.55465H21.0705L20.784 9.96026C20.7602 10.0814 20.784 10.1784 20.8318 10.2511C20.9034 10.3238 20.9989 10.3723 21.0944 10.3723H21.7391L21.6674 10.76Z" fill="#231F20"/>
<path d="M8.72696 8.43346C8.6792 8.65158 8.55983 8.86969 8.36882 8.99086C8.20169 9.13627 7.9868 9.20897 7.74804 9.23321H6.36325L6.05286 10.7842H5.64697L6.36325 7.29443H8.15393C8.36881 7.29443 8.53595 7.36714 8.6792 7.51255C8.79858 7.65795 8.84633 7.85183 8.79858 8.06994L8.72696 8.43346ZM8.32106 8.43346L8.39269 8.06994C8.41656 7.94877 8.39269 7.87607 8.34493 7.77913C8.27331 7.70642 8.17781 7.65795 8.08231 7.65795H6.69751L6.45876 8.79698H7.84355C7.96293 8.79698 8.05843 8.74851 8.15393 8.67581C8.24943 8.65158 8.29719 8.5304 8.32106 8.43346Z" fill="url(#paint2_linear)"/>
<path d="M16.4627 7.6095H14.7914C14.5527 7.6095 14.3617 7.77914 14.29 8.02149L14.1468 8.797H15.1973L15.1257 9.20899H14.0752L13.7648 10.76H13.3589L13.908 8.02149C14.0035 7.56103 14.4094 7.22174 14.8869 7.19751H16.5582L16.4627 7.6095Z" fill="#231F20"/>
<path d="M13.5735 12.0446H13.1915L13.096 12.2869H13.0244L13.3348 11.4387H13.4064L13.7168 12.2869H13.6452L13.5735 12.0446ZM13.2154 11.9719H13.5497L13.3825 11.5114L13.2154 11.9719Z" fill="#414042"/>
<path d="M14.123 12.2625V11.4143H14.3618C14.4334 11.4143 14.5051 11.4385 14.5528 11.4628C14.6006 11.487 14.6483 11.5355 14.6961 11.6082C14.7199 11.6809 14.7438 11.7536 14.7438 11.8263V11.8748C14.7438 11.9475 14.7199 12.0202 14.6961 12.0929C14.6722 12.1413 14.6244 12.1898 14.5528 12.2383C14.4812 12.2625 14.4334 12.2868 14.3618 12.2868L14.123 12.2625ZM14.2663 11.5597V12.1656H14.3618C14.4334 12.1656 14.4812 12.1413 14.5289 12.0929C14.5767 12.0444 14.6006 11.9717 14.6006 11.899V11.8505C14.6006 11.7536 14.5767 11.6809 14.5528 11.6324C14.5051 11.5839 14.4573 11.5597 14.3857 11.5597H14.2663Z" fill="#414042"/>
<path d="M15.03 11.9719V12.2869H14.8867V11.4387H15.1971C15.2687 11.4387 15.3642 11.463 15.412 11.5114C15.4597 11.5599 15.5075 11.6326 15.4836 11.7053C15.4836 11.778 15.4597 11.8507 15.412 11.8992C15.3642 11.9476 15.2926 11.9719 15.1971 11.9719H15.03ZM15.03 11.8507H15.1971C15.2448 11.8507 15.2926 11.8507 15.3165 11.8022C15.3404 11.778 15.3642 11.7295 15.3642 11.7053C15.3642 11.6568 15.3404 11.6326 15.3165 11.6084C15.2926 11.5841 15.2448 11.5599 15.1971 11.5599H15.03V11.8507Z" fill="#414042"/>
<path d="M16.2715 11.8747C16.2715 11.9474 16.2476 12.0201 16.2237 12.0928C16.1999 12.1413 16.1521 12.1898 16.1044 12.2382C15.985 12.3109 15.8656 12.3109 15.7462 12.2382C15.6985 12.214 15.6507 12.1655 15.6269 12.0928C15.603 12.0201 15.5791 11.9474 15.5791 11.8747V11.8263C15.5791 11.7535 15.603 11.6808 15.6269 11.6081C15.6507 11.5597 15.6985 11.5112 15.7462 11.4627C15.8656 11.39 15.985 11.39 16.1044 11.4627C16.1521 11.487 16.1999 11.5354 16.2237 11.6081C16.2476 11.6808 16.2715 11.7535 16.2715 11.8263V11.8747ZM16.1283 11.8263C16.1283 11.7293 16.1044 11.6566 16.0805 11.6081C16.0089 11.5354 15.9134 11.5112 15.8179 11.5597C15.794 11.5597 15.794 11.5839 15.7701 11.6081C15.7224 11.6808 15.7224 11.7535 15.7224 11.8263V11.8747C15.7224 11.9717 15.7462 12.0444 15.7701 12.0928C15.794 12.1413 15.8656 12.1655 15.9134 12.1655C15.9611 12.1655 16.0327 12.1413 16.0566 12.0928C16.0805 12.0444 16.1044 11.9717 16.1044 11.8747L16.1283 11.8263Z" fill="#414042"/>
<path d="M17.3224 12.0202C17.3224 12.0929 17.2746 12.1656 17.2269 12.2141C17.1791 12.2625 17.0836 12.2868 17.012 12.2868C16.9642 12.2868 16.8926 12.2625 16.8449 12.2383C16.7971 12.2141 16.7494 12.1656 16.7255 12.1171C16.7016 12.0444 16.6777 11.996 16.6777 11.9233V11.8263C16.6777 11.7536 16.6777 11.6809 16.7255 11.6324C16.7494 11.584 16.7971 11.5355 16.8449 11.5113C16.8926 11.487 16.9642 11.4628 17.012 11.4628C17.1552 11.4386 17.2985 11.5597 17.2985 11.7294V11.7536H17.2269C17.203 11.6082 17.1314 11.5355 16.9881 11.5355C16.9165 11.5355 16.8449 11.5597 16.821 11.6324C16.7732 11.6809 16.7494 11.7779 16.7494 11.8748V11.9717C16.7494 12.0444 16.7732 12.1414 16.821 12.2141C16.8687 12.2625 16.9165 12.311 16.9881 12.311C17.0597 12.311 17.1075 12.2868 17.1552 12.2625C17.203 12.2141 17.2269 12.1656 17.2269 12.0929L17.3224 12.0202Z" fill="#414042"/>
<path d="M17.4414 11.9476C17.4414 11.8991 17.4414 11.8264 17.4653 11.778C17.513 11.681 17.6085 11.6326 17.704 11.6326C17.7757 11.6326 17.8473 11.6568 17.895 11.7295C17.9428 11.8022 17.9667 11.8749 17.9667 11.9719V11.9961C17.9667 12.0446 17.9667 12.1173 17.9428 12.1657C17.9189 12.2142 17.895 12.2384 17.8473 12.2869C17.7995 12.3111 17.7518 12.3354 17.704 12.3354C17.6324 12.3354 17.5608 12.3111 17.513 12.2384C17.4653 12.1415 17.4414 12.0446 17.4414 11.9476ZM17.513 11.9719C17.513 12.0446 17.5369 12.093 17.5608 12.1657C17.6324 12.2384 17.7518 12.2627 17.8234 12.19L17.8473 12.1657C17.895 12.1173 17.9189 12.0446 17.895 11.9719V11.9476C17.895 11.8991 17.895 11.8507 17.8712 11.8264C17.8473 11.778 17.8234 11.7537 17.7995 11.7295C17.7757 11.7053 17.7279 11.7053 17.6802 11.7053C17.6324 11.7053 17.5608 11.7295 17.5369 11.778C17.513 11.8264 17.4892 11.8992 17.513 11.9719Z" fill="#414042"/>
<path d="M18.1815 11.6567V11.7537C18.2054 11.7294 18.2292 11.681 18.277 11.681C18.3009 11.6567 18.3486 11.6567 18.3964 11.6567C18.4919 11.6567 18.5635 11.7052 18.5874 11.7779C18.6112 11.7294 18.6351 11.7052 18.6829 11.681C18.7306 11.6567 18.7545 11.6567 18.8022 11.6567C18.9455 11.6567 18.9933 11.7294 18.9933 11.8749V12.2868H18.9216V11.8749C18.9216 11.8264 18.9216 11.7779 18.8977 11.7537C18.8739 11.7294 18.8261 11.7052 18.7784 11.7052C18.7306 11.7052 18.6829 11.7294 18.659 11.7537C18.6351 11.7779 18.6112 11.8264 18.6112 11.8749V12.2868H18.5396V11.8749C18.5396 11.8264 18.5396 11.7779 18.4919 11.7537C18.468 11.7294 18.4202 11.7052 18.3725 11.7052C18.3247 11.7052 18.3009 11.7052 18.2531 11.7537C18.2292 11.7779 18.2054 11.8264 18.1815 11.8749V12.3111H18.1099V11.681H18.1815V11.6567Z" fill="#414042"/>
<path d="M19.6381 11.9718C19.6381 12.0445 19.6142 12.1414 19.5665 12.2141C19.5187 12.2626 19.471 12.3111 19.3994 12.3111C19.3277 12.3111 19.2561 12.2868 19.2083 12.2141V12.5292H19.1367V11.6567H19.2083V11.7537C19.2561 11.681 19.3277 11.6567 19.3994 11.6567C19.471 11.6567 19.5426 11.681 19.5665 11.7537C19.6142 11.7779 19.6381 11.8506 19.6381 11.9718ZM19.5665 11.9476C19.5665 11.8749 19.5426 11.8264 19.5187 11.7537C19.4949 11.7052 19.4471 11.681 19.3755 11.681C19.3277 11.681 19.3038 11.681 19.28 11.7052C19.2561 11.7294 19.2322 11.7537 19.2083 11.8021V12.1172C19.2322 12.1414 19.2561 12.1899 19.28 12.1899C19.3038 12.2141 19.3516 12.2141 19.3994 12.2141C19.4471 12.2141 19.4949 12.1899 19.5426 12.1414C19.5665 12.1172 19.5665 12.0445 19.5665 11.9476Z" fill="#414042"/>
<path d="M20.1871 12.2626C20.1871 12.2384 20.1632 12.2141 20.1632 12.1657C20.1393 12.1899 20.1155 12.2141 20.0677 12.2384C20.02 12.2626 19.9961 12.2626 19.9483 12.2626C19.9006 12.2626 19.8528 12.2384 19.8051 12.2141C19.7573 12.1899 19.7573 12.1414 19.7573 12.093C19.7573 12.0445 19.7812 11.9718 19.829 11.9476C19.9006 11.8991 19.9722 11.8991 20.0438 11.8991H20.1632V11.8264C20.1632 11.7779 20.1393 11.7537 20.1155 11.7294C20.0916 11.7052 20.0438 11.681 19.9961 11.681C19.9483 11.681 19.9245 11.681 19.8767 11.7294C19.8528 11.7537 19.829 11.7779 19.829 11.8264H19.7573C19.7573 11.7779 19.7812 11.7294 19.829 11.7052C19.8767 11.6567 19.9245 11.6567 19.9961 11.6567C20.0438 11.6567 20.1155 11.681 20.1632 11.7052C20.211 11.7537 20.2348 11.8021 20.2348 11.8506V12.1414C20.2348 12.1899 20.2349 12.2384 20.2587 12.2868L20.1871 12.2626ZM19.9722 12.2141C20.02 12.2141 20.0677 12.2141 20.0916 12.1899C20.1155 12.1657 20.1632 12.1414 20.1632 12.093V11.9476H20.0438C19.9961 11.9476 19.9245 11.9476 19.8767 11.996C19.829 12.0203 19.8051 12.093 19.829 12.1657L19.8528 12.1899C19.9006 12.2141 19.9245 12.2141 19.9722 12.2141Z" fill="#414042"/>
<path d="M20.474 11.6568V11.7537C20.4978 11.7053 20.5217 11.681 20.5695 11.6568C20.5934 11.6326 20.6411 11.6326 20.6889 11.6326C20.7366 11.6326 20.8082 11.6568 20.8321 11.681C20.856 11.7295 20.8799 11.778 20.8799 11.8507V12.2627H20.8082V11.8749C20.8082 11.8264 20.8082 11.778 20.7844 11.7537C20.7605 11.7295 20.7127 11.7053 20.665 11.7053C20.6172 11.7053 20.5934 11.7295 20.5456 11.7537C20.5217 11.778 20.4978 11.8264 20.474 11.8507V12.2869H20.4023V11.6568H20.474Z" fill="#414042"/>
<path d="M21.2616 12.1657L21.4526 11.6326H21.5242L21.2616 12.3596L21.2377 12.3838C21.2138 12.4565 21.1422 12.505 21.0706 12.505C21.0467 12.505 21.0467 12.505 21.0228 12.505V12.4565H21.0467C21.0706 12.4565 21.0944 12.4565 21.1183 12.4323C21.1422 12.4081 21.1661 12.3838 21.1661 12.3354L21.1899 12.2627L20.9512 11.6326H21.0228L21.2616 12.1657Z" fill="#414042"/>
<defs>
<linearGradient id="paint0_linear" x1="23.5157" y1="10.7048" x2="23.0444" y2="15.3088" gradientUnits="userSpaceOnUse">
<stop offset="0.02" stop-color="#ED1C24"/>
<stop offset="1" stop-color="#BE1E2D"/>
</linearGradient>
<linearGradient id="paint1_linear" x1="10.8076" y1="8.4544" x2="10.8162" y2="10.6922" gradientUnits="userSpaceOnUse">
<stop offset="0.02" stop-color="#ED1C24"/>
<stop offset="1" stop-color="#BE1E2D"/>
</linearGradient>
<linearGradient id="paint2_linear" x1="7.24742" y1="8.07179" x2="7.24742" y2="10.9783" gradientUnits="userSpaceOnUse">
<stop offset="0.02" stop-color="#ED1C24"/>
<stop offset="1" stop-color="#BE1E2D"/>
</linearGradient>
</defs>
</svg>
