<svg width="237" height="308" viewBox="0 0 237 308" fill="none" xmlns="http://www.w3.org/2000/svg">
<g style="mix-blend-mode:multiply">
<g style="mix-blend-mode:multiply">
<path d="M0 251.004L98.5218 308L166.331 268.776L67.8097 211.793L0 251.004Z" fill="#E8E8E8"/>
</g>
</g>
<path d="M164.234 153.097L150.447 145.067L118.974 126.92L41.252 171.872L72.7789 190.113L86.5119 198.062L120.684 217.828L198.366 172.876L164.234 153.097Z" fill="#FFDDA8"/>
<path d="M118.975 128.125L43.3633 171.872L120.685 216.276L196.296 172.849L118.975 128.125Z" fill="#DDA866"/>
<path d="M118.974 128.125V207.082L128.325 211.967L196.241 172.903L118.974 128.125Z" fill="#AA6838"/>
<path d="M120.684 217.801V295.233L86.5787 275.668L72.7789 267.759L41.252 249.665V171.872L72.7789 190.113L86.5787 198.076L120.684 217.801Z" fill="#BC7C46"/>
<path d="M120.685 217.815V295.233L198.366 250.575V172.876L120.685 217.815Z" fill="#DDA866"/>
<path d="M117.705 127.469L88.3152 92.6743L11.8623 135.78V137.533L41.2519 171.872L42.8549 172.033L117.731 128.767L117.705 127.469Z" fill="#BC7C46"/>
<path d="M11.8496 135.806L42.8556 172.033L119.001 128.098V126.76L89.4113 91.51L11.8496 135.806Z" fill="#EDC893"/>
<path d="M157.996 93.7048L120.23 128.205L196.296 173.09L198.473 172.823L235.745 138.296L235.17 137.051L159.118 93.0223L157.996 93.7048Z" fill="#BC7C46"/>
<path d="M196.295 173.09L235.116 137.051L157.901 92.2595L156.766 92.942L118.64 127.844L196.295 173.09Z" fill="#EDC893"/>
<path d="M131.09 277.568L130.529 277.889V268.347L131.09 268.04V277.568Z" fill="#4F2E16"/>
<path d="M133.041 269.003L132.654 269.659L130.81 268.441L128.98 271.787L128.579 271.586L130.81 267.504L133.041 269.003Z" fill="#4F2E16"/>
<path d="M136.555 274.396L136.007 274.731V265.189L136.555 264.881V274.396Z" fill="#4F2E16"/>
<path d="M138.518 265.832L138.104 266.501L136.287 265.269L134.444 268.615L134.043 268.428L136.287 264.346L138.518 265.832Z" fill="#4F2E16"/>
<path d="M138.652 273.513L128.446 279.415C128.285 279.495 128.165 279.415 128.165 279.254C128.169 279.159 128.197 279.066 128.246 278.985C128.295 278.903 128.364 278.835 128.446 278.786L138.652 272.884C138.799 272.791 138.919 272.884 138.919 273.045C138.912 273.138 138.884 273.228 138.838 273.309C138.792 273.39 138.728 273.46 138.652 273.513Z" fill="#4F2E16"/>
<path d="M138.571 276.096L128.539 281.904C127.47 282.506 126.615 282.011 126.615 280.793V269.191C126.65 268.522 126.842 267.872 127.177 267.292C127.511 266.713 127.978 266.222 128.539 265.858L138.571 260.05C139.613 259.448 140.468 259.943 140.468 261.161V272.777C140.432 273.44 140.241 274.085 139.912 274.661C139.582 275.237 139.123 275.729 138.571 276.096ZM128.539 266.501C128.146 266.763 127.821 267.114 127.589 267.525C127.357 267.937 127.224 268.397 127.203 268.869V280.472C127.203 281.355 127.818 281.703 128.539 281.262L138.571 275.454C138.967 275.195 139.295 274.844 139.527 274.432C139.76 274.02 139.89 273.558 139.907 273.085V261.482C139.907 260.612 139.293 260.251 138.571 260.693L128.539 266.501Z" fill="#4F2E16"/>
<path d="M154.602 266.768L144.57 272.576C143.514 273.192 142.659 272.683 142.659 271.479V259.863C142.696 259.199 142.889 258.552 143.22 257.976C143.552 257.4 144.014 256.909 144.57 256.544L154.602 250.736C155.657 250.134 156.512 250.629 156.512 251.847V263.449C156.479 264.115 156.289 264.763 155.957 265.34C155.625 265.917 155.16 266.406 154.602 266.768ZM144.57 257.173C144.175 257.436 143.848 257.789 143.616 258.203C143.384 258.617 143.253 259.081 143.234 259.555V271.158C143.234 272.028 143.835 272.389 144.57 271.947L154.602 266.139C154.994 265.876 155.319 265.525 155.551 265.114C155.783 264.703 155.915 264.242 155.938 263.771V252.154C155.938 251.285 155.323 250.937 154.602 251.365L144.57 257.173Z" fill="#4F2E16"/>
<path d="M149.619 266.514C149.459 266.608 149.339 266.514 149.339 266.353V258.043C149.343 257.948 149.371 257.855 149.42 257.773C149.469 257.691 149.538 257.623 149.619 257.574C149.766 257.481 149.887 257.574 149.887 257.722V266.046C149.88 266.139 149.853 266.229 149.807 266.311C149.761 266.392 149.697 266.461 149.619 266.514Z" fill="#4F2E16"/>
<path d="M150.822 265.791L148.283 267.237C148.137 267.317 148.003 267.237 148.003 267.076C148.007 266.981 148.035 266.888 148.084 266.806C148.133 266.725 148.202 266.656 148.283 266.608L150.768 265.162C150.915 265.069 151.035 265.162 151.035 265.323C151.036 265.412 151.017 265.5 150.98 265.581C150.943 265.662 150.889 265.733 150.822 265.791Z" fill="#4F2E16"/>
<path d="M152.291 255.273V259.154C152.263 259.725 152.1 260.282 151.814 260.778C151.528 261.274 151.129 261.694 150.648 262.004L148.644 263.168C147.736 263.69 147.015 263.262 147.015 262.218V258.284L148.003 257.708V261.857C148.003 262.031 148.123 262.111 148.27 262.018C148.351 261.967 148.418 261.898 148.467 261.817C148.515 261.736 148.544 261.644 148.551 261.549V257.387L152.291 255.273Z" fill="#4F2E16"/>
<path d="M118.974 206.48L111.399 210.869L120.751 216.222L128.338 211.86L118.974 206.48Z" fill="#C68B51"/>
<path d="M1.92383 160.096L42.9757 172.153L120.684 216.262L120.671 217.721L79.2317 207.47L1.92383 161.474V160.096Z" fill="#DDA866"/>
<path d="M43.136 171.872L1.92383 160.082L79.2451 206.092L120.658 216.303L43.136 171.872Z" fill="#EDC893"/>
<path d="M197.338 174.107L120.685 216.276V217.882L159.652 227.41L236.987 183.248V181.909L197.338 174.107Z" fill="#BC7C46"/>
<path d="M196.296 172.849L120.685 216.276L159.666 226.085L237 181.923L198.407 172.823L196.296 172.849Z" fill="#EDC893"/>
<path d="M100.312 108.399V107.462C100.293 105.9 99.6766 104.406 98.5889 103.287C97.4844 102.183 95.9878 101.563 94.4276 101.563C92.8673 101.563 91.3707 102.183 90.2663 103.287C89.182 104.408 88.5657 105.901 88.543 107.462V108.399C88.5616 109.961 89.1786 111.455 90.2663 112.574C91.3707 113.678 92.8673 114.298 94.4276 114.298C95.9878 114.298 97.4844 113.678 98.5889 112.574C99.6731 111.453 100.289 109.96 100.312 108.399Z" fill="#FFD745"/>
<path d="M80.06 32.2653C87.6345 32.2653 87.6479 20.4619 80.06 20.4619C72.4722 20.4619 72.4722 32.2653 80.06 32.2653Z" fill="#FF5CD8"/>
<path d="M158.022 43.6138C158.389 43.5788 158.73 43.4078 158.978 43.1344C159.227 42.8609 159.364 42.5046 159.364 42.135C159.364 41.7654 159.227 41.4091 158.978 41.1357C158.73 40.8622 158.389 40.6913 158.022 40.6562C157.655 40.6913 157.314 40.8622 157.065 41.1357C156.817 41.4091 156.68 41.7654 156.68 42.135C156.68 42.5046 156.817 42.8609 157.065 43.1344C157.314 43.4078 157.655 43.5788 158.022 43.6138Z" fill="#FFD745"/>
<path d="M179.01 61.3056C179.399 61.3056 179.773 61.1505 180.049 60.8745C180.324 60.5984 180.479 60.224 180.479 59.8335C180.479 59.4431 180.324 59.0687 180.049 58.7926C179.773 58.5165 179.399 58.3615 179.01 58.3615C178.62 58.3615 178.246 58.5165 177.97 58.7926C177.695 59.0687 177.54 59.4431 177.54 59.8335C177.54 60.224 177.695 60.5984 177.97 60.8745C178.246 61.1505 178.62 61.3056 179.01 61.3056Z" fill="#FFD745"/>
<path d="M97.9741 14.1454V13.4897C97.9741 13.0992 97.8193 12.7248 97.5437 12.4487C97.2681 12.1727 96.8944 12.0176 96.5046 12.0176C96.1149 12.0176 95.7411 12.1727 95.4656 12.4487C95.19 12.7248 95.0352 13.0992 95.0352 13.4897V14.1454C95.0352 14.5358 95.19 14.9103 95.4656 15.1863C95.7411 15.4624 96.1149 15.6175 96.5046 15.6175C96.8944 15.6175 97.2681 15.4624 97.5437 15.1863C97.8193 14.9103 97.9741 14.5358 97.9741 14.1454Z" fill="#FFD745"/>
<path d="M95.8501 38.5552C96.2173 38.5202 96.5584 38.3492 96.8066 38.0758C97.0548 37.8023 97.1923 37.446 97.1923 37.0764C97.1923 36.7068 97.0548 36.3505 96.8066 36.0771C96.5584 35.8036 96.2173 35.6327 95.8501 35.5977C95.4828 35.6327 95.1417 35.8036 94.8935 36.0771C94.6453 36.3505 94.5078 36.7068 94.5078 37.0764C94.5078 37.446 94.6453 37.8023 94.8935 38.0758C95.1417 38.3492 95.4828 38.5202 95.8501 38.5552Z" fill="#FFD745"/>
<path d="M148.938 50.7602C148.938 50.7602 149.766 55.6314 144.142 57.5318C138.518 59.4321 130.008 60.0075 128.445 63.4201C127.506 62.8548 126.696 62.0981 126.068 61.1989C125.44 60.2998 125.007 59.2783 124.798 58.2009C124.277 54.7482 134.029 52.6203 138.237 51.5096C142.445 50.3988 145.946 49.1007 146.253 46.3573L148.938 50.7602Z" fill="#1F68F8"/>
<g style="mix-blend-mode:multiply">
<path d="M132.253 53.1423C134.484 52.4464 136.742 51.9111 138.278 51.5096C142.472 50.4122 145.986 49.1007 146.293 46.3573L148.965 50.7602C149.11 52.0193 148.858 53.2924 148.245 54.401C147.632 55.5097 146.688 56.3985 145.545 56.9429C141.296 55.1078 136.829 53.8304 132.253 53.1423Z" fill="#1F68F8"/>
</g>
<path d="M127.03 47.5215C127.03 47.5215 130.69 50.265 137.289 48.6992C141.293 47.9058 145.448 48.6409 148.938 50.7601C148.938 50.7601 148.738 44.6175 143.595 43.0652C138.452 41.5128 131.078 44.5774 128.165 43.5603C126.428 42.9523 124.81 42.0467 123.383 40.8838L127.03 47.5215Z" fill="#00D8AD"/>
<g style="mix-blend-mode:multiply" opacity="0.6">
<path d="M142.338 42.8242C141.012 44.5307 139.937 46.419 139.146 48.4315C138.52 48.4894 137.9 48.5923 137.289 48.7393C130.689 50.3051 127.029 47.5617 127.029 47.5617L123.355 40.9774C124.783 42.1403 126.401 43.046 128.138 43.6539C130.823 44.497 137.289 41.9543 142.338 42.8242Z" fill="#00D8AD"/>
</g>
<path d="M147.963 30.365C147.963 30.365 149.019 32.4126 145.893 34.9686C142.767 37.5247 130.69 39.7998 128.593 42.8242C127.591 44.186 127.044 45.8299 127.03 47.5215C127.03 47.5215 121.272 43.1588 122.902 38.4883C124.051 35.0757 128.419 33.3761 133.669 31.0877C137.47 29.5446 141.412 28.3748 145.438 27.5948L147.963 30.365Z" fill="#1F68F8"/>
<g style="mix-blend-mode:multiply">
<path d="M126.281 34.6207C128.63 33.2695 131.072 32.0888 133.589 31.0877C137.39 29.5446 141.331 28.3748 145.358 27.5948L147.936 30.3517C147.936 30.3517 148.991 32.4126 145.865 34.9686C144.436 36.1329 141.123 37.2571 137.757 38.408C134.08 36.7332 130.232 35.4633 126.281 34.6207Z" fill="#1F68F8"/>
</g>
<path d="M124.986 30.1644C124.986 30.1644 126.91 32.7071 132.253 33.3093C138.452 34.0052 143.341 28.893 147.963 30.3651C147.963 30.3651 146.467 23.4329 138.292 24.3162C130.116 25.1994 126.122 30.6863 120.765 23.3125L124.986 30.1644Z" fill="#00D8AD"/>
<g style="mix-blend-mode:multiply" opacity="0.6">
<path d="M143.515 27.3406C143.119 26.0973 142.295 25.035 141.19 24.3429C142.786 24.5604 144.282 25.2475 145.488 26.3172C146.693 27.3869 147.555 28.791 147.963 30.3517C146.505 29.9691 144.966 30.0296 143.542 30.5256C143.767 29.4749 143.757 28.3874 143.515 27.3406Z" fill="#00D8AD"/>
</g>
<path d="M137.022 8.2169L125.974 0C125.974 0 112.963 17.9193 124.985 30.1643C124.985 30.1643 122.781 26.5912 126.321 18.2405C127.991 14.2257 131.638 10.7061 137.022 8.2169Z" fill="#1F68F8"/>
<g style="mix-blend-mode:multiply">
<path d="M119.99 15.564C120.14 17.2069 120.621 18.8022 121.404 20.2536C122.187 21.705 123.255 22.9823 124.545 24.0084C123.824 28.264 124.986 30.1644 124.986 30.1644C123.103 28.2693 121.674 25.9701 120.809 23.4407C119.943 20.9113 119.663 18.2178 119.99 15.564Z" fill="#1F68F8"/>
</g>
<path d="M93.5118 133.933C95.8129 135.396 97.6087 137.533 98.6555 140.055C99.7023 142.576 99.9493 145.358 99.363 148.025C97.4527 157.647 86.7522 168.634 89.7713 183.194C87.725 183.861 85.5407 183.984 83.4329 183.549C81.325 183.115 79.3661 182.14 77.7483 180.718C77.6978 174.362 79.2022 168.09 82.13 162.451C87.0728 152.695 95.2885 138.51 87.0728 133.933H93.5118Z" fill="#1F68F8"/>
<g style="mix-blend-mode:multiply">
<path d="M93.5126 133.933H87.0069C95.2226 138.51 87.0069 152.668 82.0641 162.451C81.435 163.691 80.8732 164.964 80.3809 166.265C86.2154 164.459 91.1597 160.524 94.234 155.238C96.9703 150.094 98.2108 144.285 97.8142 138.47C96.7515 136.643 95.2787 135.09 93.5126 133.933Z" fill="#1F68F8"/>
</g>
<path d="M46.8226 151.063C48.177 153.659 50.3587 155.728 53.0211 156.94C55.6835 158.153 58.6739 158.439 61.5174 157.754C70.7484 155.813 79.5252 142.792 88.2351 135.432C88.9249 134.768 89.7668 134.284 90.6869 134.023C91.607 133.761 92.5771 133.731 93.5119 133.933C93.5119 133.933 88.676 130.346 83.3191 130.721C72.0976 131.497 64.9907 144.037 59.2731 147.208C53.5555 150.38 47.3837 149.617 45.4199 140.062L46.8226 151.063Z" fill="#00D8AD"/>
<g style="mix-blend-mode:multiply" opacity="0.6">
<g style="mix-blend-mode:multiply" opacity="0.6">
<path d="M75.9713 147.717C75.0829 143.738 72.943 140.149 69.8663 137.479C65.685 141.267 62.2918 145.509 59.2995 147.208C53.6353 150.38 47.41 149.617 45.4463 140.062L46.7822 151.063C48.1366 153.659 50.3182 155.728 52.9806 156.94C55.643 158.153 58.6335 158.439 61.477 157.754C66.4331 156.737 71.2423 152.561 75.9713 147.717Z" fill="#00D8AD"/>
</g>
</g>
<path d="M72.6059 106.566C72.6059 106.566 43.0828 129.945 46.8233 151.063C46.8233 151.063 40.1438 141.026 44.6324 121.38C49.121 101.734 66.7948 91.6841 66.7948 91.6841C66.7948 91.6841 72.5925 98.3218 72.6059 106.566Z" fill="#1F68F8"/>
<g style="mix-blend-mode:multiply">
<path d="M45.3404 118.73C45.0866 119.6 44.8328 120.47 44.6324 121.407C40.1438 141.052 46.8233 151.089 46.8233 151.089C45.7679 145.134 47.3576 139.045 50.1897 133.25C47.1839 129.262 45.8614 123.762 45.3404 118.73Z" fill="#1F68F8"/>
</g>
<path d="M141.604 161.635H142.579C144.138 161.616 145.63 160.998 146.747 159.908C147.85 158.8 148.469 157.298 148.469 155.733C148.469 154.168 147.85 152.666 146.747 151.558C145.628 150.471 144.137 149.854 142.579 149.831H141.604C140.047 149.857 138.557 150.474 137.436 151.558C136.333 152.666 135.714 154.168 135.714 155.733C135.714 157.298 136.333 158.8 137.436 159.908C138.558 160.99 140.047 161.607 141.604 161.635Z" fill="#1F68F8"/>
<path d="M133.589 81.1787C141.164 81.1787 141.177 69.3752 133.589 69.3752C126.001 69.3752 126.001 81.1787 133.589 81.1787Z" fill="#FF5CD8"/>
<path d="M78.6433 189.457C79.033 189.457 79.4068 189.302 79.6824 189.026C79.958 188.75 80.1128 188.375 80.1128 187.985C80.1128 187.595 79.958 187.22 79.6824 186.944C79.4068 186.668 79.033 186.513 78.6433 186.513C78.2536 186.513 77.8798 186.668 77.6042 186.944C77.3286 187.22 77.1738 187.595 77.1738 187.985C77.1738 188.375 77.3286 188.75 77.6042 189.026C77.8798 189.302 78.2536 189.457 78.6433 189.457Z" fill="#FFD745"/>
<path d="M134.925 190.769C135.314 190.769 135.688 190.614 135.964 190.337C136.239 190.061 136.394 189.687 136.394 189.297C136.394 188.906 136.239 188.532 135.964 188.256C135.688 187.98 135.314 187.824 134.925 187.824C134.535 187.824 134.161 187.98 133.885 188.256C133.61 188.532 133.455 188.906 133.455 189.297C133.455 189.687 133.61 190.061 133.885 190.337C134.161 190.614 134.535 190.769 134.925 190.769Z" fill="#FFD745"/>
<path d="M116.583 202.572C116.951 202.537 117.292 202.366 117.54 202.093C117.788 201.819 117.926 201.463 117.926 201.093C117.926 200.724 117.788 200.367 117.54 200.094C117.292 199.82 116.951 199.65 116.583 199.615C116.216 199.65 115.875 199.82 115.627 200.094C115.379 200.367 115.241 200.724 115.241 201.093C115.241 201.463 115.379 201.819 115.627 202.093C115.875 202.366 116.216 202.537 116.583 202.572Z" fill="#FFD745"/>
<path d="M121.152 176.356C121.542 176.356 121.916 176.2 122.191 175.924C122.467 175.648 122.622 175.274 122.622 174.883C122.622 174.493 122.467 174.119 122.191 173.843C121.916 173.566 121.542 173.411 121.152 173.411C120.762 173.411 120.389 173.566 120.113 173.843C119.837 174.119 119.683 174.493 119.683 174.883C119.683 175.274 119.837 175.648 120.113 175.924C120.389 176.2 120.762 176.356 121.152 176.356Z" fill="#FFD745"/>
<path d="M149.94 178.979C150.307 178.944 150.648 178.773 150.896 178.499C151.145 178.226 151.282 177.869 151.282 177.5C151.282 177.13 151.145 176.774 150.896 176.5C150.648 176.227 150.307 176.056 149.94 176.021C149.573 176.056 149.232 176.227 148.983 176.5C148.735 176.774 148.598 177.13 148.598 177.5C148.598 177.869 148.735 178.226 148.983 178.499C149.232 178.773 149.573 178.944 149.94 178.979Z" fill="#FF5CD8"/>
<path d="M68.1303 123.936C68.4976 123.901 68.8386 123.73 69.0868 123.457C69.335 123.183 69.4726 122.827 69.4726 122.457C69.4726 122.088 69.335 121.731 69.0868 121.458C68.8386 121.184 68.4976 121.014 68.1303 120.979C67.7631 121.014 67.422 121.184 67.1738 121.458C66.9256 121.731 66.7881 122.088 66.7881 122.457C66.7881 122.827 66.9256 123.183 67.1738 123.457C67.422 123.73 67.7631 123.901 68.1303 123.936Z" fill="#FF5CD8"/>
<path d="M106.871 89.0343V88.325C106.871 87.9346 106.716 87.5601 106.44 87.2841C106.165 87.008 105.791 86.8529 105.401 86.8529C105.011 86.8529 104.638 87.008 104.362 87.2841C104.086 87.5601 103.932 87.9346 103.932 88.325V88.9807C103.932 89.3711 104.086 89.7456 104.362 90.0216C104.638 90.2977 105.011 90.4528 105.401 90.4528C105.791 90.4528 106.165 90.2977 106.44 90.0216C106.716 89.7456 106.871 89.3711 106.871 88.9807V89.0343Z" fill="#FF5CD8"/>
<path d="M140.122 106.887C140.512 106.887 140.885 106.732 141.161 106.456C141.436 106.179 141.591 105.805 141.591 105.415C141.591 105.024 141.436 104.65 141.161 104.374C140.885 104.098 140.512 103.943 140.122 103.943C139.732 103.943 139.358 104.098 139.083 104.374C138.807 104.65 138.652 105.024 138.652 105.415C138.652 105.805 138.807 106.179 139.083 106.456C139.358 106.732 139.732 106.887 140.122 106.887Z" fill="#FF5CD8"/>
<path d="M25.4887 21.6263C27.76 29.2655 32.0112 36.1654 37.8096 41.6238C43.6079 47.0822 50.7464 50.9042 58.4985 52.7006C72.6455 55.8188 97.7736 53.8114 100.258 73.5774C100.165 72.8682 104.974 69.1344 105.602 68.5188C106.23 67.9032 110.945 64.397 110.852 63.3531C108.354 43.5871 83.2258 45.5945 69.0787 42.4763C61.3267 40.6799 54.1882 36.858 48.3898 31.3996C42.5914 25.9412 38.3402 19.0412 36.0689 11.402C36.2025 11.8436 31.233 15.9654 30.7254 16.4606C30.2177 16.9557 25.2482 20.8902 25.4753 21.6263H25.4887Z" fill="#FFD745"/>
<g style="mix-blend-mode:multiply" opacity="0.6">
<path d="M77.4015 55.4976C82.2679 52.7953 86.8162 49.5543 90.9607 45.8354C83.4263 44.2161 75.2373 43.828 69.0922 42.4763C60.4899 40.5316 52.6675 36.0471 46.636 29.6023C44.9661 34.7947 43.6436 41.486 45.1665 47.2807C49.2863 49.8214 53.8017 51.6534 58.5254 52.7006C63.8422 53.8783 70.8022 54.3333 77.4015 55.4976Z" fill="#FFD745"/>
</g>
<path d="M154.229 111.557C154.229 111.557 155.377 117.111 164.515 118.489L164.849 112.561C164.849 112.561 157.114 112.24 155.07 106.351L154.229 111.557Z" fill="#FF5CD8"/>
<g style="mix-blend-mode:multiply">
<g style="mix-blend-mode:multiply">
<path d="M159.532 111.142C158.506 110.683 157.583 110.022 156.817 109.2C156.05 108.377 155.456 107.408 155.07 106.351L154.229 111.557C154.229 111.557 154.937 114.903 159.572 117.044L159.532 111.142Z" fill="#FF5CD8"/>
</g>
</g>
<path d="M181.24 102.497C181.24 102.497 180.251 105.468 172.316 106.833C166.196 108.037 160.156 109.615 154.228 111.557C154.008 109.541 154.121 107.502 154.562 105.522C155.257 103.354 178.394 100.664 181.547 97.2111L181.24 102.497Z" fill="#1F68F8"/>
<g style="mix-blend-mode:multiply">
<path d="M181.24 102.497L181.548 97.1442C179.931 98.924 173.038 100.49 166.612 101.895L170.62 107.087L172.343 106.766C180.252 105.468 181.24 102.497 181.24 102.497Z" fill="#1F68F8"/>
</g>
<path d="M155.19 94.4542C155.19 94.4542 179.236 96.475 181.173 102.644C182.087 100.128 181.967 97.3508 180.839 94.9226C178.916 91.0684 156.179 88.6595 156.179 88.6595L155.19 94.4542Z" fill="#FF5CD8"/>
<g style="mix-blend-mode:multiply">
<g style="mix-blend-mode:multiply">
<path d="M172.958 91.4297C167.419 90.2029 161.818 89.2782 156.179 88.6595L155.19 94.4542C161.192 94.9917 167.136 96.0439 172.958 97.5991V91.4297Z" fill="#FF5CD8"/>
</g>
</g>
<path d="M182.549 79.3587C182.549 79.3587 181.493 82.5437 171.995 86.7459C164.635 89.9978 155.19 94.4542 155.19 94.4542C154.977 92.4368 155.095 90.3982 155.537 88.4187C156.218 86.2641 179.703 77.5386 182.856 74.0859L182.549 79.3587Z" fill="#1F68F8"/>
<g style="mix-blend-mode:multiply">
<path d="M182.857 74.0859C181.441 75.6383 175.923 78.2479 170.206 80.8575L169.364 87.9101L172.036 86.7459C181.534 82.5437 182.59 79.3587 182.59 79.3587L182.857 74.0859Z" fill="#1F68F8"/>
</g>
<path d="M155.711 60.4089C155.711 60.4089 180.492 73.3365 182.429 79.5058C182.881 78.262 183.085 76.941 183.027 75.6184C182.97 74.2957 182.653 72.9974 182.095 71.7975C180.171 67.9433 156.633 54.6143 156.633 54.6143L155.711 60.4089Z" fill="#FF5CD8"/>
<g style="mix-blend-mode:multiply">
<g style="mix-blend-mode:multiply">
<path d="M178.461 68.2511L176.898 73.4435C179.784 75.6784 181.948 77.8063 182.482 79.4523C182.935 78.2085 183.138 76.8875 183.081 75.5648C183.024 74.2422 182.707 72.9438 182.148 71.744C181.14 70.3666 179.891 69.1832 178.461 68.2511Z" fill="#FF5CD8"/>
</g>
</g>
<path d="M167.533 133.826C165.783 138.697 162.604 144.907 163.713 150.246C164.192 152.683 165.408 154.913 167.196 156.634C168.983 158.355 171.256 159.484 173.705 159.868C174.44 159.975 176.564 149.283 177.125 149.363C175.512 149.149 173.963 148.593 172.581 147.732C171.199 146.871 170.015 145.726 169.11 144.371C168.213 143.083 167.561 141.641 167.186 140.116C167 139.362 166.892 138.59 166.865 137.814C166.839 137.431 166.839 137.046 166.865 136.663C167.302 133.094 166.411 135.53 164.194 143.97C165.316 140.838 166.585 136.288 167.467 133.826H167.533Z" fill="#FF5CD8"/>
<path d="M192.088 96.0735C195.868 96.0735 195.882 90.1852 192.088 90.1852C188.294 90.1852 188.294 96.0735 192.088 96.0735Z" fill="#FF5CD8"/>
<path d="M185.942 129.918C189.736 129.918 189.736 124.016 185.942 124.016C182.148 124.016 182.148 129.918 185.942 129.918Z" fill="#1F68F8"/>
<path d="M170.793 37.9932H169.818C169.038 37.9932 168.291 38.3034 167.74 38.8555C167.189 39.4076 166.879 40.1565 166.879 40.9373C166.879 41.7182 167.189 42.467 167.74 43.0192C168.291 43.5713 169.038 43.8815 169.818 43.8815H170.793C171.573 43.8815 172.32 43.5713 172.871 43.0192C173.422 42.467 173.732 41.7182 173.732 40.9373C173.732 40.1565 173.422 39.4076 172.871 38.8555C172.32 38.3034 171.573 37.9932 170.793 37.9932Z" fill="#1F68F8"/>
<path d="M36.3897 39.5054C30.2847 45.6614 27.1454 56.2202 25.8496 64.678C23.8457 77.8063 30.2446 90.1049 36.2294 101.239C35.8954 100.624 37.7123 96.7427 37.9527 95.9933C38.1932 95.2438 40.0233 91.5502 39.5691 90.6402C35.3878 82.7846 31.0862 74.7551 29.4565 65.9092C28.9718 62.2277 28.8465 58.5076 29.0824 54.8017C29.5811 52.1252 29.2516 52.8478 28.0939 56.9697C28.4862 56.0995 28.9323 55.2548 29.4297 54.4403C30.4543 52.8149 31.6648 51.3148 33.0366 49.9706C35.3744 47.6152 34.1054 41.7269 36.3764 39.4385L36.3897 39.5054Z" fill="#FF5CD8"/>
<g style="mix-blend-mode:multiply">
<path d="M33.0496 50.0375C35.3874 47.6821 34.1183 41.7938 36.3893 39.5054C33.4129 42.7141 31.0976 46.4796 29.5763 50.5861C29.2023 53.1288 29.082 54.8686 29.082 54.8686H29.229C29.2922 54.7393 29.3636 54.6141 29.4427 54.4939C30.4682 52.8731 31.6786 51.3776 33.0496 50.0375Z" fill="#FF5CD8"/>
</g>
<path d="M60.5828 75.9863C60.9725 75.9863 61.3463 75.8312 61.6218 75.5551C61.8974 75.279 62.0522 74.9046 62.0522 74.5142C62.0522 74.1238 61.8974 73.7493 61.6218 73.4733C61.3463 73.1972 60.9725 73.0421 60.5828 73.0421C60.193 73.0421 59.8193 73.1972 59.5437 73.4733C59.2681 73.7493 59.1133 74.1238 59.1133 74.5142C59.1133 74.9046 59.2681 75.279 59.5437 75.5551C59.8193 75.8312 60.193 75.9863 60.5828 75.9863Z" fill="#FFD745"/>
<path d="M73.3533 70.3656H72.3647C71.5853 70.3656 70.8377 70.6758 70.2866 71.2279C69.7354 71.7801 69.4258 72.5289 69.4258 73.3098C69.4258 74.0906 69.7354 74.8395 70.2866 75.3916C70.8377 75.9438 71.5853 76.2539 72.3647 76.2539H73.3533C74.1327 76.2539 74.8803 75.9438 75.4314 75.3916C75.9826 74.8395 76.2922 74.0906 76.2922 73.3098C76.2922 72.5289 75.9826 71.7801 75.4314 71.2279C74.8803 70.6758 74.1327 70.3656 73.3533 70.3656Z" fill="#1F68F8"/>
</svg>
