<svg width="209" height="33" viewBox="0 0 209 33" fill="none" xmlns="http://www.w3.org/2000/svg">
<g clip-path="url(#clip0)">
<path d="M44.8892 6.50314V1.1761C44.8892 0.830189 45.0271 0.553459 45.2339 0.345912C45.3718 0.138365 45.6477 0 45.9924 0H69.9195C70.1953 0 70.4712 0.138365 70.678 0.345912C70.8849 0.553459 71.0228 0.830189 71.0228 1.1761V6.50314C71.0228 6.84906 70.8849 7.12579 70.678 7.33333C70.4712 7.54088 70.1953 7.67924 69.9195 7.67924H61.9208V31.2013C61.9208 31.5472 61.7829 31.8239 61.5761 32.0314C61.3692 32.239 61.0934 32.3774 60.8176 32.3774H54.9565C54.6806 32.3774 54.4048 32.239 54.198 32.0314C53.9911 31.8239 53.8532 31.5472 53.8532 31.2013V7.61006H45.9924C45.7166 7.61006 45.4408 7.4717 45.2339 7.26415C45.0271 7.0566 44.8892 6.77987 44.8892 6.50314Z" fill="#003282"/>
<path d="M83.0206 16.6729C81.9862 16.6729 81.1588 17.0188 80.4693 17.6415C79.7797 18.2641 79.5039 19.1635 79.5039 20.2012V31.2704C79.5039 31.5471 79.4349 31.8239 79.2281 32.0314C79.0212 32.239 78.8144 32.3081 78.4696 32.3081H72.9533C72.6774 32.3081 72.4016 32.239 72.1948 32.0314C71.9879 31.8239 71.9189 31.6163 71.9189 31.2704V2.83644C71.9189 2.55971 71.9879 2.28298 72.1948 2.07544C72.4016 1.86789 72.6085 1.79871 72.9533 1.79871H78.4696C78.7454 1.79871 79.0212 1.86789 79.2281 2.07544C79.4349 2.28298 79.5039 2.49053 79.5039 2.83644V13.3522C80.1934 12.3144 81.0898 11.5534 82.1242 11C83.1585 10.4465 84.3996 10.1698 85.7787 10.1698C88.4679 10.1698 90.5366 11 91.9156 12.5912C93.2947 14.1824 93.9843 16.5346 93.9843 19.6478V31.3396C93.9843 31.6163 93.9153 31.893 93.7084 32.1006C93.5016 32.3081 93.2947 32.3773 92.9499 32.3773H87.4336C87.1578 32.3773 86.882 32.3081 86.6751 32.1006C86.4683 31.893 86.3993 31.6855 86.3993 31.3396V20.2704C86.3993 19.1635 86.0545 18.3333 85.4339 17.7107C84.8823 17.0188 84.0549 16.6729 83.0206 16.6729Z" fill="#003282"/>
<path d="M106.12 26.2202C107.086 26.2202 107.844 25.9434 108.327 25.39C108.809 24.8365 109.085 24.0063 109.085 22.8994V11.6919C109.085 11.4151 109.223 11.2076 109.43 11.0692C109.637 10.8617 109.913 10.7925 110.188 10.7925H115.636C115.912 10.7925 116.119 10.8617 116.394 11.0692C116.601 11.2768 116.739 11.4843 116.739 11.6919V23.9371C116.739 26.5661 115.774 28.7107 113.912 30.4403C111.981 32.1698 109.499 33 106.258 33C103.017 33 100.466 32.1698 98.5352 30.4403C96.6045 28.7107 95.6392 26.5661 95.6392 23.9371V11.6919C95.6392 11.4151 95.7771 11.2076 95.9839 11.0692C96.1908 10.8617 96.3977 10.7925 96.6735 10.7925H102.121C102.397 10.7925 102.604 10.8617 102.879 11.0692C103.086 11.2768 103.224 11.4843 103.224 11.6919V22.8994C103.224 23.9371 103.5 24.7673 104.052 25.39C104.396 25.9434 105.155 26.2202 106.12 26.2202Z" fill="#003282"/>
<path d="M141.908 16.6729C141.011 16.6729 140.322 16.9497 139.839 17.5031C139.356 18.0566 139.08 18.8176 139.08 19.8553V31.2704C139.08 31.5472 139.012 31.8239 138.805 32.0314C138.598 32.239 138.391 32.3082 138.046 32.3082H132.53C132.254 32.3082 131.978 32.239 131.771 32.0314C131.564 31.8239 131.496 31.6163 131.496 31.2704V19.8553C131.496 18.8868 131.22 18.1258 130.737 17.5031C130.254 16.9497 129.565 16.6729 128.668 16.6729C127.772 16.6729 127.082 16.9497 126.6 17.5031C126.117 18.0566 125.841 18.8176 125.841 19.8553V31.2704C125.841 31.5472 125.772 31.8239 125.565 32.0314C125.359 32.239 125.152 32.3082 124.807 32.3082H119.291C119.015 32.3082 118.739 32.239 118.532 32.0314C118.325 31.8239 118.256 31.6163 118.256 31.2704V11.761C118.256 11.4843 118.325 11.2075 118.532 11.0692C118.739 10.8616 118.946 10.7924 119.291 10.7924H124.738C125.014 10.7924 125.29 10.8616 125.497 11.0692C125.703 11.2767 125.772 11.4843 125.772 11.761V13.3522C126.462 12.3836 127.289 11.5534 128.324 11C129.358 10.4465 130.461 10.1698 131.633 10.1698C133.013 10.1698 134.254 10.4465 135.219 11C136.253 11.5534 137.012 12.3145 137.563 13.3522C138.46 12.2453 139.494 11.4151 140.597 10.9308C141.701 10.4465 143.011 10.1698 144.459 10.1698C146.872 10.1698 148.734 10.9308 150.044 12.4528C151.423 13.9748 152.113 16.0503 152.113 18.5409V31.3396C152.113 31.6163 152.044 31.8931 151.837 32.1006C151.63 32.3082 151.423 32.3773 151.079 32.3773H145.562C145.286 32.3773 145.011 32.3082 144.804 32.1006C144.597 31.8931 144.528 31.6855 144.528 31.3396V19.8553C144.528 18.8868 144.252 18.1258 143.769 17.5031C143.425 16.9497 142.735 16.6729 141.908 16.6729Z" fill="#003282"/>
<path d="M174.523 28.7798C173.695 30.0251 172.385 31.0628 170.661 31.8239C168.938 32.5849 167.076 32.9308 165.076 32.9308C161.628 32.9308 158.801 31.893 156.664 29.7484C154.457 27.6037 153.354 24.9056 153.354 21.654C153.354 18.2641 154.388 15.4968 156.457 13.3522C158.526 11.2075 161.215 10.1006 164.594 10.1006C167.834 10.1006 170.455 11.1383 172.454 13.2138C174.454 15.2893 175.488 17.7798 175.488 20.8239V22.0691C175.488 22.5534 175.419 22.8993 175.212 23.1761C175.006 23.4528 174.73 23.5911 174.316 23.5911H160.939C161.146 24.5597 161.629 25.3899 162.387 25.9433C163.145 26.4968 164.111 26.8427 165.214 26.8427C165.973 26.8427 166.662 26.7044 167.283 26.4276C167.903 26.1509 168.524 25.7358 169.076 25.1823C169.351 24.9056 169.627 24.7672 169.903 24.7672C170.179 24.7672 170.455 24.8364 170.73 25.044L174.385 27.4654C174.661 27.6037 174.799 27.8113 174.799 28.088C174.73 28.2955 174.661 28.5723 174.523 28.7798ZM161.008 18.7484H168.11C167.972 17.9182 167.559 17.2264 166.938 16.6729C166.317 16.1195 165.49 15.9119 164.594 15.9119C163.766 15.9119 162.939 16.1886 162.249 16.6729C161.629 17.2264 161.215 17.9182 161.008 18.7484Z" fill="#003282"/>
<path d="M176.661 31.2704V2.83644C176.661 2.55971 176.73 2.28298 176.936 2.07544C177.143 1.86789 177.35 1.79871 177.695 1.79871H183.211C183.487 1.79871 183.763 1.86789 183.97 2.07544C184.177 2.28298 184.246 2.49053 184.246 2.83644V31.2704C184.246 31.5471 184.177 31.8239 183.97 32.0314C183.763 32.239 183.556 32.3081 183.28 32.3081H177.833C177.557 32.3081 177.281 32.239 177.074 32.0314C176.799 31.8239 176.661 31.5471 176.661 31.2704Z" fill="#003282"/>
<path d="M201.484 31.2704V30.9245C200.794 31.6163 199.967 32.1006 199.139 32.4465C198.243 32.7924 197.278 32.9308 196.243 32.9308C193.209 32.9308 190.589 31.8239 188.521 29.61C186.452 27.3962 185.349 24.6981 185.349 21.5157C185.349 18.3333 186.383 15.6352 188.521 13.4213C190.589 11.2075 193.209 10.1006 196.243 10.1006C197.278 10.1006 198.243 10.239 199.139 10.5849C200.036 10.9308 200.794 11.4151 201.484 12.1069V11.761C201.484 11.4842 201.553 11.2075 201.76 11C201.967 10.7924 202.173 10.7232 202.518 10.7232H208.035C208.31 10.7232 208.586 10.7924 208.793 11C209 11.2075 209.069 11.4151 209.069 11.761V31.2704C209.069 31.5471 209 31.8239 208.793 32.0314C208.586 32.2389 208.379 32.3081 208.104 32.3081H202.656C202.38 32.3081 202.104 32.2389 201.898 32.0314C201.691 31.8239 201.484 31.5471 201.484 31.2704ZM192.934 21.5157C192.934 22.761 193.347 23.7987 194.175 24.6289C195.002 25.4591 196.037 25.9433 197.278 25.9433C198.519 25.9433 199.484 25.5283 200.381 24.6289C201.208 23.7987 201.622 22.6918 201.622 21.5157C201.622 20.3396 201.208 19.2327 200.381 18.4025C199.553 17.5723 198.519 17.088 197.278 17.088C196.037 17.088 195.071 17.5031 194.175 18.4025C193.347 19.3018 192.934 20.3396 192.934 21.5157Z" fill="#003282"/>
<path d="M19.7895 12.9371L30.96 6.43391L28.4777 4.98108L17.3071 11.4842L19.7895 12.9371Z" fill="#FFCD7D"/>
<path d="M16.3418 15.9811L18.8241 17.434V14.5283L16.3418 13.1447V15.9811Z" fill="#FFCD7D"/>
<path d="M26.6159 3.94343L24.1336 2.4906L12.894 8.92456L15.3764 10.3774L26.6159 3.94343Z" fill="#DEF2FC"/>
<path d="M32.8219 7.54089L21.6514 13.9749L24.1337 15.4277L35.3043 8.92454L32.8219 7.54089Z" fill="#DEF2FC"/>
<path d="M20.6859 19.0252C20.6859 19.3711 20.479 19.6479 20.2032 19.8554C20.2032 19.8554 19.7205 20.1321 19.2378 19.8554L14.8937 17.3648C14.6179 17.2265 14.4111 16.8806 14.4111 16.5346V12.0378L11.9287 10.585V23.5221L23.0993 30.0252V17.0881L20.6859 15.6353V19.0252Z" fill="#DEF2FC"/>
<path d="M25.0298 30.0252L36.2004 23.5221V10.585L25.0298 17.0881V30.0252Z" fill="#B4C8D2"/>
<path d="M3.10256 24.3522L8.13621 21.4466C8.61889 21.1698 8.7568 20.6164 8.48098 20.1321C8.20517 19.6478 7.65353 19.5095 7.17085 19.7862L2.1372 22.6918C1.65452 22.9686 1.51661 23.522 1.79243 24.0063C2.06825 24.3522 2.61988 24.6289 3.10256 24.3522Z" fill="#003282"/>
<path d="M37.649 8.16354L24.5477 0.553481C24.2719 0.415116 23.9272 0.415116 23.5824 0.553481L10.5501 8.16354C10.2742 8.30191 10.0674 8.64782 10.0674 8.99373V24.1447C10.0674 24.4906 10.2742 24.7673 10.5501 24.9749L23.5824 32.5157C23.7203 32.5849 23.8582 32.6541 24.0651 32.6541C24.203 32.6541 24.4098 32.5849 24.5477 32.5157L37.649 24.9057C37.9249 24.7673 38.1317 24.4214 38.1317 24.0755V8.92455C38.1317 8.64782 37.9249 8.30191 37.649 8.16354ZM30.9605 6.43398L19.7899 12.9371L17.3076 11.4843L28.4781 4.98115L30.9605 6.43398ZM18.8246 14.5283V17.3648L16.3422 15.912V13.0755L18.8246 14.5283ZM24.134 2.49059L26.6164 3.94342L15.3768 10.3774L12.8945 8.92455L24.134 2.49059ZM23.1687 30.0252L11.9981 23.522V10.5849L14.4804 12.0378V16.5346C14.4804 16.8805 14.6873 17.1573 14.9631 17.3648L19.3072 19.8554C19.7899 20.1321 20.2036 19.8554 20.2726 19.8554C20.5484 19.717 20.7553 19.3711 20.7553 19.0252V15.6352L23.2376 17.0881V30.0252H23.1687ZM24.134 15.4277L21.6517 13.9749L32.8222 7.47172L35.3046 8.92455L24.134 15.4277ZM36.201 23.522L25.0304 30.0252V17.0881L36.201 10.5849V23.522Z" fill="#013485"/>
<path d="M7.17107 24.8365L0.413568 28.5723C-0.0691107 28.8491 -0.207019 29.4025 0.0687975 29.8868C0.27566 30.3019 0.827293 30.5094 1.37893 30.2327L8.13643 26.4969C8.61911 26.2201 8.75702 25.6667 8.4812 25.1824C8.20539 24.6981 7.65375 24.5597 7.17107 24.8365Z" fill="#003282"/>
<path d="M7.37795 31.9622L12.4116 29.0565C12.8943 28.7798 13.0322 28.2264 12.7564 27.7421C12.4806 27.2578 11.9289 27.1194 11.4462 27.3962L6.41259 30.3018C5.92991 30.5786 5.792 31.132 6.06782 31.6163C6.27468 32.0314 6.82632 32.3081 7.37795 31.9622Z" fill="#003282"/>
</g>
<defs>
<clipPath id="clip0">
<rect width="209" height="33" fill="white"/>
</clipPath>
</defs>
</svg>
