<svg width="16" height="16" viewBox="0 0 16 16" fill="none" xmlns="http://www.w3.org/2000/svg">
<path d="M5.96 12.4699C6.80457 12.4752 7.64179 12.3128 8.4231 11.992C9.20441 11.6713 9.91425 11.1986 10.5115 10.6014C11.1087 10.0042 11.5814 9.29432 11.9021 8.51301C12.2229 7.7317 12.3853 6.89448 12.38 6.04991C12.38 5.94991 12.38 5.85491 12.38 5.75491C12.8178 5.43416 13.1967 5.04 13.5 4.58991C13.0878 4.77021 12.6516 4.88979 12.205 4.94491C12.6785 4.6628 13.0337 4.21874 13.205 3.69491C12.7638 3.95963 12.2799 4.14573 11.775 4.24491C11.435 3.88259 10.985 3.64244 10.4947 3.5616C10.0045 3.48077 9.50122 3.56376 9.06287 3.79774C8.62452 4.03172 8.27549 4.40363 8.0698 4.85595C7.86411 5.30826 7.81322 5.81576 7.925 6.29991C7.02801 6.25588 6.15036 6.02342 5.34918 5.61766C4.548 5.21191 3.84127 4.64195 3.275 3.94491C2.98946 4.4405 2.90291 5.02607 3.03288 5.58307C3.16285 6.14007 3.49962 6.62687 3.975 6.94491C3.62431 6.93139 3.28173 6.83546 2.975 6.66491V6.68991C2.97188 7.20783 3.14636 7.71117 3.46935 8.11605C3.79234 8.52092 4.24434 8.80287 4.75 8.91491C4.42382 9.00264 4.08215 9.01631 3.75 8.95491C3.89639 9.3966 4.17584 9.7822 4.55002 10.0588C4.9242 10.3354 5.3748 10.4895 5.84 10.4999C5.04461 11.1402 4.05605 11.4926 3.035 11.4999C2.85598 11.4947 2.67737 11.4797 2.5 11.4549C3.53348 12.1134 4.7346 12.4605 5.96 12.4549" fill="#008CB4"/>
</svg>
