<svg width="16" height="16" viewBox="0 0 16 16" fill="none" xmlns="http://www.w3.org/2000/svg">
<path d="M11.2029 5.51715C11.6006 5.51715 11.9229 5.19479 11.9229 4.79715C11.9229 4.3995 11.6006 4.07715 11.2029 4.07715C10.8053 4.07715 10.4829 4.3995 10.4829 4.79715C10.4829 5.19479 10.8053 5.51715 11.2029 5.51715Z" fill="#008CB4"/>
<path d="M8.00005 4.91895C7.39066 4.91895 6.79496 5.09965 6.28828 5.4382C5.78159 5.77676 5.38668 6.25796 5.15348 6.82096C4.92028 7.38396 4.85926 8.00346 4.97815 8.60114C5.09703 9.19881 5.39048 9.74781 5.82138 10.1787C6.25228 10.6096 6.80128 10.9031 7.39895 11.0219C7.99663 11.1408 8.61614 11.0798 9.17913 10.8466C9.74213 10.6134 10.2233 10.2185 10.5619 9.71181C10.9004 9.20513 11.0811 8.60943 11.0811 8.00005C11.0811 7.18289 10.7565 6.3992 10.1787 5.82138C9.6009 5.24356 8.8172 4.91895 8.00005 4.91895ZM8.00005 10C7.60448 10 7.2178 9.88275 6.88891 9.66298C6.56001 9.44322 6.30366 9.13086 6.15229 8.76541C6.00091 8.39996 5.96131 7.99783 6.03848 7.60986C6.11565 7.2219 6.30613 6.86554 6.58583 6.58583C6.86554 6.30613 7.2219 6.11565 7.60987 6.03847C7.99783 5.9613 8.39996 6.00091 8.76541 6.15229C9.13087 6.30366 9.44322 6.56001 9.66299 6.88891C9.88275 7.2178 10 7.60448 10 8.00005C10 8.53048 9.78933 9.03919 9.41426 9.41426C9.03919 9.78933 8.53048 10 8.00005 10Z" fill="#008CB4"/>
<path d="M8 3.0811C9.60205 3.0811 9.79185 3.0872 10.4245 3.1161C10.805 3.12063 11.1818 3.19051 11.5386 3.3227C11.7974 3.42254 12.0324 3.57544 12.2285 3.77155C12.4246 3.96766 12.5775 4.20265 12.6774 4.4614C12.8095 4.8182 12.8794 5.19507 12.884 5.57555C12.9128 6.2082 12.919 6.398 12.919 8.00005C12.919 9.6021 12.9129 9.7919 12.884 10.4246C12.8794 10.805 12.8095 11.1819 12.6774 11.5387C12.5775 11.7975 12.4246 12.0324 12.2285 12.2286C12.0324 12.4247 11.7974 12.5776 11.5386 12.6774C11.1818 12.8096 10.805 12.8795 10.4245 12.884C9.7919 12.9128 9.6022 12.919 8 12.919C6.3978 12.919 6.2081 12.9129 5.5755 12.884C5.19502 12.8795 4.81815 12.8096 4.46135 12.6774C4.2026 12.5776 3.96761 12.4247 3.7715 12.2286C3.57539 12.0324 3.42249 11.7975 3.32265 11.5387C3.19046 11.1819 3.12058 10.805 3.11605 10.4246C3.0872 9.7919 3.08105 9.6021 3.08105 8.00005C3.08105 6.398 3.08715 6.2082 3.11605 5.57555C3.12058 5.19507 3.19046 4.8182 3.32265 4.4614C3.42249 4.20264 3.57538 3.96764 3.77149 3.77152C3.9676 3.5754 4.20259 3.4225 4.46135 3.32265C4.81815 3.19046 5.19502 3.12058 5.5755 3.11605C6.20815 3.0872 6.39795 3.08105 8 3.08105V3.0811ZM8 2C6.3705 2 6.16615 2.0069 5.5262 2.0361C5.02853 2.04609 4.53615 2.14039 4.07 2.315C3.67137 2.46916 3.30934 2.7049 3.00712 3.00712C2.7049 3.30934 2.46916 3.67137 2.315 4.07C2.14037 4.53623 2.04606 5.02869 2.0361 5.52645C2.0069 6.16615 2 6.3705 2 8C2 9.6295 2.0069 9.83385 2.0361 10.4738C2.04607 10.9716 2.14037 11.464 2.315 11.9303C2.46916 12.3289 2.7049 12.6909 3.00712 12.9931C3.30934 13.2954 3.67137 13.5311 4.07 13.6853C4.53623 13.8599 5.02869 13.9542 5.52645 13.9642C6.16615 13.9931 6.3705 14 8 14C9.6295 14 9.83385 13.9931 10.4738 13.9639C10.9716 13.9539 11.464 13.8596 11.9303 13.685C12.3289 13.5308 12.6909 13.2951 12.9931 12.9929C13.2954 12.6907 13.5311 12.3286 13.6853 11.93C13.8599 11.4638 13.9542 10.9713 13.9642 10.4735C13.9931 9.83385 14 9.6295 14 8C14 6.3705 13.9931 6.16615 13.9639 5.5262C13.9539 5.02853 13.8596 4.53615 13.685 4.07C13.5308 3.67141 13.2951 3.30943 12.9928 3.00726C12.6906 2.70508 12.3286 2.46938 11.93 2.31525C11.4638 2.14062 10.9713 2.04632 10.4735 2.03635C9.83385 2.0069 9.6295 2 8 2Z" fill="#008CB4"/>
</svg>
