<svg width="84" height="71" viewBox="0 0 84 71" fill="none" xmlns="http://www.w3.org/2000/svg">
<path d="M22.5112 34.7734L19.0199 32.905L2.81396 42.3509L21.6775 56.5197L33.1415 63.1111L22.5112 34.7734Z" fill="url(#paint0_linear)"/>
<path d="M72.4837 60.6718L54.5581 50.7068L55.7566 44.2712L83.3224 51.693L72.4837 60.6718Z" fill="url(#paint1_linear)"/>
<path d="M24.6997 25.1199L24.335 25.0161L23.9702 24.9642V24.9123V24.8604V24.8085L24.2308 24.6528L24.2829 24.7047L24.3871 24.7566L24.6997 25.1199Z" fill="#D3B16D"/>
<path d="M51.8486 17.9057L49.7121 23.3552L31.9429 30.1023L31.6302 29.7909L31.0049 29.1681L28.3994 26.6769L25.4292 25.3275L25.0645 25.2237L25.2729 24.2375V24.1337V24.0299L25.5334 23.8742L25.6377 23.9261L25.6898 23.978L26.3151 24.7565L26.5756 23.459V23.3552L26.6277 23.2514L26.8883 23.1476H26.9404L27.0446 23.1995L27.6699 24.0299V23.978L27.8783 22.7843L27.9305 22.6286V22.5248L28.191 22.3691L28.2431 22.421H28.3473V22.4729L28.9726 23.2514L29.1811 22.0577L29.2332 21.8501V21.7463L29.4937 21.5906L29.598 21.6425L29.6501 21.6944L30.2754 22.4729L30.5359 21.2273L30.588 21.0197L30.8486 20.864H30.9007L31.0049 20.9159L31.6302 21.7463V21.6944L31.8908 20.4488V20.345V20.2412L32.1513 20.0855L32.2555 20.1374L32.3076 20.1893L32.9329 20.9678L33.1935 19.6703V19.5665L33.2456 19.4627L33.5061 19.3589H33.5583L33.6104 19.4108H33.6625L34.2878 20.1893L34.4962 18.9956L34.5483 18.788V18.7361L34.8089 18.5804L34.9131 18.6323H34.9652L35.5905 19.4627V19.4108L35.8511 18.1652V18.0614V17.9576L36.1637 17.8019L36.2158 17.8538L36.2679 17.9057L36.8932 18.6842L37.1538 17.4386V17.2829L37.2059 17.231L37.4664 17.0753H37.5185L37.6228 17.1272L38.2481 17.9057L38.4565 16.6601L38.5086 16.5044V16.4525L38.7692 16.2968L38.8734 16.3487H38.9255L39.5508 17.1791V17.1272L39.8114 15.9334V15.7777L39.8635 15.6739L40.124 15.5182L40.1761 15.5701L40.2282 15.622H40.2803L40.8535 16.4006H40.9056L41.1141 15.1549L41.1662 14.9992V14.9473L41.4267 14.7916H41.4788L41.5831 14.8435L42.2084 15.622L42.4689 14.3245V14.2207V14.1688L42.7816 14.0131H42.8337L42.8858 14.065L43.5111 14.8954L43.8238 13.4422V13.3903L43.8759 13.4422L47.1587 16.4006L51.6401 17.8538L51.8486 17.9057Z" fill="#D3B16D"/>
<path d="M45.3349 26.8845L31.9429 32.0226L31.4218 30.4137L31.0049 29.1681L30.9528 29.22L28.8163 27.0921L28.6079 26.8845L28.3994 26.6769L25.4292 25.3794L25.0645 25.2237L25.2729 24.2375V24.1337V24.0299L25.5334 23.8742L25.6377 23.9261L25.6898 23.978L26.3151 24.7565L26.4714 24.0818L26.5756 23.459V23.3552L26.6277 23.2514L26.8883 23.1476L26.9404 23.1995H27.0446L27.6699 24.0299V23.978L27.8783 22.7843L27.9305 22.6286V22.5248L28.191 22.3691L28.2431 22.421H28.3473V22.4729L28.9726 23.2514L29.0769 22.7324L29.1811 22.0577L29.2332 21.8501V21.7463L29.4937 21.5906L29.598 21.6425L29.6501 21.6944L30.2754 22.4729L30.5359 21.2273L30.588 21.0197L30.8486 20.864H30.9007L31.0049 20.9159L31.6302 21.7463V21.6944L31.8908 20.4488V20.345V20.2412L32.1513 20.0855L32.2555 20.1374L32.3076 20.1893L32.9329 20.9678L33.1935 19.6703V19.5665L33.2456 19.4627L33.5061 19.307L33.5583 19.3589L33.6104 19.4108H33.6625L34.2878 20.1893L34.4962 18.9956L34.5483 18.788V18.7361L34.8089 18.5804H34.9131L34.9652 18.6323L35.5905 19.4627V19.4108L35.6426 19.0994L35.8511 18.1652V18.0614V17.9576L36.1637 17.8019L36.2158 17.8538L36.2679 17.9057L36.8932 18.6842L37.1538 17.4386V17.2829L37.2059 17.231L37.4664 17.0753H37.5185L37.6228 17.1272L38.2481 17.9057L38.4565 16.6601L38.5086 16.5044V16.4525L38.7692 16.2968L38.8734 16.3487H38.9255L39.5508 17.1791V17.1272L39.8114 15.9334V15.7777L39.8635 15.6739L40.124 15.5182L40.1761 15.5701L40.2282 15.622H40.2803L40.8535 16.4006H40.9056L41.1141 15.1549L41.1662 14.9992V14.9473L41.4267 14.7916H41.4788L41.5831 14.8435L42.2084 15.622L42.4689 14.3245V14.2207V14.1688L42.7816 14.0131H42.8337L42.8858 14.065L43.5111 14.8954L43.8238 13.4422V13.3903L44.1364 13.7017L45.3349 26.8845Z" fill="#D9BB80"/>
<path d="M47.1586 16.4006L46.9501 25.8465L45.0742 26.8845L44.1362 13.7017L47.1586 16.4006Z" fill="#BF9963"/>
<path d="M51.9529 19.0994L47.1068 19.2032L44.3971 17.4386L27.7222 27.0921L31.8388 30.6213L51.9529 19.0994Z" fill="#C9BCAD"/>
<path d="M51.5882 17.3867L51.1713 19.3589L50.8065 18.3728L50.2333 18.1652L49.8686 20.1374L49.4517 19.0994L48.9306 18.9437L48.5137 20.8641L48.149 19.8779L47.5758 19.6703L47.211 21.6426L46.8463 20.6565L46.273 20.4489L45.9083 22.4211L45.4914 21.3831L44.9182 21.2274L44.5534 23.1477L44.1887 22.1616L43.6155 21.954L43.2507 23.9262L42.8338 22.9401L42.3127 22.7325L41.8959 24.7047L41.5311 23.6667L40.9579 23.511L40.5931 25.4313L40.2284 24.4452L39.6552 24.2376L39.2904 26.2098L38.8735 25.2237L38.3003 25.0161L37.9356 26.9883L37.3624 26.2098L36.9976 25.7946L36.6328 27.7149L36.216 26.7288L35.6949 26.5212L35.278 28.4934L34.9132 27.5073L34.34 27.2997L33.9753 29.272L33.6105 28.2339L33.0373 28.0782L32.6726 29.9986L32.2557 29.0125L31.7346 28.8048L31.3177 30.7771L30.3276 29.5315L32.5683 62.9035L51.9008 19.9298L52.1093 17.5424L51.5882 17.3867Z" fill="#FAD793"/>
<path d="M33.1413 63.1111L27.0445 57.7654L21.6772 56.5198L22.7194 25.0161L28.1909 27.0402L30.9006 29.7391L33.1413 63.1111Z" fill="#D3B16D"/>
<path d="M28.191 27.0402L27.6699 53.4576L33.1414 63.1111L30.9007 29.7391L28.191 27.0402Z" fill="#BF9963"/>
<path d="M27.6698 53.4576L21.6772 56.5198L27.0445 57.7654L33.1413 63.1111L27.6698 53.4576Z" fill="#B88E53"/>
<path d="M54.4021 50.9144L33.1416 63.1111L33.0374 61.8655L30.953 30.258L30.9009 29.8428V29.739L31.1614 30.0504L31.3699 30.3099L31.422 30.3618L31.4741 30.4137L31.891 30.9846L31.9952 30.5175L32.0473 30.0504L32.2557 29.0124L32.7247 29.5833L32.881 29.739L32.9852 29.9466L33.1937 30.2061L33.2979 29.7909L33.35 29.5833L33.6106 28.2339L34.0795 28.8567L34.3401 29.1681V29.22L34.5485 29.4276L34.6006 29.1162V29.0124L34.9133 27.5073L35.3823 28.0782L35.6428 28.4415L35.7991 28.6491L35.8513 28.701V28.5972L35.9555 28.2858L36.216 26.7288L36.685 27.2997L36.9977 27.663L37.2061 27.9225L37.2582 27.5073L37.4666 26.3655L37.5709 25.9503L38.0398 26.5731L38.3004 26.8845L38.5088 27.144L38.613 26.7288L38.8736 25.2236L39.3426 25.7946L39.6552 26.1579L39.8116 26.4174L39.9158 26.0022L40.2284 24.4451L40.6974 25.016L40.958 25.3793L41.1664 25.6389L41.2185 25.2236L41.5312 23.6666L42.0001 24.2894L42.2607 24.6527L42.4691 24.8603L42.5733 24.4451L42.6254 24.0818L42.8339 22.94L43.3029 23.5109L43.6155 23.8742L43.824 24.1337L43.8761 23.7185L44.1887 22.1615L44.6577 22.7324L44.814 22.94L44.9182 23.0957L45.0225 23.1995L45.1267 23.3552L45.1788 22.94L45.4393 21.5906L45.4915 21.383L45.8562 21.7982L45.9604 22.0058L46.2731 22.3691L46.4294 22.5767L46.5336 22.2134V22.0058L46.8463 20.6564L47.0547 20.9159L47.3153 21.2273L47.5758 21.5906L47.7843 21.8501L47.8364 21.4349L48.149 19.8779L48.618 20.4488L48.8786 20.8121L49.087 21.0716L49.1912 20.6564L49.4518 19.1513V19.0994L49.5039 19.1513L49.9207 19.7222L50.2334 20.0855L50.3897 20.2931L50.4939 19.9298L50.6503 19.0994L50.8066 18.3728L51.2756 18.9437L51.3798 19.0994L51.5361 19.307L51.7446 19.5665L51.7967 19.1513L51.8488 19.0994L52.1093 17.5424L52.6825 25.7946L54.0895 46.7105L54.4021 50.9144Z" fill="#D9BB80"/>
<path d="M24.6997 25.1199L25.0645 25.2237L25.0124 25.5351L24.6997 25.1199Z" fill="#D9B059"/>
<path d="M31.0049 20.9159L30.6402 22.8881L30.2754 22.4729L30.5359 21.2273L30.588 21.0716L30.9007 20.864L31.0049 20.9159Z" fill="#FAD793"/>
<path d="M29.6501 21.6944L29.2853 23.6147L28.9727 23.2514L29.1811 22.0577L29.2332 21.8501L29.598 21.6425L29.6501 21.6944Z" fill="#FAD793"/>
<path d="M32.3073 20.1893L31.9425 22.1096L31.6299 21.6944L31.8904 20.4488V20.345L32.2552 20.1374L32.3073 20.1893Z" fill="#FAD793"/>
<path d="M25.6896 23.978L25.4291 25.3275L25.377 25.5351H25.0122L25.0643 25.2237L25.2728 24.2376V24.1338L25.6375 23.9261L25.6896 23.978Z" fill="#FAD793"/>
<path d="M28.3473 22.4729L27.9826 24.3932L27.6699 23.978L27.8784 22.7843L27.9305 22.6286L28.2431 22.421H28.3473V22.4729Z" fill="#FAD793"/>
<path d="M33.61 19.4108H33.6621L33.2453 21.3311L32.9326 20.9678L33.1932 19.6703V19.5665L33.5579 19.3589L33.61 19.4108Z" fill="#FAD793"/>
<path d="M27.0445 23.1995L26.6276 25.1718L26.3149 24.7566L26.5755 23.459V23.3552L26.9403 23.1476L27.0445 23.1995Z" fill="#FAD793"/>
<path d="M36.2677 17.9057L35.903 19.826L35.5903 19.4108L35.8509 18.1652V18.0614L36.2156 17.8538L36.2677 17.9057Z" fill="#FAD793"/>
<path d="M42.8854 14.065L42.5207 16.0372L42.208 15.622L42.4686 14.3245V14.2207L42.8333 14.0131L42.8854 14.065Z" fill="#FAD793"/>
<path d="M43.8234 13.3384L43.5107 14.8435L43.8234 15.2587L44.2403 13.2346L43.8234 13.3384Z" fill="#FAD793"/>
<path d="M34.965 18.6323L34.6003 20.6045L34.2876 20.1893L34.496 18.9956L34.5481 18.788L34.9129 18.6323H34.965Z" fill="#FAD793"/>
<path d="M41.5827 14.8435L41.2179 16.7638L40.9053 16.4005L41.1137 15.1549L41.1658 14.9992L41.4785 14.7916L41.5827 14.8435Z" fill="#FAD793"/>
<path d="M40.2803 15.622L39.8634 17.5424L39.5508 17.1271L39.8113 15.9334V15.7777L40.1761 15.5701L40.2282 15.622H40.2803Z" fill="#FAD793"/>
<path d="M37.6226 17.1272L37.2578 19.0475L36.8931 18.6842L37.1536 17.4386V17.2829L37.5184 17.0753L37.6226 17.1272Z" fill="#FAD793"/>
<path d="M38.9255 16.3486L38.5607 18.3209L38.248 17.9056L38.4565 16.66L38.5086 16.5043L38.8734 16.3486H38.9255Z" fill="#FAD793"/>
<path d="M24.3871 24.7566L23.9702 24.9123V24.8085L24.0223 24.549L24.2308 24.6528L24.2829 24.7047L24.3871 24.7566Z" fill="#FAD793"/>
<path d="M25.6898 23.978L25.2729 24.2376V24.1337V24.0299L25.3251 23.7704L25.5335 23.8742L25.6377 23.9261L25.6898 23.978Z" fill="#FAD793"/>
<path d="M27.0447 23.1995L26.5757 23.459V23.3552L26.6278 23.2514L26.6799 22.9919L26.8883 23.1476H26.9404L27.0447 23.1995Z" fill="#FAD793"/>
<path d="M28.3474 22.421L27.8784 22.7843L27.9305 22.6286V22.5248L27.9826 22.2653L28.1911 22.3691L28.2432 22.421H28.3474Z" fill="#FAD793"/>
<path d="M29.6501 21.6944L29.1812 22.0577L29.2333 21.8501V21.7463L29.2854 21.4868L29.4938 21.5906L29.598 21.6425L29.6501 21.6944Z" fill="#FAD793"/>
<path d="M31.0051 29.1681L31.6304 29.7909L31.4741 30.4138L28.1912 27.0402L22.7197 25.0161L23.2408 24.7566L24.6999 25.1199L25.0646 25.2237L28.3996 26.6769L31.0051 29.1681Z" fill="#FAD793"/>
<path d="M31.0051 20.9159L30.5361 21.2273L30.5882 21.0197L30.6404 20.7083L30.8488 20.864H30.9009L31.0051 20.9159Z" fill="#FAD793"/>
<path d="M32.3078 20.1894L31.891 20.4489H31.8389L31.891 20.3451V20.2413L31.9431 19.9818L32.1515 20.0856L32.2557 20.1375L32.3078 20.1894Z" fill="#FAD793"/>
<path d="M33.6102 19.4108L33.1934 19.6703V19.5665L33.2455 19.4627L33.2976 19.2032L33.506 19.3589H33.5581L33.6102 19.4108Z" fill="#FAD793"/>
<path d="M34.9651 18.6323L34.4961 18.9956L34.5482 18.788V18.7361L34.6003 18.4247L34.8088 18.5804L34.913 18.6323H34.9651Z" fill="#FAD793"/>
<path d="M36.2679 17.9057L35.8511 18.1652V18.0614V17.9576L35.9032 17.6981L36.1637 17.8019L36.2158 17.8538L36.2679 17.9057Z" fill="#FAD793"/>
<path d="M37.6228 17.1272L37.1538 17.4386V17.2829L37.2059 17.231L37.258 16.9196L37.4665 17.0753H37.5186L37.6228 17.1272Z" fill="#FAD793"/>
<path d="M38.9255 16.3487L38.4565 16.6601L38.5087 16.5044V16.4525L38.5608 16.193L38.7692 16.2968L38.8734 16.3487H38.9255Z" fill="#FAD793"/>
<path d="M40.2284 15.6221L39.8115 15.9335V15.7778L39.8636 15.674L39.9157 15.4145L40.1242 15.5183L40.1763 15.5702L40.2284 15.6221Z" fill="#FAD793"/>
<path d="M41.5832 14.8436L41.1143 15.155L41.1664 14.9993V14.9474L41.2185 14.636L41.4269 14.7917H41.479L41.5832 14.8436Z" fill="#FAD793"/>
<path d="M42.8856 14.0651L42.4688 14.3246V14.2208V14.1689L42.5209 13.8575L42.7814 14.0132H42.8335L42.8856 14.0651Z" fill="#FAD793"/>
<path d="M52.1091 17.5424L51.6401 17.8538L47.1587 16.4006L43.8758 13.4422L43.8237 13.3903V13.4422L43.928 12.8713L47.3672 16.0373L52.1091 17.5424Z" fill="#FAD793"/>
<path d="M24.3873 24.7566L24.3352 25.0161L24.231 25.4313L23.8662 25.3275L23.9704 24.9642V24.9123V24.8604L24.2831 24.7047L24.3873 24.7566Z" fill="#FAD793"/>
<path d="M52.6824 25.7946C52.3697 25.587 52.1092 25.4832 51.7965 25.1199C51.4839 24.7566 51.1191 24.6009 50.8585 24.4452H50.8064C50.7022 24.3933 50.598 24.3414 50.5459 24.3414C50.4938 24.2895 50.4417 24.2895 50.4417 24.2895C50.3896 24.2895 50.3375 24.2895 50.3375 24.2895C50.2853 24.2895 50.2332 24.2895 50.2332 24.2895C50.2332 24.2895 50.1811 24.2376 50.129 24.1857C50.0248 24.0819 49.8164 23.9262 49.5558 23.7186C49.5037 23.6667 49.4516 23.6148 49.3474 23.6148C49.2432 23.511 49.0868 23.4072 48.8784 23.3034C48.201 22.8882 47.3151 22.2654 47.2109 22.2654H47.1588C47.1067 22.2654 47.0025 22.2135 46.8982 22.2135C46.8461 22.2135 46.7419 22.1616 46.6898 22.1616C46.5335 22.1097 46.325 22.0578 46.2208 22.0578C46.1687 22.0578 46.1687 22.0578 46.1166 22.0578C46.0645 22.0578 46.0124 22.0059 45.9603 22.0059C45.9082 21.954 45.804 21.954 45.7518 21.8502C45.6997 21.7983 45.6476 21.7983 45.5955 21.7464C45.4392 21.6426 45.2829 21.5388 45.1265 21.3831C45.0744 21.3312 45.0223 21.2793 44.9181 21.2274C44.866 21.1755 44.8139 21.1236 44.7618 21.0717C44.2928 20.6565 43.4069 20.1375 42.9901 19.9299C42.8858 19.878 42.7816 19.8261 42.7295 19.8261C42.6774 19.8261 42.6253 19.7742 42.5732 19.7742C42.469 19.7223 42.4169 19.6704 42.3647 19.6185C42.3647 19.6185 42.3647 19.6185 42.3126 19.5666C42.3126 19.5147 42.2605 19.5147 42.2605 19.4628C42.1563 19.3071 42.0521 19.2033 41.8958 19.0476C41.7915 18.9438 41.6873 18.8399 41.531 18.6842C41.1662 18.3209 40.8536 18.269 40.8536 18.269C40.8536 18.269 40.6972 18.269 40.593 18.3209C40.5409 18.3728 40.5409 18.3728 40.5409 18.3728V18.4247C40.5409 18.4247 40.0719 18.6323 39.8635 19.2033C39.8635 19.2552 39.8635 19.2552 39.8114 19.3071V19.359C39.7072 19.7223 39.8114 19.878 39.9156 20.1375C39.9677 20.1894 39.9677 20.2413 40.0198 20.2932C40.2804 20.7084 40.593 21.1755 40.593 21.1755C40.593 21.1755 40.593 21.2274 40.593 21.2793V21.3831V21.435C40.593 21.4869 40.593 21.5388 40.6451 21.6426C40.6972 21.8502 40.7494 22.0578 40.9057 22.3692C40.9578 22.5249 41.0099 22.6287 41.062 22.7325C41.062 22.7844 41.1141 22.8363 41.1141 22.8882C41.1141 22.8882 41.1141 22.9401 41.1662 22.9401C41.1662 22.9401 41.2183 22.992 41.2183 23.0439C41.2704 23.0958 41.2705 23.1477 41.3226 23.1996C41.3226 23.1996 41.3226 23.1996 41.3747 23.2515C41.4268 23.3034 41.4268 23.3034 41.4789 23.3553C41.4789 23.3553 41.4789 23.3553 41.531 23.4072C41.5831 23.4591 41.6352 23.511 41.7394 23.5629C41.8437 23.6148 41.8958 23.6667 42 23.7186H42.0521C42.1042 23.7705 42.1563 23.7705 42.2605 23.8224C42.3126 23.8743 42.3647 23.8743 42.4169 23.9262C42.5211 23.9781 42.6774 24.03 42.7816 24.1338C42.8858 24.1857 42.9901 24.2376 43.0943 24.2895C43.6675 24.549 44.0322 24.8085 44.2407 24.9123C44.3449 24.9642 44.397 25.0161 44.397 25.0161C44.4491 25.0161 44.5012 25.068 44.5012 25.068C44.5533 25.068 44.5533 25.068 44.5533 25.068V25.1199C44.5533 25.1718 44.6054 25.2237 44.6575 25.3275C44.6575 25.3794 44.7097 25.4313 44.7618 25.4832C44.9181 25.7427 45.0223 25.8465 45.0223 25.8465C45.0223 25.8465 45.0223 25.8465 44.9702 25.8465C44.9181 25.8465 44.8139 25.8984 44.6575 25.9503C44.6054 25.9503 44.5012 26.0022 44.4491 26.0022H44.397C44.3449 26.0022 44.2407 26.0541 44.1886 26.0541C44.1886 26.0541 44.1886 26.0541 44.1365 26.0541C44.0843 26.0541 44.0322 26.106 43.9801 26.106C43.928 26.1579 43.8238 26.2098 43.7196 26.2617C43.6154 26.3136 43.5633 26.3655 43.459 26.4174C43.459 26.4174 43.459 26.4174 43.4069 26.4174C43.3027 26.4693 43.1985 26.5212 43.0943 26.625C42.9379 26.7288 42.8337 26.8326 42.6774 26.8845C42.5732 26.9364 42.5211 26.9883 42.469 27.0402C42.3126 27.1959 42.1042 27.3516 41.8958 27.4554C41.7394 27.5592 41.6352 27.663 41.531 27.7149L41.2183 27.9226C41.0099 28.0264 40.6451 28.1821 40.3846 28.3897C40.2283 28.4935 40.124 28.5454 40.0198 28.5973C39.8635 28.753 39.7593 28.8568 39.7072 28.8568C39.603 29.0644 39.5508 29.0644 39.5508 29.0644V29.1163C39.5508 29.1163 39.5508 29.1682 39.4987 29.1682C39.4466 29.272 39.3945 29.4277 39.3945 29.6872C39.3945 29.7391 39.3945 29.7391 39.3945 29.791V29.8429C39.3945 29.8429 39.3945 29.8948 39.3945 29.9467V29.9986C39.3945 29.9986 39.3945 30.0505 39.4466 30.1024C39.4466 30.1024 39.4466 30.1543 39.4987 30.1543C39.4987 30.2062 39.4987 30.2062 39.5508 30.2581L39.603 30.31C39.603 30.3619 39.6551 30.3619 39.6551 30.4138L39.7072 30.4657C39.7593 30.5176 39.8114 30.5695 39.8635 30.6214C40.3325 31.1404 41.0099 31.348 41.531 31.348C41.8436 31.348 42.1563 31.2961 42.3647 31.1923C42.5732 31.0885 42.8337 30.9328 43.0943 30.7771C43.5633 30.5176 44.0843 30.2581 44.5012 30.1024C44.6575 30.0505 44.8139 29.9986 44.9702 29.8948C45.1265 29.8429 45.2307 29.7391 45.335 29.6872C45.5434 29.5834 45.6476 29.4796 45.6476 29.4796C45.6476 29.4796 45.804 29.5315 46.0124 29.5315C46.0645 29.5315 46.1687 29.5315 46.2208 29.5315C46.325 29.5315 46.4293 29.4796 46.4814 29.4796C46.5856 29.4796 46.5856 29.4796 46.5856 29.4796C46.5856 29.4796 46.8461 29.8429 46.8982 30.2062C46.9504 30.4657 47.0025 30.7252 47.0025 30.829C47.0025 30.8809 47.0025 30.8809 47.0025 30.8809C46.9504 30.8809 46.9504 30.8809 46.8982 30.9328C46.6377 31.0366 46.1166 31.2442 45.6997 31.3999C45.5434 31.4518 45.4392 31.5037 45.335 31.5556C45.2829 31.5556 45.2829 31.6075 45.2308 31.6075C45.1786 31.6075 45.1265 31.6594 45.1265 31.6594C45.0744 31.6594 45.0744 31.7113 44.9702 31.7632C44.9181 31.8151 44.8139 31.867 44.7618 31.9189C44.4491 32.1265 44.0843 32.386 43.7196 32.5936C43.5111 32.7493 43.3027 32.905 43.2506 32.9569C43.1464 33.0088 43.0943 33.0607 43.0943 33.1126C42.9379 33.2164 42.9379 33.2683 42.9379 33.2683L42.8858 33.3202C42.8858 33.3202 42.8337 33.3721 42.7816 33.3721C42.6774 33.424 42.5732 33.4759 42.469 33.5278C42.4169 33.5797 42.3647 33.5797 42.3126 33.6316C42.3126 33.6316 42.2605 33.6316 42.2605 33.6835C42.2605 33.6835 42.2084 33.6835 42.2084 33.7354C42.1563 33.7354 42.1563 33.7873 42.1042 33.7873C42.1042 33.7873 42.0521 33.7873 42.0521 33.8392C42 33.8392 41.9479 33.8911 41.9479 33.8911H41.8958C41.8958 33.8911 41.8958 33.8911 41.8437 33.8911C41.7915 33.943 41.7394 33.943 41.6873 33.9949C41.6352 34.0468 41.5831 34.0468 41.531 34.0987C41.2183 34.3582 40.9057 34.6177 40.9057 34.6177V34.6696C40.9057 34.7215 40.8536 34.7734 40.8536 34.8253V34.8772C40.8536 34.9291 40.8536 34.9291 40.8536 34.981C40.8536 35.0848 40.8536 35.1367 40.9057 35.2405C40.9057 35.2924 40.9578 35.3443 40.9578 35.3962C41.0099 35.4481 41.0099 35.5 41.062 35.5519C41.3747 35.9152 41.7915 36.2785 42.5732 36.2785C42.6774 36.2785 42.8337 36.2785 42.9901 36.2266C43.1464 36.2266 43.3027 36.1747 43.459 36.1228C43.6154 36.0709 43.8238 36.019 43.9801 36.019C44.3449 35.9152 44.6575 35.8114 44.9702 35.7076C45.3871 35.5519 45.7518 35.4481 46.0124 35.3443C46.1687 35.2924 46.325 35.1886 46.4293 35.1886C46.5335 35.1367 46.6377 35.0848 46.7419 35.0329C47.0546 34.8772 47.3151 34.7215 47.3151 34.7215C47.3151 34.7215 47.3151 34.7215 47.3672 34.7215L44.8139 36.1747L36.0595 41.2091C35.6948 41.4167 35.4863 41.78 35.4863 42.1433V52.1601C35.4863 52.3158 35.5905 52.4715 35.6948 52.5753C35.799 52.6272 36.0074 52.7829 36.2159 52.8867C36.2159 52.8867 36.2159 52.8867 36.268 52.8867C36.3722 52.9386 36.4764 52.9386 36.5806 52.8867C36.6327 52.8867 36.6848 52.8867 36.6848 52.8348L37.4665 52.3677L44.7097 48.2157L45.8561 47.541C45.8561 47.5929 45.8561 47.6448 45.8561 47.6967C45.8561 47.7486 45.8561 47.7486 45.8561 47.8005V47.8524C45.8561 47.9043 45.8561 47.9562 45.8561 48.0081V48.06C45.8561 48.1119 45.8561 48.1638 45.8561 48.2157C45.8561 48.2676 45.8561 48.3195 45.9082 48.3195C45.9082 48.3714 45.9603 48.4233 45.9603 48.5271C45.9603 48.579 45.9603 48.579 46.0124 48.6309C46.0124 48.6828 46.0645 48.6828 46.0645 48.6828C46.1166 48.7347 46.1687 48.7866 46.1687 48.8385C46.2729 48.9423 46.4814 48.9942 46.6377 49.0461C46.9504 49.098 47.263 48.9942 47.6278 48.8904C47.6799 48.8904 47.732 48.8904 47.7841 48.8385C47.9404 48.7866 48.0968 48.7347 48.3052 48.6828C48.5136 48.6309 48.67 48.579 48.8263 48.5271C48.9305 48.5271 48.9826 48.4752 49.0868 48.4752C49.2953 48.4233 49.4516 48.3714 49.5558 48.3195C49.66 48.2676 49.7121 48.2676 49.7121 48.2676C49.7121 48.2676 50.5459 48.3714 51.2233 48.3714C51.3796 48.3714 51.4839 48.3714 51.6402 48.3714C51.9007 48.3714 52.0571 48.3714 52.1613 48.3195C52.2134 48.3195 52.3697 48.1638 52.6303 47.9562C52.7866 47.8524 52.995 47.6967 53.2035 47.4891C53.4119 47.3334 53.6724 47.1258 53.933 46.9182C54.0372 46.8144 54.1935 46.7106 54.2977 46.6587L52.6824 25.7946ZM51.9007 40.742C51.8486 40.8458 51.8486 40.9496 51.7965 41.0015C51.7965 41.0534 51.7965 41.0534 51.7965 41.0534C51.7965 41.1053 51.7444 41.1572 51.7444 41.261V41.3129C51.7444 41.4167 51.6923 41.4686 51.6923 41.5205C51.6923 41.5724 51.6923 41.6762 51.6923 41.78V41.8319C51.6923 41.9876 51.7444 42.1952 51.7965 42.3509C51.7965 42.4547 51.8486 42.5585 51.8486 42.6104C51.8486 42.6623 51.9007 42.7142 51.9007 42.7142L51.8486 42.818L51.7444 43.0775C51.7444 43.0775 51.5881 43.2332 51.3796 43.3889V39.1331C52.0571 40.1711 52.1092 40.2749 52.1092 40.2749C52.1092 40.2749 52.0049 40.4825 51.9007 40.742Z" fill="#D1C8BC"/>
<path d="M34.5485 19.307C35.0175 20.1374 35.0696 20.8121 35.5385 21.6425C35.9033 22.2653 36.3202 22.9401 36.8413 23.4591C37.5708 24.2376 38.5088 24.8085 39.4988 25.2237L39.7073 24.2376L40.2805 24.4452L40.6452 25.4313L41.01 23.4591L41.5832 23.6667L41.948 24.6528L42.2606 23.0958C42.2085 22.3691 42.2606 21.5906 42.417 20.864C42.5733 20.1374 43.0423 19.3589 43.0423 18.5804C43.0423 18.1652 42.6775 17.75 42.938 17.3348C43.1465 17.0234 43.4591 16.8158 43.6155 16.5044C43.7718 16.0373 43.407 15.5702 42.9902 15.3626C42.5733 15.155 42.0522 15.2069 41.5832 15.2588C41.948 14.8436 42.2085 14.3246 42.2606 13.7537C41.8959 13.6499 41.5832 13.9094 41.2184 14.0651C40.9058 14.2208 40.3847 14.2208 40.2805 13.8575C40.1763 13.4941 40.6452 13.1827 40.5931 12.8713C40.541 12.4561 40.0199 12.3523 39.6031 12.4561C39.1862 12.5599 38.8214 12.8194 38.4045 12.6637C37.8313 12.4561 37.8313 11.5738 37.9877 10.951C37.3103 10.7953 36.7892 11.6257 36.8413 12.3523C36.8934 13.0789 37.2581 13.7018 37.2581 14.4284C37.2581 14.6879 37.1539 14.9474 36.9455 14.9993C36.8413 14.9993 36.7892 14.9993 36.6849 14.9474C35.6428 14.5841 34.9132 13.546 34.9132 12.4561C34.9132 12.3523 34.9132 12.1966 34.8611 12.0928C34.7569 11.8852 34.4442 11.8333 34.2358 11.9371C34.0274 12.0409 33.871 12.2485 33.8189 12.4561C33.7668 12.6637 33.7147 12.9232 33.5063 13.027C33.4021 13.0789 33.2978 13.0789 33.1936 13.0789C32.7768 13.1308 32.412 13.1308 31.9951 13.1827C32.412 14.2727 33.1936 15.2588 33.5584 16.4006C33.871 17.4386 34.0274 18.3728 34.5485 19.307Z" fill="#77B300"/>
<path d="M40.6975 19.9817C40.7496 19.5146 40.6975 19.0475 40.8017 18.5804C40.9059 17.9576 41.2707 17.3867 41.2186 16.7639C41.2186 16.712 41.2186 16.6601 41.1665 16.6601C41.1144 16.6601 41.1144 16.6601 41.0623 16.6601C40.9059 16.6601 40.8017 16.5044 40.7496 16.4006C40.6975 16.2449 40.6975 16.0892 40.6975 15.9854C40.6454 15.6221 40.3849 15.3107 40.0201 15.2069C39.6553 15.1031 39.2906 15.3107 39.1342 15.6221C39.03 15.8816 39.0821 16.1411 39.0821 16.4525C39.03 16.712 38.8216 17.0234 38.561 16.9715C38.3526 16.9196 38.2484 16.6601 38.2484 16.4525C38.2484 16.2449 38.3005 16.0373 38.2484 15.8297C37.7273 15.674 37.1541 15.8816 36.633 16.0373C36.1119 16.193 35.4345 16.2449 35.0697 15.8297C34.8613 15.6221 34.8092 15.3107 34.6528 15.0512C34.5486 14.8436 34.3923 14.6879 34.236 14.5322C34.0275 14.2727 33.8191 13.9094 33.5586 13.7537C33.4022 13.6499 33.1417 13.7018 32.9854 13.8056C33.4543 14.7917 33.9233 15.8816 34.4444 16.8677C34.9655 17.8019 35.7471 18.5285 36.3724 19.4108C37.5189 21.0197 38.6131 22.7844 39.6553 24.549L39.7074 24.2895L40.2806 24.4971L40.6454 25.4313H40.6975L40.9581 24.1338C40.8017 23.5629 40.5412 22.992 40.4891 22.3692C40.3327 21.4868 40.6454 20.7602 40.6975 19.9817Z" fill="#A7CE5B"/>
<path d="M39.4988 25.0161L39.2382 26.2098L38.8734 25.2237L38.3002 25.0161L37.9355 26.9883L37.4144 26.3136L37.3102 26.2098L36.9975 25.7946L36.8412 26.7288L36.6328 27.7668L36.268 26.7807L35.6948 26.5731L35.33 28.5453L34.9132 27.5073L34.3921 27.3516H34.3399L33.9752 29.22V29.2719L33.9231 29.0643L33.6104 28.2339L33.1935 28.0782L33.0372 28.0263L32.6725 29.9985L32.3077 29.0124L31.7345 28.8048L31.4218 30.4137L31.005 29.22L28.8164 27.0921L28.6079 26.8845C27.8784 25.9503 27.1489 25.0161 26.4715 24.0819C24.804 21.902 23.1886 19.7741 21.5211 17.5943C19.3846 14.7917 16.5707 11.8333 15.0595 8.5636C13.7568 5.65716 14.0174 2.17982 16.8313 0.467105C17.2481 0.259503 17.665 0 18.134 0H18.2382C18.2903 0 18.3424 0 18.4466 0C18.5509 0 18.6551 0.0519006 18.7593 0.0519006C18.8114 0.0519006 18.8635 0.0519006 18.9156 0.103801C18.9677 0.103801 19.0198 0.155702 19.072 0.155702C19.1762 0.207602 19.3325 0.259503 19.4367 0.259503C19.4888 0.311404 19.5409 0.311403 19.593 0.363304C20.062 0.570906 20.531 0.88231 21.0521 1.24561C22.3548 2.23173 23.6055 3.52924 24.4392 4.30775C26.4715 6.22807 28.2432 8.30409 29.9628 10.4839C32.0471 13.2346 33.9752 16.1411 35.7469 19.0994C35.9553 19.4627 36.1638 19.7741 36.3722 20.1374C36.5285 20.3969 36.6849 20.6564 36.8933 20.9678C37.2581 21.4868 37.6228 22.0058 37.9876 22.5768C38.0397 22.6287 38.0397 22.6287 38.0397 22.6806C38.0918 22.7844 38.196 22.8882 38.2481 22.992C38.665 23.6148 39.0819 24.2895 39.4988 25.0161Z" fill="#FABB64"/>
<path d="M39.4989 25.0161L39.2383 26.2098L38.8735 25.2237L38.3003 25.0161L37.9356 26.9883L37.4145 26.3136L37.3103 26.2098L36.9976 25.7946L36.8413 26.7288L35.2259 25.1199L35.0175 24.9123C34.2879 23.9781 33.5584 23.0438 32.881 22.1096C31.2135 19.9298 29.5981 17.8019 27.9306 15.6221C25.742 12.7675 22.9281 9.8611 21.4691 6.59137C20.6874 4.82675 20.4269 2.90642 21.0001 1.24561C22.3028 2.23172 23.5535 3.52923 24.3872 4.30774C26.4195 6.22806 28.1912 8.30409 29.9108 10.4839C31.9951 13.2346 33.9232 16.1411 35.6949 19.0994C35.9033 19.4627 36.1118 19.7741 36.3202 20.1374C36.4765 20.3969 36.6329 20.6564 36.8413 20.9678C37.2061 21.4868 37.5708 22.0058 37.9356 22.5767C37.9877 22.6286 37.9877 22.6286 37.9877 22.6805C38.0398 22.7843 38.144 22.8881 38.1961 22.9919C38.6651 23.6148 39.082 24.2895 39.4989 25.0161Z" fill="#FACA78"/>
<path d="M33.1935 28.1301L33.0372 28.0782L32.6725 30.0504L32.3077 29.0643L31.7345 28.8567L31.4218 30.4656L31.005 29.2719L28.8164 27.144L28.6079 26.9364C27.8784 26.0022 27.1489 25.068 26.4715 24.1338C24.804 21.9539 23.1886 19.826 21.5211 17.6462C19.3846 14.8436 16.5707 11.8852 15.0595 8.6155C13.7568 5.70906 14.0174 2.23172 16.8313 0.519006C17.2481 0.259503 17.665 0 18.134 0H18.2382C18.2903 0 18.3424 0 18.4466 0C18.5509 0 18.6551 0.0519006 18.7593 0.0519006C18.8114 0.0519006 18.8635 0.0519006 18.9156 0.103801C18.9677 0.103801 19.0198 0.155702 19.072 0.155702C19.1762 0.207602 19.2804 0.259503 19.4367 0.259503C19.6452 0.363304 19.8536 0.674708 20.062 0.674708C18.4988 0.570906 16.9355 1.81652 16.727 3.37354C16.6228 3.89254 16.6749 4.41155 16.7792 4.93056C16.9355 5.55336 17.1439 6.17617 17.4566 6.74708C17.7171 7.21418 18.0819 7.52558 18.3424 7.94079C18.9677 9.0307 19.4888 10.1206 20.2184 11.1067C21.6774 13.1827 23.3449 15.0512 24.8561 17.0234C26.263 18.8918 27.7221 20.7602 29.129 22.6287C29.9107 23.6667 30.6923 24.6528 31.4739 25.6908C31.8908 26.2098 32.2556 26.7288 32.6725 27.2478C32.7767 27.6111 32.9851 27.8706 33.1935 28.1301Z" fill="#E6A449"/>
<path d="M33.975 29.1681V29.22L33.9229 29.0643C33.9229 29.1162 33.975 29.1681 33.975 29.1681Z" fill="#E6A449"/>
<path d="M26.0547 5.55335C25.8984 5.34575 25.7421 5.19004 25.5336 5.08624C25.3252 4.98244 25.0646 5.03434 24.9083 5.13814C24.1267 7.00656 23.7098 9.03069 23.4492 11.0029C23.345 11.6776 23.2929 12.3523 23.4492 12.9751C23.6577 13.5979 24.1788 14.1688 24.8562 14.2207C25.0125 14.2207 25.1689 14.2207 25.2731 14.1169C25.4294 14.0131 25.4815 13.8055 25.5336 13.5979C25.9505 12.0409 26.3674 10.4839 26.7842 8.92689C26.8885 8.56358 26.9927 8.14838 27.0448 7.78507C27.0448 7.52557 26.9927 7.26607 26.9406 7.00657C26.7842 6.43566 26.4195 6.02045 26.0547 5.55335Z" fill="#E6A449"/>
<path d="M27.201 7.11035C27.201 7.31795 27.1489 7.52556 27.1489 7.78506C27.1489 7.94076 27.1489 8.09646 27.1489 8.25216L27.201 7.11035Z" fill="#E6A449"/>
<path d="M33.5062 15.0511C33.5062 15.2587 33.4541 15.4664 33.4541 15.7259C33.4541 15.8816 33.4541 16.0373 33.4541 16.193L33.5062 15.0511Z" fill="#E6A449"/>
<path d="M32.4121 13.4941C32.2558 13.2865 32.0995 13.1308 31.891 13.027C31.6826 12.9232 31.4221 12.9751 31.2657 13.0789C30.4841 14.9474 30.0672 16.9715 29.8067 18.9437C29.7025 19.6184 29.6503 20.2931 29.8067 20.9159C30.0151 21.5387 30.5362 22.1096 31.2136 22.1615C31.3699 22.1615 31.5263 22.1615 31.6305 22.0577C31.7868 21.9539 31.8389 21.7463 31.891 21.5387C32.3079 19.9817 32.7248 18.4247 33.1417 16.8677C33.2459 16.5044 33.3501 16.0892 33.4022 15.7259C33.4022 15.4664 33.3501 15.2069 33.298 14.9474C33.1417 14.3765 32.7769 13.9612 32.4121 13.4941Z" fill="#E6A449"/>
<path d="M38.1961 23.0958L38.1439 23.9781C38.1439 23.8224 38.1439 23.6667 38.1439 23.5629C38.0918 23.9262 37.9876 24.2895 37.8834 24.7047C37.7271 25.2756 37.5707 25.7946 37.4665 26.3655L37.3623 26.2617L36.9975 25.7946L36.6328 27.7668L36.268 26.7807L35.6948 26.5731L35.3301 28.5453L34.9132 27.5073L34.3921 27.3516C34.3921 27.144 34.4442 26.9364 34.4442 26.7807C34.7047 24.7566 35.0695 22.7325 35.9033 20.9159C36.1117 20.7602 36.3201 20.7602 36.5286 20.864C36.6328 20.9159 36.6849 20.9678 36.7891 21.0716C36.8933 21.1754 36.9975 21.2792 37.0497 21.383C37.4144 21.7982 37.7792 22.2653 37.9355 22.7844V22.8363C38.0397 23.0958 38.0397 23.3553 38.0397 23.6148C38.1439 23.3553 38.144 23.2515 38.1961 23.0958Z" fill="#E6A449"/>
<path d="M39.4988 25.0161L39.2383 26.2098L38.8735 25.2237L38.3003 25.0161L37.9355 26.9883L37.4144 26.3136L37.3102 26.2098L36.9976 25.7946L36.6328 27.7668L36.268 26.7807L35.6948 26.5731L35.3301 28.5453L34.9132 27.5073L34.3921 27.3516H34.34L33.9752 29.22V29.2719L33.9231 29.0643L33.6105 28.2339L33.1936 28.0782L33.0373 28.0263L32.6725 29.9985L32.3077 29.0124L31.7345 28.8048L31.4219 30.4137L31.005 29.22L28.8164 27.0921L28.9206 26.6769L29.8586 27.8706L30.2234 25.8984L31.1613 27.0921L31.4219 25.7946L31.5261 25.1718L32.4641 26.3655L32.8288 24.3933L33.7668 25.587L34.1315 23.6148L35.0695 24.8085L35.4343 22.8362L36.3722 24.03L36.737 22.0577L37.675 23.2515L37.8313 22.5248C37.8834 22.5767 37.8834 22.5767 37.8834 22.6286C37.9355 22.7324 38.0397 22.8362 38.0918 22.94C38.665 23.6148 39.0819 24.2895 39.4988 25.0161Z" fill="#D18B2A"/>
<path d="M66.8042 43.6484C66.1268 44.0636 63.7297 46.2953 62.9481 46.7105C62.1665 47.1257 57.8935 50.6031 57.5809 50.8107C57.2682 50.9664 54.767 50.7069 54.767 50.7069C54.767 50.7069 54.767 50.7069 54.6106 50.7588C54.4543 50.8107 54.2459 50.8626 53.7769 51.0183C52.9953 51.2259 51.9531 51.7449 51.2235 51.6411C51.0151 51.6411 50.8067 51.5373 50.6503 51.4335C49.9729 50.8626 50.1814 49.2018 50.9109 48.1638C51.6404 47.1776 55.6007 46.3472 55.6007 46.3472C55.6007 46.3472 55.9655 45.8801 56.2781 45.5168C56.5908 45.1535 57.2682 44.6345 57.2682 44.6345L57.4245 44.2193C57.4245 44.2193 57.164 43.2851 57.2161 42.818C57.2682 42.3509 57.6851 41.3129 57.6851 41.3129C57.6851 41.3129 57.633 41.1572 56.1739 39.0293C54.7149 36.9013 53.829 34.6696 53.829 34.6696C53.7248 34.6696 53.2037 34.8253 52.6826 34.981C52.1615 35.1367 51.8489 34.9291 51.8489 34.9291C51.8489 34.9291 51.3278 35.2405 50.8588 35.4481C50.3898 35.6557 49.035 36.1747 47.3675 36.5899C45.7 37.0051 45.0747 36.4861 44.5536 35.8633C44.3451 35.6557 44.293 35.4481 44.293 35.2405C44.293 35.1886 44.293 35.1367 44.293 35.0848C44.293 35.0329 44.293 35.0329 44.3451 34.981C44.3972 34.8772 44.3972 34.8253 44.4493 34.7734V34.7215C44.4493 34.7215 44.762 34.4101 45.1789 34.1506C45.4915 33.943 46.3774 33.4759 46.69 33.3202C46.7421 33.3202 46.7422 33.2683 46.7943 33.2683L46.8464 33.1645C46.8464 33.1645 46.8985 33.0607 47.2111 32.8012C47.5759 32.4898 49.0871 31.4518 49.3997 31.2961C49.7124 31.1404 51.6925 30.4657 51.6925 30.4657C51.6925 30.4657 51.6404 30.0505 51.5362 29.6872C51.432 29.3238 51.1714 28.8567 51.1714 28.8567C51.1714 28.8567 51.1714 28.8567 50.7546 28.9086C50.3377 28.9605 50.0771 28.8567 50.0771 28.8567C50.0771 28.8567 49.556 29.3238 48.7744 29.5833C47.9928 29.8429 46.8985 30.4657 46.2732 30.829C45.6479 31.1923 44.293 31.1404 43.3551 30.2062C42.4171 29.2719 42.9903 28.3896 42.9903 28.3896V28.3377C42.9903 28.3377 43.0424 28.2858 43.4072 27.9744C43.7719 27.663 44.9704 27.0921 44.9704 27.0921C44.9704 27.0921 45.6479 26.5731 46.2211 26.106C46.5337 25.8465 46.9506 25.587 47.3675 25.3275C47.6801 25.1718 47.9407 25.0161 48.0449 24.9642C48.3054 24.8604 48.9828 24.6528 49.1392 24.549H49.1913C49.1913 24.549 49.0871 24.4452 48.8786 24.1338C48.7223 23.8743 48.6702 23.6667 48.6702 23.6148C48.6702 23.6148 48.566 23.6148 48.4618 23.5629C48.3575 23.511 47.5238 22.992 46.1168 22.2654C44.7099 21.5907 44.762 21.435 44.293 20.5007C43.9804 19.826 43.9804 19.4108 43.9804 19.2032C43.9804 19.1513 43.9804 19.0994 43.9804 19.0994C43.9804 19.0994 43.6156 18.5285 43.3029 18.0614C43.0424 17.5943 42.8861 17.3348 43.0945 16.712C43.3551 16.0373 43.8761 15.8297 43.8761 15.8297C43.8761 15.8297 43.8761 15.7778 43.9804 15.674C44.0846 15.5702 44.293 15.5702 44.293 15.5702C44.293 15.5702 44.6578 15.674 45.0747 16.0892C45.4915 16.5044 45.7 16.7639 45.9084 17.0234C46.1168 17.2829 46.2732 17.2829 46.7943 17.5424C47.3154 17.8019 48.5139 18.5285 49.035 18.9956C49.556 19.4627 50.2335 19.9298 50.494 19.9817C50.5982 19.9817 50.8067 20.0336 51.0151 20.0855C51.2756 20.1374 51.5362 20.2412 51.6404 20.2412C51.7446 20.2931 52.8389 20.9679 53.5685 21.4869C53.7769 21.6426 53.9853 21.7464 54.0895 21.8502C54.767 22.3173 55.1317 22.6806 55.1317 22.6806C55.1317 22.6806 55.1838 22.6806 55.2881 22.6806C55.3402 22.6806 55.4444 22.7325 55.5486 22.7844C55.6528 22.8363 55.8091 22.8882 55.9655 22.992C56.2781 23.1477 56.695 23.3553 57.1119 23.7705C57.6851 24.3933 57.9977 24.3933 58.8836 25.1199C59.7694 25.8984 60.2384 26.8845 60.5511 27.1959C60.8637 27.5073 62.0622 27.9744 62.5833 28.8567C63.1044 29.7909 63.5213 29.8429 63.7819 29.9467C63.834 29.9467 63.8861 29.9986 63.9903 29.9986C64.3029 30.1024 64.7198 30.1543 65.3451 30.4657C66.1268 30.829 66.3873 31.6594 66.4915 32.0227C66.5957 32.386 67.0647 36.5899 67.5858 39.8597C68.4717 43.0775 67.4816 43.1813 66.8042 43.6484Z" fill="#E0A175"/>
<path d="M48.8266 23.511C48.8266 23.511 48.7224 23.511 48.6181 23.4591C48.5139 23.4072 47.6802 22.8882 46.2732 22.1615C45.2831 21.6944 45.0226 21.4349 44.7621 21.0716C44.6578 20.9159 44.5536 20.7083 44.4494 20.3969C44.1367 19.7222 44.1367 19.307 44.1367 19.0994C44.1367 19.0475 44.1367 18.9956 44.1367 18.9956C44.1367 18.9956 43.772 18.4247 43.4593 17.9576C43.1988 17.4905 43.0424 17.231 43.2509 16.6082C43.5114 15.9335 44.0325 15.7259 44.0325 15.7259C44.0325 15.7259 44.0325 15.674 44.0846 15.674C44.0846 15.674 44.1367 15.6221 44.1367 15.5702C44.241 15.4664 44.4494 15.4664 44.4494 15.4664C44.4494 15.4664 44.8142 15.5702 45.231 15.9854C45.6479 16.4006 45.8563 16.6601 46.0648 16.9196C46.1169 16.9715 46.169 17.0234 46.169 17.0234C46.3253 17.1791 46.4817 17.231 46.8985 17.3867C47.4196 17.6462 48.6181 18.3728 49.1392 18.8399C49.6603 19.307 50.3377 19.7741 50.5983 19.826C50.7025 19.826 50.9109 19.8779 51.1194 19.9298C51.3799 19.9817 51.6405 20.0855 51.7447 20.0855C51.8489 20.1374 52.9432 20.8121 53.6727 21.3311L48.8266 23.511Z" fill="#EDB992"/>
<path d="M44.762 21.1235C44.6578 20.9678 44.5536 20.7602 44.4494 20.4488C44.1367 19.7741 44.1367 19.3589 44.1367 19.1513C44.1367 19.0994 44.1367 19.0475 44.1367 19.0475C44.1367 19.0475 43.772 18.4766 43.4593 18.0095C43.1988 17.5424 43.0424 17.2829 43.2509 16.6601C43.2509 16.7639 43.0946 17.5943 44.4494 18.3728C45.3353 18.8399 45.1268 20.0855 44.762 21.1235Z" fill="#E0A175"/>
<path d="M56.2782 22.8363L55.9655 23.4591L50.2856 25.2237L48.8265 25.6908L47.5238 25.2237C47.8365 25.068 48.097 24.9123 48.2012 24.8604C48.4618 24.7566 49.1392 24.549 49.2955 24.4452H49.3476C49.3476 24.4452 49.2434 24.3414 49.035 24.03C48.8787 23.7705 48.8265 23.5629 48.8265 23.511C48.8265 23.511 48.7223 23.511 48.6181 23.4591C48.5139 23.4072 47.6801 22.8882 46.2732 22.1616C44.8663 21.4869 44.9184 21.3312 44.4494 20.397C44.1367 19.7223 44.1367 19.3071 44.1367 19.0995V18.9957C44.1367 18.9957 44.293 18.1134 44.8141 17.8539C45.3352 17.5943 45.3352 17.5943 45.3352 17.5943C45.3352 17.5943 45.4395 17.3348 46.0648 17.3867C46.3253 17.4386 46.638 17.5943 46.8985 17.8019C47.3154 18.1134 47.7323 18.5286 47.8365 18.5805C47.9407 18.6324 49.9208 19.7223 50.1293 19.7742C50.1814 19.7742 50.5983 19.8261 51.1715 19.9299C51.432 19.9818 51.6926 20.0856 51.7968 20.0856C51.901 20.1375 52.9953 20.8122 53.7248 21.3312C53.9332 21.4869 54.1417 21.5907 54.2459 21.6945C54.9233 22.1616 55.2881 22.5249 55.2881 22.5249C55.2881 22.5249 55.3402 22.5249 55.4444 22.5249C55.4965 22.5249 55.6007 22.5768 55.705 22.6287C55.9655 22.7325 56.0697 22.7844 56.2782 22.8363Z" fill="#EDB992"/>
<path d="M44.1367 19.307C44.1367 19.307 44.293 18.4247 44.8141 18.1652C45.3352 17.9057 45.3352 17.9057 45.3352 17.9057C45.3352 17.9057 45.4395 17.6462 46.0648 17.6981C46.3253 17.75 46.638 17.9057 46.8985 18.1133C47.3154 18.4247 47.7323 18.8399 47.8365 18.8918C47.9407 18.9437 49.9208 20.0336 50.1293 20.0855C50.1814 20.0855 50.5983 20.1374 51.1715 20.2413C51.432 20.2932 51.6926 20.397 51.7968 20.397C51.901 20.4489 52.9953 21.1236 53.7248 21.6426C53.9332 21.7983 54.1417 21.9021 54.2459 22.0059C54.9233 22.473 55.2881 22.8363 55.2881 22.8363C55.2881 22.8363 55.3402 22.8363 55.4444 22.8363C55.4965 22.8363 55.6007 22.8882 55.705 22.9401C55.7571 22.992 55.8613 23.0439 56.0176 23.0958L56.2782 22.8363C56.1218 22.7325 55.9655 22.6806 55.8613 22.6287C55.7571 22.5768 55.6528 22.5249 55.6007 22.5249C55.4965 22.5249 55.4444 22.5249 55.4444 22.5249C55.4444 22.5249 55.0796 22.1616 54.4022 21.6945C54.2459 21.5907 54.0896 21.4869 53.8811 21.3312C53.0995 20.8122 52.0573 20.1374 51.9531 20.0855C51.8489 20.0336 51.5883 19.9817 51.3278 19.9298C50.7546 19.826 50.3377 19.7741 50.2856 19.7741C50.0251 19.7741 48.097 18.6842 47.9928 18.5804C47.9407 18.5285 47.5238 18.1133 47.0548 17.8019C46.7422 17.5943 46.4295 17.3867 46.2211 17.3867C45.4394 17.3867 45.3352 17.6462 45.3352 17.6462C45.3352 17.6462 45.3352 17.6462 44.8141 17.9057C44.293 18.1652 44.1367 19.0475 44.1367 19.0475V19.1513C44.1367 19.2032 44.1367 19.307 44.1367 19.3589V19.307Z" fill="#E0A175"/>
<path d="M49.2956 24.7566H49.3478C49.3478 24.7566 49.2956 24.7047 49.1914 24.549C48.9309 24.6528 48.4098 24.8085 48.2013 24.9123C48.045 24.9642 47.8366 25.1199 47.5239 25.2756L47.8366 25.3794C47.9929 25.2756 48.1492 25.2237 48.2013 25.1718C48.4619 25.0161 49.0872 24.8085 49.2956 24.7566Z" fill="#E0A175"/>
<path d="M50.2856 25.2756C50.2856 25.2756 50.2335 25.2756 50.2856 25.2756L48.8265 25.7427L47.5238 25.2756C47.8365 25.1199 48.097 24.9642 48.2012 24.9123C48.4618 24.8085 49.1392 24.6009 49.2955 24.4971H49.3476C49.3476 24.4971 49.2434 24.3933 49.035 24.0819C48.8787 23.8224 48.8265 23.6148 48.8265 23.5629C48.8265 23.5629 48.7223 23.5629 48.6181 23.511C48.5139 23.4591 47.6801 22.9401 46.2732 22.2135C44.8663 21.5388 44.9184 21.3831 44.4494 20.4489C44.1367 19.7742 44.1367 19.359 44.1367 19.1513V19.0475C44.1367 19.0475 44.6057 20.3451 45.8042 20.4489C47.0027 20.5527 47.7323 20.1894 48.097 20.8641C48.5139 21.4869 50.3377 22.0059 50.3377 22.0059C50.3377 22.0059 50.494 23.1477 51.6404 23.511C52.2136 23.7186 51.2757 24.549 50.2856 25.2756Z" fill="#E0A175"/>
<path d="M47.7323 25.1718C48.0449 25.0161 48.3055 24.8604 48.4097 24.8085C48.6702 24.7047 49.3476 24.4971 49.504 24.3933H49.5561C49.5561 24.3933 49.4519 24.2895 49.2434 23.9781C49.0871 23.7186 49.035 23.511 49.035 23.4591C49.035 23.4591 48.9308 23.4591 48.8266 23.4072C48.7223 23.3553 47.8886 22.8363 46.4816 22.1097C45.0747 21.435 45.1268 21.2793 44.6578 20.3451C44.5015 19.9818 44.3973 19.6704 44.3452 19.4628C44.1888 19.2032 44.1367 19.0475 44.1367 19.0475V19.1513C44.1367 19.359 44.1367 19.7742 44.4494 20.4489C44.8663 21.3831 44.8663 21.5388 46.2732 22.2135C47.6802 22.9401 48.5139 23.4591 48.6181 23.511C48.7223 23.5629 48.8266 23.5629 48.8266 23.5629C48.8266 23.6148 48.8787 23.7705 49.035 24.0819C49.2434 24.3933 49.3476 24.4971 49.3476 24.4971H49.2955C49.0871 24.549 48.4618 24.8085 48.2012 24.9123C48.0449 24.9642 47.8365 25.1199 47.5238 25.2756L48.8266 25.7427L49.035 25.6908L47.7323 25.1718Z" fill="#E6D9CF"/>
<path d="M64.5636 29.9986L62.1666 31.5556C62.1666 31.5556 58.4668 30.4657 56.3824 29.791C55.705 29.5315 55.1839 29.3758 55.0276 29.3239C54.5586 29.0125 54.4023 28.2858 54.4023 28.2858C54.4023 28.2858 54.0375 28.2339 53.0475 28.5453C52.0574 28.8568 51.2757 28.9087 51.2757 28.9087C51.2757 28.9087 51.2757 28.9087 50.8589 28.9606C50.442 29.0125 50.1815 28.9087 50.1815 28.9087C50.1815 28.9087 49.6604 29.3758 48.8787 29.6353C48.0971 29.8948 47.0028 30.5176 46.3775 30.8809C45.7522 31.2442 44.3973 31.1923 43.4594 30.2581C42.9383 29.7391 42.8862 29.2201 42.9383 28.8568C42.9904 28.5972 43.0946 28.4415 43.0946 28.4415V28.3896C43.0946 28.3896 43.1467 28.3377 43.5115 28.0263C43.8762 27.7149 45.0748 27.144 45.0748 27.144C45.0748 27.144 45.7522 26.625 46.3254 26.1579C46.8986 25.7427 47.8365 25.1718 48.1492 25.0161C48.4097 24.9123 49.0872 24.7047 49.2435 24.6009H49.2956C49.5561 24.3414 51.4842 23.6667 51.8489 23.6148C52.1616 23.5629 55.3924 22.7325 55.3924 22.7325H55.5487C55.6008 22.7325 55.705 22.7844 55.8092 22.8363C55.9656 22.9401 56.3303 23.0439 56.7472 23.3034C56.9556 23.4072 57.1641 23.6148 57.3204 23.8224C57.8936 24.4452 58.2063 24.4452 59.0921 25.1718C59.3006 25.3275 59.509 25.5351 59.6653 25.7427C60.1864 26.3655 60.5512 27.0402 60.7596 27.2478C61.0723 27.5592 62.2708 28.0263 62.7919 28.9087C63.313 29.8429 63.7298 29.8948 63.9904 29.9986C64.0425 29.9986 64.0946 30.0505 64.1988 30.0505C64.3551 29.9467 64.4594 29.9986 64.5636 29.9986Z" fill="#EDB992"/>
<path d="M43.0424 29.0124C43.0945 28.7529 43.1987 28.5972 43.1987 28.5972V28.5453C43.1987 28.5453 43.2508 28.4934 43.6156 28.182C43.9804 27.8706 45.1789 27.2997 45.1789 27.2997C45.1789 27.2997 45.8563 26.7807 46.4295 26.3136C47.0027 25.8984 47.9407 25.3275 48.2533 25.1718C48.5139 25.068 49.1913 24.8604 49.3476 24.7566H49.3997C49.6603 24.4971 51.5883 23.8224 51.9531 23.7705C52.2657 23.7186 55.4965 22.8881 55.4965 22.8881H55.6528C55.7049 22.8881 55.8091 22.94 55.9134 22.9919C56.0697 23.0957 56.4345 23.1995 56.8513 23.4591C57.0598 23.5629 57.2682 23.7705 57.4245 23.9781C57.9977 24.6009 58.3104 24.6009 59.1962 25.3275C59.4047 25.4832 59.6131 25.6908 59.7694 25.8984C60.2905 26.5212 60.6553 27.1959 60.8637 27.4035C61.1764 27.7149 62.3749 28.182 62.896 29.0643C63.4171 29.9985 63.834 30.0504 64.0945 30.1542C64.1466 30.1542 64.1987 30.2061 64.2508 30.2061L64.5114 30.0504C64.4072 29.9985 64.3029 29.9985 64.1987 29.9985C64.1466 29.9985 64.0424 29.9466 63.9903 29.9466C63.7297 29.8428 63.3129 29.739 62.7918 28.8567C62.2707 27.9225 61.0722 27.4554 60.7595 27.1959C60.5511 26.9883 60.1863 26.3136 59.6652 25.6908C59.5089 25.4832 59.3005 25.2756 59.092 25.1199C58.2062 24.3414 57.8935 24.3933 57.3203 23.7705C57.1119 23.5629 56.9034 23.4071 56.7471 23.2514C56.3302 22.9919 55.9655 22.8362 55.8091 22.7843C55.7049 22.7324 55.6007 22.6805 55.5486 22.6805H55.3923C55.3923 22.6805 52.2136 23.511 51.8488 23.5629C51.4841 23.6148 49.556 24.3414 49.2955 24.549H49.2434C49.035 24.6009 48.4096 24.8604 48.1491 24.9642C47.8364 25.1199 46.8985 25.6908 46.3253 26.106C45.8042 26.4693 45.1268 26.9883 45.1268 26.9883C45.1268 26.9883 43.9282 27.5592 43.5635 27.8706C43.1987 28.182 43.1466 28.2339 43.1466 28.2339V28.2858C43.1466 28.2858 43.0424 28.4415 42.9903 28.701C42.9382 28.9086 42.9382 29.1162 43.0424 29.4276C43.0424 29.2719 43.0424 29.1162 43.0424 29.0124Z" fill="#E0A175"/>
<path d="M57.4767 29.1682L56.3824 29.7391C55.705 29.4796 55.1839 29.3239 55.0276 29.272C54.5586 28.9606 54.4023 28.2339 54.4023 28.2339C54.4023 28.2339 54.0375 28.182 53.0475 28.4934C52.0574 28.8049 51.2757 28.8568 51.2757 28.8568C51.2757 28.8568 51.2757 28.8568 50.8589 28.9087C50.442 28.9606 50.1815 28.8568 50.1815 28.8568C50.1815 28.8568 49.6604 29.3239 48.8787 29.5834C48.0971 29.8429 47.0028 30.4657 46.3775 30.829C45.7522 31.1923 44.3973 31.1404 43.4594 30.2062C42.9383 29.6872 42.8862 29.1682 42.9383 28.8049C42.9904 28.8049 43.4594 29.0125 44.0847 29.6353C44.7621 30.2581 46.3254 30.4138 47.3676 29.3758C48.4097 28.3896 50.442 26.9883 52.5264 27.0921C54.6107 27.1959 55.8092 26.4174 55.8092 26.4174C55.8092 26.4174 57.112 25.8465 57.581 25.8984C58.0499 26.0022 56.2782 27.3516 56.174 27.8706C56.174 28.4415 57.4767 29.1682 57.4767 29.1682Z" fill="#E0A175"/>
<path d="M56.4346 29.4277C55.7571 29.1682 55.236 29.0125 55.0797 28.9606C54.6107 28.6492 54.4544 27.9226 54.4544 27.9226C54.4544 27.9226 54.0896 27.8707 53.0996 28.1821C52.1095 28.4935 51.3279 28.5454 51.3279 28.5454C51.3279 28.5454 51.3279 28.5454 50.911 28.5973C50.4941 28.6492 50.2336 28.5454 50.2336 28.5454C50.2336 28.5454 49.7125 29.0125 48.9308 29.272C48.1492 29.5315 47.0549 30.1543 46.4296 30.5176C45.8043 30.8809 44.4494 30.829 43.5115 29.8948C43.1467 29.5315 43.0425 29.1682 42.9904 28.8568C42.9383 28.8568 42.9383 28.8568 42.9383 28.8568C42.8862 29.2201 42.9383 29.6872 43.4594 30.2581C44.3973 31.1923 45.7001 31.2961 46.3775 30.8809C47.0549 30.4657 48.0971 29.8948 48.8787 29.6353C49.6604 29.3758 50.1815 28.9087 50.1815 28.9087C50.1815 28.9087 50.4941 29.0125 50.8589 28.9606C51.2757 28.9087 51.2757 28.9087 51.2757 28.9087C51.2757 28.9087 52.0574 28.8568 53.0475 28.5454C54.0375 28.234 54.4023 28.2859 54.4023 28.2859C54.4023 28.2859 54.5586 29.0125 55.0276 29.3239C55.1318 29.3758 55.6529 29.5834 56.3824 29.791L56.7993 29.5834C56.643 29.4796 56.5388 29.4796 56.4346 29.4277Z" fill="#E6D9CF"/>
<path d="M59.7171 25.587C59.6649 26.0541 59.3523 26.4174 59.1439 26.4174C58.727 26.4174 58.4664 26.106 58.1017 25.4313C57.7369 24.7047 56.6426 25.2756 55.1836 25.4313C53.7245 25.587 51.9007 25.6389 50.9627 26.106C49.9726 26.5212 49.1389 26.7807 47.5235 28.1302C45.856 29.4277 45.5955 29.0644 45.5955 29.0644C44.397 28.3378 48.722 25.3794 52.6302 23.9262C54.6625 23.1477 55.861 22.992 56.7468 23.1477C56.9553 23.2515 57.1637 23.4591 57.32 23.6667C57.8932 24.2895 58.2059 24.2895 59.0917 25.0161C59.3523 25.1718 59.5607 25.3794 59.7171 25.587Z" fill="#59361C"/>
<path d="M78.9977 59.3224C78.7371 59.4781 78.4766 59.6338 78.216 59.7895C76.6528 60.6718 75.4542 60.9832 74.5163 61.0351C73.1614 61.1389 72.484 60.6718 72.484 60.6718C72.3277 60.4642 72.2235 60.2566 72.0672 60.049C71.9108 59.8414 71.7545 59.5819 71.5982 59.2705C71.5982 59.2705 71.5982 59.2186 71.5461 59.2186C71.494 59.1148 71.3897 59.011 71.3376 58.8553C71.2855 58.8034 71.2855 58.7515 71.2334 58.6996C71.1292 58.5439 71.025 58.3363 70.9208 58.1806C70.4518 57.4021 69.8786 56.5717 69.4096 55.8451C69.3054 55.6375 69.149 55.4818 69.0448 55.2742C68.7322 54.7552 68.4716 54.3919 68.3153 54.1842C67.3773 52.8348 65.293 49.9284 64.0423 47.4891C62.7917 45.0497 62.6875 44.1155 62.6875 44.1155L63.2086 43.1294L67.1168 36.1747C67.1168 36.1747 69.0448 38.0432 69.5138 38.666C69.9828 39.2888 71.494 40.7939 72.5882 41.6243C73.6825 42.4547 74.5684 43.7522 77.1739 46.2954C79.7793 48.8385 81.6031 50.2398 83.2706 51.6411C85.7719 53.7171 81.082 57.9211 78.9977 59.3224Z" fill="#F1BC95"/>
<path d="M78.216 59.7895C76.6528 60.6718 75.4543 60.9832 74.5163 61.0351C73.1614 61.1389 72.484 60.6718 72.484 60.6718C72.3277 60.4642 72.2235 60.2566 72.0672 60.049C71.9108 59.8414 71.7545 59.5819 71.5982 59.2705C71.5982 59.2705 71.5982 59.2186 71.5461 59.2186C71.494 59.1148 71.3897 59.011 71.3376 58.8553C71.2855 58.8034 71.2855 58.7515 71.2334 58.6996C71.1292 58.5439 71.025 58.3363 70.9208 58.1806C70.3476 57.3502 69.8265 56.5198 69.4096 55.8451C69.3054 55.6375 69.149 55.4818 69.0448 55.2742C68.7322 54.7551 68.4716 54.3918 68.3153 54.1842C67.3773 52.8348 65.293 49.9284 64.0423 47.4891C62.7917 45.0497 62.6875 44.1155 62.6875 44.1155L63.2086 43.1294L67.5858 40.0154C67.5858 40.0673 67.5858 40.0673 67.6379 40.1711C67.7421 40.6382 68.0026 42.0914 67.69 43.4927C67.3252 45.2054 67.8463 46.8663 70.7123 50.9664C72.953 54.1842 76.6528 58.1287 78.216 59.7895Z" fill="#EDB48A"/>
<path d="M74.5163 61.0351C73.1614 61.1389 72.484 60.6718 72.484 60.6718C72.3277 60.4642 72.2235 60.2566 72.0672 60.049C71.9108 59.8414 71.7545 59.5819 71.5982 59.2705C71.5982 59.2705 71.5982 59.2186 71.5461 59.2186C71.494 59.1148 71.3897 59.011 71.3376 58.8553C71.2855 58.8034 71.2855 58.7515 71.2334 58.6996C71.1292 58.5439 71.025 58.3363 70.9208 58.1806C70.3476 57.3502 69.8265 56.5198 69.4096 55.8451C69.3054 55.6375 69.149 55.4818 69.0448 55.2742C68.7322 54.7551 68.4716 54.3918 68.3153 54.1842C67.3773 52.8348 65.293 49.9284 64.0423 47.4891C62.7917 45.0497 62.6875 44.1155 62.6875 44.1155L63.2086 43.1294L67.5858 40.0154C67.5858 40.0673 67.5858 40.0673 67.6379 40.1711C67.6379 40.223 67.6379 40.2749 67.69 40.3787C67.69 40.4825 67.1168 40.7939 67.0647 40.7939C66.5957 41.1053 66.5436 41.3129 66.3873 41.8319C66.2309 42.299 66.0746 42.818 65.9704 43.2851C65.8662 43.6484 65.5535 44.2193 65.5535 44.5826C65.5014 44.7902 65.4493 44.9978 65.3972 45.2054C65.3451 45.6725 65.4493 46.1397 65.5014 46.6587C65.5014 47.0739 65.7098 47.3334 65.9183 47.6967C66.3351 48.4752 66.8041 49.2018 67.2731 49.9284C68.0547 51.174 68.8885 52.3677 69.7222 53.5614C70.3475 54.5994 73.0051 58.6996 74.5163 61.0351Z" fill="#E0A175"/>
<path d="M66.8041 43.6484C66.1267 44.0636 63.7297 46.2953 62.9481 46.7105C62.1664 47.1257 57.8935 50.6031 57.5808 50.8107C57.2682 50.9664 54.7669 50.7069 54.7669 50.7069C54.7669 50.7069 54.7669 50.7069 54.6106 50.7588C54.4543 50.8107 54.2458 50.8626 53.7768 51.0183C52.9952 51.2259 51.953 51.7449 51.2235 51.6411C51.0151 51.6411 50.8066 51.5373 50.6503 51.4335C50.3376 51.174 50.2334 50.7588 50.2334 50.2398C50.2334 49.5651 50.494 48.7347 50.9108 48.1637C51.6404 47.1776 55.6007 46.3472 55.6007 46.3472C55.6007 46.3472 55.9654 45.8801 56.2781 45.5168C56.5907 45.1535 57.2682 44.6345 57.2682 44.6345L57.4245 44.2193C57.4245 44.2193 57.4245 44.1674 57.3724 44.0636C57.3203 43.8041 57.1639 43.1813 57.216 42.818C57.2682 42.3509 57.685 41.3129 57.685 41.3129C57.685 41.3129 58.9878 39.8078 59.3004 38.9773C59.6131 38.1988 62.4791 36.7975 62.6354 36.7456C62.5312 36.7456 61.6453 36.9532 60.8116 36.4861C59.9257 36.019 59.3004 35.1886 59.3004 35.1886C59.3004 35.1886 57.9456 35.1367 57.1639 34.7215C56.4344 34.2544 56.4344 34.2544 56.4344 34.2544L53.829 34.6696C53.7247 34.6696 53.2036 34.8253 52.6825 34.981C52.1615 35.1367 51.8488 34.9291 51.8488 34.9291C51.8488 34.9291 51.3277 35.2405 50.8587 35.4481C50.3897 35.6557 49.0349 36.1747 47.3674 36.5899C45.6999 37.0051 45.0746 36.4861 44.5535 35.8633C44.3451 35.6557 44.293 35.4481 44.293 35.2405C44.293 35.1886 44.293 35.1367 44.293 35.0848C44.293 35.0329 44.293 35.0329 44.293 35.0329C44.293 35.0329 44.293 35.0329 44.293 34.981C44.3451 34.8772 44.3451 34.8253 44.3972 34.7734V34.7215C44.3972 34.7215 44.7098 34.4101 45.1267 34.1506C45.4394 33.943 46.3252 33.4759 46.6379 33.3202C46.69 33.3202 46.69 33.2683 46.7421 33.2683L46.7942 33.1645C46.7942 33.1645 46.8463 33.0607 47.159 32.8012C47.5237 32.4898 49.0349 31.4518 49.3476 31.2961C49.6602 31.1404 51.6404 30.4656 51.6404 30.4656C51.6404 30.4656 53.9853 29.6871 54.6106 29.4276C55.1838 29.1681 55.757 29.0643 56.7992 29.1681C57.8935 29.2719 61.0721 29.7909 61.0721 29.7909C61.0721 29.7909 62.6875 29.7909 64.1466 29.9985C64.355 30.0504 64.6156 30.1023 64.9803 30.258C65.1366 30.3099 65.3451 30.4137 65.5535 30.4656C66.3352 30.829 66.5957 31.6594 66.6999 32.0227C66.6999 32.0746 66.752 32.3341 66.8041 32.6455C66.8041 32.6974 66.8041 32.8012 66.8562 32.905C66.9605 33.7354 67.1689 35.1367 67.3773 36.6418C67.5337 37.7317 67.69 38.8216 67.8463 39.8597C68.4716 43.0775 67.4816 43.1813 66.8041 43.6484Z" fill="#F7C199"/>
<path d="M50.2855 50.4474C50.2855 49.7727 50.5461 48.9423 50.9629 48.3714C51.6925 47.3853 55.6528 46.5548 55.6528 46.5548C55.6528 46.5548 56.0175 46.0877 56.3302 45.7244C56.6428 45.3611 57.3203 44.8421 57.3203 44.8421L57.4766 44.4269C57.4766 44.4269 57.4766 44.375 57.4245 44.2712C57.4245 44.2712 57.4245 44.2193 57.4245 44.1674L57.2681 44.5826C57.2681 44.5826 56.5907 45.1016 56.2781 45.4649C55.9654 45.8282 55.6006 46.2953 55.6006 46.2953C55.6006 46.2953 51.6403 47.1258 50.9108 48.1119C50.4939 48.6828 50.2334 49.5132 50.2334 50.1879C50.2334 50.3955 50.2855 50.5512 50.2855 50.7588C50.2855 50.655 50.2855 50.5512 50.2855 50.4474Z" fill="#E6D9CF"/>
<path d="M44.397 35.4481C44.397 35.3962 44.397 35.3443 44.397 35.2924C44.397 35.2405 44.397 35.2405 44.397 35.2405C44.397 35.2405 44.397 35.2405 44.397 35.1886C44.4491 35.0848 44.4491 35.0329 44.5012 34.981V34.9291C44.5012 34.9291 44.8139 34.6177 45.2308 34.3582C45.5434 34.1506 46.4293 33.6835 46.7419 33.5278C46.794 33.5278 46.794 33.4759 46.8462 33.4759L46.8983 33.3721C46.8983 33.3721 46.9504 33.2683 47.263 33.0088C47.6278 32.6974 49.139 31.6594 49.4516 31.5037C49.7643 31.348 51.7444 30.6733 51.7444 30.6733C51.7444 30.6733 54.0893 29.8948 54.7146 29.6353C55.2878 29.3758 55.861 29.272 56.9032 29.3758C57.9975 29.4796 61.1762 29.9986 61.1762 29.9986C61.1762 29.9986 62.7916 29.9986 64.2506 30.2062C64.4591 30.2581 64.7196 30.31 65.0844 30.4657C65.2407 30.5176 65.4491 30.6214 65.6576 30.6733C66.4392 31.0366 66.6997 31.867 66.804 32.2303C66.804 32.1265 66.7519 32.0227 66.7519 32.0227C66.6476 31.6594 66.3871 30.829 65.6055 30.4657C65.397 30.3619 65.2407 30.31 65.0323 30.2581C64.6675 30.1543 64.4069 30.0505 64.1985 29.9986C62.7916 29.8429 61.1241 29.791 61.1241 29.791C61.1241 29.791 57.8933 29.272 56.8511 29.1682C55.7568 29.0644 55.2357 29.2201 54.6625 29.4277C54.0893 29.6872 51.6923 30.4657 51.6923 30.4657C51.6923 30.4657 49.8164 31.1404 49.5037 31.2442C49.1911 31.3999 47.6799 32.4379 47.3151 32.7493C46.9504 33.0607 46.9504 33.1126 46.9504 33.1126L46.8983 33.2164C46.8983 33.2164 46.8462 33.2683 46.794 33.2683C46.4814 33.424 45.5955 33.8911 45.2829 34.0987C44.866 34.3582 44.5533 34.6696 44.5533 34.6696V34.7734C44.5533 34.8253 44.5012 34.8772 44.4491 34.981C44.4491 34.981 44.4491 34.981 44.4491 35.0329V35.0848C44.4491 35.1367 44.4491 35.1886 44.4491 35.2405C44.3449 35.2924 44.3449 35.3962 44.397 35.4481C44.397 35.5 44.397 35.5 44.397 35.4481Z" fill="#E0A175"/>
<path d="M64.5634 35.9152C64.1987 37.2646 64.6155 39.0293 61.0721 40.3268C58.4667 41.261 57.6329 43.1294 57.3724 44.0117C57.3203 43.7522 57.1639 43.1294 57.216 42.7661C57.2682 42.299 57.685 41.261 57.685 41.261C57.685 41.261 58.9878 39.7559 59.3004 38.9255C59.6131 38.147 62.4791 36.7456 62.6354 36.6937C62.5312 36.6937 61.6453 36.9013 60.8116 36.4342C59.9257 35.9671 59.3004 35.1367 59.3004 35.1367C59.3004 35.1367 57.9456 35.0848 57.1639 34.6696C56.4344 34.2025 56.4344 34.2025 56.4344 34.2025L53.8289 34.6177C53.7247 34.6177 53.2036 34.7734 52.6825 34.9291C52.1615 35.0848 51.8488 34.8772 51.8488 34.8772C51.8488 34.8772 51.3277 35.1886 50.8587 35.3962C50.3897 35.6038 49.0349 36.1228 47.3674 36.538C45.6999 36.9532 45.0746 36.4342 44.5535 35.8114C44.3451 35.6038 44.293 35.3962 44.293 35.1886C44.293 35.1367 44.293 35.0848 44.293 35.0329C44.293 34.981 44.293 34.981 44.293 34.981C44.5535 35.0329 44.8141 35.1367 45.0746 35.1886C45.0746 35.1886 46.3773 36.5899 47.3674 35.9671C48.3054 35.3443 49.4518 35.2924 50.6503 34.5139C51.7967 33.7354 52.1093 33.8911 53.9332 33.4759C55.7049 33.0607 58.0498 32.386 58.5709 32.6455C59.092 32.905 60.551 32.4379 62.3227 32.8012C64.1466 33.2683 64.9282 34.5658 64.5634 35.9152Z" fill="#EDB48A"/>
<path d="M60.8638 36.4861C61.2286 36.6937 61.8539 36.9013 62.6876 36.7456C63.1566 36.4861 62.7398 36.3823 62.844 36.3823C62.7398 36.3823 61.8539 36.5899 61.0202 36.1228C60.1343 35.6557 59.509 34.8253 59.509 34.8253C59.509 34.8253 58.1541 34.7734 57.3725 34.3582C56.5909 33.8911 56.5909 33.8911 56.5909 33.8911L53.9854 34.3063C53.8812 34.3063 53.3601 34.462 52.839 34.6177C52.3179 34.7734 52.0053 34.5658 52.0053 34.5658C52.0053 34.5658 51.4842 34.8772 51.0152 35.0848C50.5462 35.2924 49.1914 35.8114 47.5239 36.2266C45.8564 36.6418 45.2311 36.1228 44.71 35.5C44.5537 35.3443 44.5015 35.1886 44.4494 35.0848C44.3973 35.0848 44.3452 35.0848 44.3452 35.0329V35.0848C44.3452 35.1367 44.3452 35.1886 44.3452 35.2405C44.3452 35.3962 44.3973 35.6557 44.6058 35.8633C45.1269 36.4342 45.7522 36.9532 47.4197 36.5899C49.0872 36.1747 50.442 35.6557 50.911 35.4481C51.38 35.2405 51.901 34.9291 51.901 34.9291C51.901 34.9291 52.2137 35.1367 52.7348 34.981C53.2038 34.8772 53.777 34.7215 53.8812 34.6696L56.4867 34.2544C56.4867 34.2544 56.4867 34.2544 57.2162 34.7215C57.9978 35.1886 59.3527 35.1886 59.3527 35.1886C59.3527 35.1886 59.978 35.9671 60.8638 36.4861Z" fill="#E6D9CF"/>
<path d="M61.2286 39.9635C58.6752 40.8977 57.7894 42.7142 57.5288 43.6484C57.8936 42.6623 58.8315 41.1572 61.1243 40.3268C63.365 39.4964 63.9903 38.5103 64.303 37.5242C63.9382 38.4065 63.1566 39.2369 61.2286 39.9635Z" fill="#EDB48A"/>
<path d="M57.3724 42.4028C57.4245 42.1952 57.4766 41.8319 57.5808 41.5205C57.4766 41.8319 57.2682 42.4547 57.2161 42.7661C57.1639 43.1294 57.3203 43.7522 57.3724 44.0117C57.4245 43.9079 57.4245 43.7522 57.5287 43.6484C57.4766 43.3889 57.3203 42.7661 57.3724 42.4028Z" fill="#EDB48A"/>
<path d="M66.8041 43.6484C66.1267 44.0636 63.7297 46.2954 62.948 46.7106C62.1664 47.1258 57.8934 50.6031 57.5808 50.8107C57.2681 50.9664 54.7669 50.7069 54.7669 50.7069C54.7669 50.7069 54.7669 50.7069 54.6106 50.7588C54.4542 50.8107 54.2458 50.8626 53.7768 51.0183C52.9952 51.2259 51.953 51.7449 51.2235 51.6411C51.015 51.6411 50.8066 51.5373 50.6503 51.4335C50.3376 51.174 50.2334 50.7588 50.2334 50.2398C50.2334 50.2398 50.9629 51.4854 51.6925 51.2778C52.4741 51.0702 54.7148 49.5651 54.7148 49.5651C54.7148 49.5651 55.4443 48.8904 56.5386 49.4094C57.685 49.9284 58.0498 49.7208 59.1962 48.6828C60.3426 47.6448 62.1664 46.6587 63.1044 45.465C64.0423 44.2712 65.0324 43.9079 65.4493 42.6623C65.8661 41.4167 66.4393 41.5724 66.3872 38.9774C66.3351 36.3823 65.6056 35.0329 66.5436 33.6316C66.752 33.3202 66.8562 33.0088 66.9083 32.6455C67.0125 33.4759 67.221 34.981 67.4294 36.6419C67.5857 37.7318 67.7421 38.8217 67.8984 39.8597C68.4716 43.0775 67.4815 43.1813 66.8041 43.6484Z" fill="#EDB48A"/>
<path d="M67.6898 42.5066C67.5334 42.7661 67.3771 42.9737 67.1687 43.0775C67.1166 43.1294 67.0645 43.1813 67.0124 43.2332C66.9081 43.337 66.8039 43.3889 66.6997 43.3889C66.6476 43.3889 66.6476 43.4408 66.5955 43.4408C65.9181 43.856 63.521 46.0877 62.7394 46.5029C61.9578 46.9181 57.6848 50.3955 57.3721 50.6031C57.0595 50.7588 54.5582 50.4993 54.5582 50.4993C54.5582 50.4993 54.5582 50.4993 54.4019 50.5512C54.2456 50.6031 54.0372 50.655 53.5682 50.8107C52.7865 51.0183 51.7444 51.5373 51.0148 51.4335C50.8064 51.4335 50.598 51.3297 50.4416 51.2259C50.3895 51.174 50.3895 51.1221 50.3374 51.1221C50.3895 51.2259 50.4937 51.3816 50.5979 51.4335C50.7543 51.5892 50.9627 51.6411 51.1711 51.6411C51.9007 51.7449 52.9429 51.2259 53.7245 51.0183C54.1935 50.8626 54.4019 50.8107 54.5582 50.7588C54.7146 50.7069 54.7146 50.7069 54.7146 50.7069C54.7146 50.7069 57.2158 50.9664 57.5285 50.8107C57.8411 50.655 62.1141 47.1257 62.8957 46.7105C63.6774 46.2953 66.0744 44.0636 66.7518 43.6484C67.2208 43.337 67.8982 43.1813 68.0024 41.8838C67.9503 42.0914 67.8461 42.299 67.6898 42.5066Z" fill="#E6D9CF"/>
<path d="M66.9606 32.8012C66.6479 33.424 65.5536 32.905 64.8241 32.6454C63.7298 32.2302 60.6554 31.296 59.1442 31.1403C57.633 30.9846 56.643 31.815 54.5065 32.1783C52.37 32.5416 51.3278 32.2302 49.8688 33.5278C48.4097 34.8253 46.7943 35.5 46.7943 35.5C45.7521 35.1886 45.2832 34.8772 48.1492 33.0088C51.0152 31.1403 53.0995 30.9327 55.3402 30.258C57.5809 29.5833 58.0499 30.0504 62.1144 30.6213C63.7298 30.8808 64.6157 30.4656 65.1368 30.1542C65.2931 30.2061 65.5015 30.3099 65.71 30.3618C66.4916 30.7251 66.7521 31.5555 66.8564 31.9188C66.8564 31.9707 66.9085 32.2302 66.9606 32.5416C66.9606 32.6454 66.9606 32.6973 66.9606 32.8012Z" fill="#59361C"/>
<path d="M54.7147 47.1257C54.7147 47.1257 51.5882 48.008 51.2234 49.0979C50.8587 50.1878 51.3276 50.7588 52.2656 49.8245C53.2036 48.8903 54.8189 48.7346 55.5485 48.7346C56.278 48.7346 57.3202 49.7726 58.2582 48.9941C59.2482 48.2156 59.613 47.0219 61.2284 45.8801C62.8438 44.7383 64.0423 43.9598 64.2507 42.5066C64.4591 41.0533 63.6775 39.8077 62.479 40.3786C61.2805 40.9495 60.6552 40.3267 59.9778 42.4547C59.3003 44.5307 57.9976 46.97 57.3723 46.8143C56.6949 46.6586 55.4964 46.8662 54.7147 47.1257Z" fill="#59361C"/>
<path d="M56.747 34.4101L56.278 45.0497C56.278 45.5168 56.0175 45.932 55.6527 46.1396L48.8264 50.3436L39.2904 56.1564C39.2383 56.2083 39.1341 56.1564 39.0299 56.1045C38.7694 56.0007 38.5088 55.7931 38.4046 55.7412C38.2483 55.6374 38.144 55.4817 38.144 55.2741V43.5965C38.144 43.1294 38.4046 42.7142 38.7694 42.5066L51.953 34.9291C52.0051 34.981 52.3177 35.1367 52.7867 34.981C52.9952 34.9291 53.1515 34.8772 53.3599 34.8253C53.6205 34.7734 53.881 34.6696 53.9331 34.6696L56.5386 34.2544C56.4865 34.2544 56.4865 34.2544 56.747 34.4101Z" fill="url(#paint2_linear)"/>
<path d="M56.8511 34.462V45.3611C56.8511 45.8282 56.5906 46.2434 56.2258 46.451L48.8784 50.655L39.4988 56.0526C39.3946 56.1045 39.3425 56.1045 39.2382 56.1045C39.134 56.1045 39.0819 56.1045 38.9777 56.0526C38.9777 56.0526 38.9777 56.0526 38.9256 56.0526C38.8735 56.0526 38.8735 56.0007 38.8214 56.0007C38.7171 55.8969 38.665 55.7931 38.665 55.6374V43.9598C38.665 43.4927 38.9256 43.0775 39.2904 42.8699L45.4392 39.3407L53.2556 34.8253C53.5162 34.7734 53.7767 34.6696 53.8288 34.6696L56.4343 34.2544C56.4343 34.2544 56.4343 34.2544 56.6948 34.4101C56.7469 34.4101 56.799 34.4101 56.8511 34.462Z" fill="#B40E00"/>
<path d="M48.8786 50.7069L39.4989 56.1045C39.1342 56.3121 38.7173 56.0526 38.7173 55.6374V43.9598C38.7173 43.4927 38.9778 43.0775 39.3426 42.8699L45.4915 39.3406L47.0026 44.375L47.1069 44.7383L48.2012 48.3713L48.3054 48.6827L48.8786 50.7069Z" fill="#C73500"/>
<path d="M40.2806 50.7588C40.1242 50.7588 40.02 50.655 40.02 50.4993V49.5132C40.02 49.3056 40.1242 49.0979 40.3327 48.9941L41.8438 48.1118C41.8959 48.1118 41.9481 48.0599 42.0002 48.0599C42.1565 48.0599 42.2607 48.1637 42.2607 48.3194V49.3055C42.2607 49.5132 42.1565 49.7208 41.9481 49.8246L40.4369 50.7069C40.3848 50.7588 40.3327 50.7588 40.2806 50.7588Z" fill="#F8D868"/>
<path d="M40.3854 50.6555L41.8966 49.7732C42.0529 49.6694 42.1571 49.5137 42.1571 49.3061V48.32C42.1571 48.1643 41.9487 48.0605 41.8445 48.1124L40.3333 48.9947C40.177 49.0985 40.0728 49.2542 40.0728 49.4618V50.4479C40.0728 50.6555 40.2291 50.7593 40.3854 50.6555Z" fill="#D4A43F"/>
<path d="M41.5834 49.0979C41.5834 48.9422 41.5834 48.8384 41.5313 48.7346C41.5313 48.7346 41.5313 48.7346 41.5313 48.6827C41.4271 48.6827 41.3229 48.7346 41.1666 48.7865V48.527L41.1144 48.5789V48.8384C41.0102 48.8903 40.906 48.9941 40.8018 49.046L40.7497 49.0979V49.1498C40.7497 49.3055 40.6976 49.4093 40.6976 49.565L40.0723 49.9283V49.9803L40.6976 49.6169C40.6976 49.7726 40.6976 49.8765 40.7497 49.9803C40.7497 49.9803 40.7497 49.9803 40.7497 50.0322C40.8539 50.0322 40.9581 49.9803 41.1144 49.8764V50.136L41.1666 50.0841V49.8246C41.3229 49.7207 41.4271 49.6169 41.5313 49.5131V49.4612V49.4093C41.5313 49.2536 41.5834 49.1498 41.5834 48.9941L42.2087 48.6308V48.5789L41.5834 49.0979ZM41.1144 49.9283C41.0102 49.9802 40.906 50.0322 40.8018 50.0322C40.8018 49.9284 40.7497 49.7726 40.7497 49.6169L41.1144 49.4093V49.9283ZM41.1144 49.3574L40.7497 49.565C40.7497 49.4093 40.7497 49.2536 40.8018 49.0979C40.906 48.9941 41.0102 48.9422 41.1144 48.8384V49.3574ZM41.4792 49.6688C41.375 49.7726 41.2708 49.8245 41.1666 49.9283V49.4612L41.5313 49.2536C41.5313 49.3574 41.4792 49.5131 41.4792 49.6688ZM41.1666 49.3574V48.8903C41.2708 48.8384 41.375 48.7865 41.4792 48.7865C41.5313 48.8903 41.5313 49.046 41.5313 49.2017L41.1666 49.3574Z" fill="#F8D868"/>
<path d="M45.5959 45.6206L43.251 46.97V46.5029L45.5959 45.1535V45.6206Z" fill="#F2EDC9"/>
<path d="M44.0326 51.693V52.0044L40.0723 54.288V53.9766L44.0326 51.693Z" fill="#F2EDC9"/>
<path d="M53.4643 41.1053L51.5884 42.1433V41.7281L53.4643 40.6382V41.1053Z" fill="#E0D99B"/>
<path d="M55.757 36.2266L51.3799 38.7698V37.6798L55.757 35.1367V36.2266Z" fill="#E0D99B"/>
<path d="M51.0152 42.5066L48.9829 43.6484V43.2332L51.0152 42.0395V42.5066Z" fill="#E0D99B"/>
<path d="M48.9829 47.9043V48.2676L47.1069 49.3056V48.9942L48.9829 47.9043Z" fill="#E0D99B"/>
<path d="M48.2533 48.6827L47.1069 49.3056V48.9941L48.2012 48.3713L48.2533 48.6827Z" fill="#F2EDC9"/>
<path d="M52.266 46.0358V46.3991L49.2437 48.1119V47.7486L52.266 46.0358Z" fill="#E0D99B"/>
<path d="M54.7146 43.856C54.923 43.7003 55.1836 43.6484 55.3399 43.7522C55.5483 43.8041 55.7047 44.0117 55.7568 44.2713C55.8089 44.5827 55.7568 44.946 55.5483 45.2574C55.4441 45.465 55.2357 45.6726 55.0794 45.8283C54.6104 46.1397 54.1414 45.984 54.0372 45.4131C53.933 44.8422 54.2456 44.1674 54.7146 43.856Z" fill="#368BEC"/>
<path d="M46.1689 44.8421V45.3092L48.4096 44.0117V43.5446L46.1689 44.8421Z" fill="#E0D99B"/>
<path d="M47.1069 44.7383L46.1689 45.3092V44.8421L46.9506 44.375L47.1069 44.7383Z" fill="#F2EDC9"/>
<path d="M54.5585 50.7069C54.4022 50.7588 54.1937 50.8107 53.7247 50.9664C52.9431 51.174 51.9009 51.693 51.1714 51.5892C51.4319 51.5892 51.7967 51.1221 51.953 50.8626C52.1094 50.5512 52.5262 50.2398 52.7868 50.136C53.0473 50.0322 53.9332 49.7727 53.9332 49.7727C53.9332 49.7727 54.4543 49.4094 54.6106 49.9284C54.7669 50.4474 54.5585 50.7069 54.5585 50.7069Z" fill="#CF2F1D"/>
<path d="M47.1069 35.0329C46.5337 35.3443 46.3774 35.8633 45.1789 35.2405C44.8141 35.0848 44.6057 34.9291 44.5015 34.8253C44.5015 34.7734 44.5536 34.7734 44.5536 34.7734V34.7215C44.5536 34.7215 44.8662 34.4101 45.2831 34.1506C45.6479 33.8911 46.7422 33.3721 46.8985 33.2683C46.8985 33.2683 47.628 33.0088 48.0449 33.424C48.4096 33.7873 47.6801 34.6696 47.1069 35.0329Z" fill="#CF2F1D"/>
<path d="M46.6899 26.6769C46.2209 26.4693 45.4393 26.8326 45.3351 26.8326L43.1986 28.182C43.1465 28.2339 43.1465 28.2858 43.1465 28.2858C43.1465 28.2858 43.407 28.2858 43.6155 28.3896C43.8239 28.4934 44.345 28.8049 45.0224 29.0644C45.6477 29.3239 46.1167 28.753 46.4294 28.3896C46.742 28.0263 47.1589 26.8845 46.6899 26.6769Z" fill="#CF2F1D"/>
<path d="M48.0446 19.3071C47.6278 19.359 47.0546 19.2033 46.7419 18.6324C46.4293 18.1134 46.3771 17.6462 45.335 17.5943C45.335 17.5943 45.4392 17.3348 46.0645 17.3867C46.325 17.4386 46.6377 17.5943 46.8982 17.8019L47.8362 18.5805C47.9404 18.7362 48.4094 19.3071 48.0446 19.3071Z" fill="#CF2F1D"/>
<path d="M46.2729 17.0234C45.856 16.9715 45.1264 16.2968 44.8659 15.9335C44.6575 15.5702 44.2406 15.6221 44.1885 15.6221C44.1885 15.6221 44.2406 15.5702 44.2406 15.5183C44.3448 15.4145 44.5532 15.4145 44.5532 15.4145C44.5532 15.4145 44.918 15.5183 45.3349 15.9335C45.7518 16.3487 45.9602 16.6082 46.1686 16.8677C46.1686 16.9715 46.2207 17.0234 46.2729 17.0234Z" fill="#CF2F1D"/>
<path d="M57.7371 41.5205C57.7371 41.5205 59.0399 40.0154 59.3525 39.185C59.6652 38.4065 62.5312 37.0051 62.6875 36.9532C62.6354 36.9532 63.0002 36.4861 62.8438 36.4861C62.7396 36.4861 62.2185 37.0052 62.0622 37.0052C61.1764 37.4723 59.5089 38.4065 59.3004 38.9774C58.9878 39.8078 57.685 41.3129 57.685 41.3129C57.685 41.3129 57.2682 42.3509 57.2161 42.818C57.1639 43.1813 57.3203 43.8041 57.3724 44.0636C57.3203 43.7522 57.2161 43.337 57.2682 43.0256C57.3724 42.5585 57.7371 41.5205 57.7371 41.5205Z" fill="#E0A175"/>
<path d="M16.0496 67.6264L0 58.3362L7.9206 53.769L23.9702 63.1111L16.0496 67.6264Z" fill="url(#paint3_linear)"/>
<path d="M22.0423 70.9999L5.99268 61.7097V56.1564L22.0944 65.4466L22.0423 70.9999Z" fill="#ABABAB"/>
<path d="M22.0944 65.4466L5.99268 56.1564L13.9133 51.6411L30.015 60.9313L22.0944 65.4466Z" fill="#EBEBEB"/>
<path d="M30.0152 60.9313L22.0946 65.4466L22.0425 71L29.9631 66.4846L30.0152 60.9313Z" fill="#C9C9C9"/>
<path d="M19.593 62.644L9.95277 57.0387C9.58801 56.8311 9.58801 56.2602 9.95277 56.0526L14.0694 53.7171C14.5905 53.4576 15.1637 53.4576 15.6848 53.7171L25.3771 59.3743C25.7419 59.5819 25.7419 60.1528 25.3771 60.3604L21.3126 62.6959C20.7915 62.9554 20.1662 62.9554 19.593 62.644Z" fill="#F17976"/>
<path d="M9.8485 56.3121C9.90061 56.2602 9.95272 56.2083 10.0048 56.1564L14.1214 53.8209C14.5904 53.5614 15.1636 53.5614 15.5805 53.8209L25.2728 59.4781C25.377 59.53 25.4291 59.6338 25.4813 59.7376C25.5334 59.8414 25.4813 59.9971 25.4291 60.049C25.377 60.1009 25.3249 60.1528 25.2728 60.2047L21.2083 62.5402C20.7393 62.7997 20.114 62.7997 19.645 62.5402L10.0048 56.9349C9.90061 56.883 9.8485 56.7792 9.79639 56.6754C9.79639 56.5197 9.79639 56.4159 9.8485 56.3121Z" fill="#C9C9C9"/>
<path d="M10.057 56.3121C10.057 56.2602 10.1091 56.2602 10.1612 56.2083L14.2778 53.8728C14.6947 53.6652 15.1637 53.6652 15.5806 53.8728L25.2729 59.53C25.325 59.5819 25.3771 59.6338 25.4292 59.6857C25.4292 59.7376 25.4292 59.8414 25.3771 59.8933C25.3771 59.9452 25.325 59.9452 25.2729 59.9971L21.2084 62.3326C20.7915 62.5921 20.2183 62.5921 19.8014 62.3326L10.1612 56.7273C10.1091 56.6754 10.057 56.6235 10.0049 56.5716C10.0049 56.4678 10.0049 56.364 10.057 56.3121Z" fill="#E0E0E0"/>
<path d="M22.8237 61.4503L25.325 60.0489C25.3771 59.997 25.4292 59.997 25.4292 59.9451C25.4813 59.8932 25.4813 59.7894 25.4813 59.7375C25.4813 59.6856 25.4292 59.5818 25.325 59.5818L15.6326 53.9247C15.2158 53.6652 14.7468 53.6652 14.3299 53.9247L12.0371 55.2222L22.8237 61.4503Z" fill="#DBDBDB"/>
<path d="M15.685 54.3917L23.7619 59.1147L19.2805 61.6578L11.2036 56.9348L15.685 54.3917Z" fill="#C9C9C9"/>
<path d="M11.4116 56.9349L15.6846 54.4956L23.5531 59.1148L19.2801 61.5541L11.4116 56.9349Z" fill="#63C7E0"/>
<path d="M13.1836 55.8969L15.6848 54.4956L23.5533 59.1148L21.1042 60.5161L13.1836 55.8969Z" fill="#47BDDA"/>
<path d="M12.7144 55.5855L13.4439 55.1703C13.496 55.1703 13.5481 55.1703 13.6002 55.1703C13.6523 55.2222 13.6523 55.2741 13.6002 55.2741L12.8707 55.6893C12.8186 55.6893 12.7665 55.6893 12.7144 55.6893C12.7144 55.6374 12.7144 55.5855 12.7144 55.5855Z" fill="#818181"/>
<path d="M22.9278 60.3604C22.6151 60.2047 22.094 60.2047 21.7814 60.3604C21.4687 60.5161 21.4687 60.8275 21.7814 61.0351C22.094 61.1908 22.6151 61.1908 22.9278 61.0351C23.2404 60.8275 23.2404 60.568 22.9278 60.3604Z" fill="#F4857C"/>
<path d="M22.3547 61.087C22.5631 61.087 22.7715 61.0351 22.9279 60.9313C23.0321 60.8794 23.1363 60.7756 23.1363 60.6718C23.1363 60.568 23.0842 60.5161 22.98 60.4123C22.8236 60.3085 22.6673 60.2566 22.4589 60.2566C22.2504 60.2566 22.042 60.3085 21.8857 60.4123C21.7815 60.4642 21.6772 60.568 21.6772 60.6718C21.6772 60.7756 21.7294 60.8275 21.8336 60.9313C21.9378 61.0351 22.1462 61.087 22.3547 61.087Z" fill="#BFBFBF"/>
<path d="M22.5109 60.7237C22.6151 60.6718 22.7193 60.568 22.7193 60.4642C22.7193 60.4123 22.7193 60.3604 22.6672 60.3604C22.563 60.3604 22.5109 60.3085 22.4066 60.3085C22.1982 60.3085 21.9898 60.3604 21.8334 60.4642C21.7292 60.5161 21.625 60.6199 21.625 60.7237C21.625 60.7756 21.625 60.8275 21.6771 60.8275C21.7813 60.8275 21.8334 60.8794 21.9377 60.8794C22.1461 60.8794 22.3545 60.8275 22.5109 60.7237Z" fill="#D3D3D3"/>
<path d="M12.7667 55.2741C12.8188 55.2741 12.8709 55.2741 12.8709 55.2222C12.923 55.2222 12.923 55.1703 12.923 55.1703C12.923 55.1703 12.923 55.1184 12.8709 55.1184C12.8188 55.1184 12.8188 55.0665 12.7667 55.0665C12.7146 55.0665 12.6625 55.0665 12.6625 55.1184C12.6104 55.1184 12.6104 55.1703 12.6104 55.1703C12.6104 55.1703 12.6104 55.2222 12.6625 55.2222C12.7146 55.2741 12.7667 55.2741 12.7667 55.2741Z" fill="#8895C7"/>
<path d="M12.7665 55.2222H12.8186C12.8186 55.2222 12.8186 55.2222 12.8186 55.1703C12.8186 55.1703 12.8186 55.1703 12.8186 55.1184H12.7665H12.7144C12.7144 55.1184 12.7144 55.1184 12.7144 55.1703C12.7144 55.1703 12.7144 55.1703 12.7144 55.2222C12.7665 55.2222 12.7665 55.2222 12.7665 55.2222Z" fill="#98B3E6"/>
<path d="M9.27546 60.5161V61.9693L8.80648 61.7098V61.4503C8.70226 61.606 8.54594 61.606 8.3375 61.4503C8.02484 61.2427 7.81641 60.8794 7.81641 60.4642C7.81641 60.049 8.02484 59.9452 8.38961 60.1528L8.80648 60.3604V60.3085C8.80648 60.1009 8.70226 59.8933 8.49383 59.7894C8.38961 59.7375 8.18117 59.6857 8.02484 59.6857L7.86852 59.1147C8.12906 59.1147 8.3375 59.1147 8.59804 59.2704C9.06703 59.5818 9.27546 59.9971 9.27546 60.5161ZM8.80648 60.9313V60.7237L8.49383 60.568C8.3375 60.4642 8.28539 60.5161 8.28539 60.6718C8.28539 60.8275 8.38961 60.9832 8.49383 61.0351C8.65015 61.1389 8.75437 61.087 8.80648 60.9313Z" fill="#5E5E5E"/>
<path d="M12.1935 62.2807V63.682L11.7245 63.4225V62.2288C11.7245 61.9693 11.6203 61.7617 11.464 61.6579C11.3076 61.5541 11.1513 61.7098 11.1513 62.0212V63.1111L10.6823 62.8516V61.6579C10.6823 61.3984 10.5781 61.1908 10.4218 61.087C10.2133 60.9832 10.1091 61.1389 10.1091 61.4503V62.5402L9.64014 62.2807V60.049L10.1091 60.3085V60.6718C10.2133 60.4642 10.3697 60.4642 10.6302 60.568C10.8908 60.7237 11.0471 60.9832 11.1513 61.3465C11.2555 61.087 11.464 61.0351 11.6724 61.1389C11.985 61.2946 12.1935 61.7617 12.1935 62.2807Z" fill="#5E5E5E"/>
<path d="M13.9132 63.163V64.6163L13.4442 64.3567V64.0972C13.34 64.2529 13.1836 64.2529 12.9752 64.0972C12.6625 63.8896 12.4541 63.5263 12.4541 63.1111C12.4541 62.6959 12.6625 62.5921 13.0273 62.7997L13.4442 63.0073V62.9554C13.4442 62.7478 13.34 62.5402 13.1315 62.4364C13.0273 62.3845 12.8189 62.3326 12.6625 62.3326L12.5062 61.7617C12.7668 61.7617 12.9752 61.7617 13.2357 61.9174C13.6526 62.2288 13.9132 62.6959 13.9132 63.163ZM13.3921 63.5782V63.3706L13.0794 63.2149C12.9231 63.1111 12.871 63.163 12.871 63.3187C12.871 63.4744 12.9752 63.6301 13.0794 63.682C13.2357 63.7858 13.3921 63.7858 13.3921 63.5782Z" fill="#5E5E5E"/>
<path d="M14.7469 64.5643L15.5285 65.0314V65.5504L14.1216 64.72V64.3048L14.9032 63.4744L14.1737 63.0592V62.5402L15.5285 63.3187V63.7339L14.7469 64.5643Z" fill="#5E5E5E"/>
<path d="M16.3102 63.163C16.3102 63.3706 16.2059 63.4744 16.0496 63.3706C15.8933 63.2668 15.7891 63.0592 15.7891 62.8516C15.7891 62.644 15.8933 62.5402 16.0496 62.644C16.1538 62.7478 16.3102 62.9554 16.3102 63.163ZM15.7891 65.7061V63.4744L16.258 63.7339V65.9656L15.7891 65.7061Z" fill="#5E5E5E"/>
<path d="M18.186 65.758V67.1593L17.717 66.8998V65.7061C17.717 65.4466 17.6128 65.239 17.4564 65.1352C17.3001 65.0314 17.1438 65.1352 17.1438 65.3947V66.5884L16.6748 66.277V64.0453L17.1438 64.3567V64.72C17.248 64.5124 17.4043 64.5124 17.6649 64.6162C17.9775 64.7719 18.186 65.239 18.186 65.758Z" fill="#5E5E5E"/>
<path d="M20.0098 67.9897C20.0098 68.6125 19.6971 68.8201 19.176 68.5087C18.9155 68.353 18.6549 68.0935 18.4986 67.834L18.6549 67.4707C18.8113 67.6783 18.9676 67.8859 19.1239 67.9897C19.3845 68.1454 19.4887 68.0416 19.4887 67.7302V67.5226C19.3845 67.6783 19.2281 67.6783 19.0197 67.5745C18.6549 67.3669 18.3423 66.7441 18.3423 66.1213C18.3423 65.4985 18.6028 65.239 19.0197 65.4466C19.2281 65.5504 19.3845 65.758 19.4887 66.0175V65.758L19.9577 66.0175L20.0098 67.9897ZM19.4887 66.7441C19.4887 66.4327 19.3845 66.1213 19.176 66.0175C18.9676 65.9137 18.8634 66.0694 18.8634 66.3808C18.8634 66.6922 19.0197 67.0036 19.176 67.1074C19.3845 67.2112 19.4887 67.0555 19.4887 66.7441Z" fill="#5E5E5E"/>
<path d="M29.4939 64.4606L26.7842 65.9657V67.7303L29.4417 66.2252L29.4939 64.4606Z" fill="white"/>
<path d="M29.1814 64.8757L29.0771 64.9276V66.1213L29.1814 66.0694V64.8757Z" fill="#818181"/>
<path d="M28.9729 65.0314L28.8687 65.0833V66.277L28.9729 66.1732V65.0314Z" fill="#818181"/>
<path d="M28.7644 65.1353L28.6602 65.1872V66.3809L28.7644 66.329V65.1353Z" fill="#818181"/>
<path d="M28.5041 65.2909L28.3999 65.3428V66.5365L28.5041 66.4327V65.2909Z" fill="#818181"/>
<path d="M28.2956 65.3948L28.1914 65.4467V66.6404L28.2956 66.5885V65.3948Z" fill="#818181"/>
<path d="M28.0871 65.4985L27.9829 65.6023V66.7961L28.0871 66.6923V65.4985Z" fill="#818181"/>
<path d="M27.8785 65.6543L27.7222 65.7062V66.8999L27.8264 66.848L27.8785 65.6543Z" fill="#818181"/>
<path d="M27.6179 65.7581L27.5137 65.8619V67.0556L27.6179 66.9518V65.7581Z" fill="#818181"/>
<path d="M27.4099 65.9137L27.3057 65.9656V67.1593L27.4099 67.1074V65.9137Z" fill="#818181"/>
<path d="M27.2012 66.0176L27.0449 66.1214V67.3151L27.1491 67.2113L27.2012 66.0176Z" fill="#818181"/>
<path d="M26.4716 64.9276V65.1871L26.2632 65.291V64.9795C26.1069 65.0314 26.0027 65.0314 25.8984 64.9795L26.0027 64.6681C26.1069 64.72 26.2632 64.72 26.3674 64.6681C26.4716 64.6162 26.5237 64.5643 26.5237 64.4605C26.5237 64.2529 25.9505 64.6681 26.0027 64.201C26.0027 63.9934 26.1069 63.7858 26.3153 63.682V63.4225L26.5237 63.3187V63.5782C26.628 63.5263 26.7843 63.5263 26.8364 63.5263L26.7322 63.8377C26.628 63.8377 26.4716 63.8377 26.4195 63.8896C26.3674 63.9415 26.3153 63.9934 26.3153 64.0453C26.3153 64.2529 26.8364 63.8377 26.8364 64.3048C26.7843 64.6162 26.6801 64.8238 26.4716 64.9276Z" fill="#818181"/>
<path d="M27.3577 63.8896V63.6301L27.6182 63.4744V63.7339L27.7745 63.6301V63.8896L27.6182 63.9934V64.2529L27.3577 64.4086V64.0972L26.8887 64.3567V64.1491L27.2013 63.163L27.4619 63.0073L27.1492 63.9415L27.3577 63.8896Z" fill="#818181"/>
<path d="M28.1392 62.9555V63.1631L28.2434 63.1112C28.5039 62.9555 28.6603 63.0593 28.6082 63.2669C28.6082 63.5264 28.4518 63.7859 28.1913 63.9416C28.035 63.9935 27.8786 64.0454 27.7744 63.9935L27.8786 63.6821C27.9307 63.734 28.035 63.734 28.1392 63.6821C28.2434 63.6302 28.2955 63.5264 28.2955 63.4226C28.2955 63.3188 28.2434 63.3188 28.1392 63.3707C28.0871 63.4226 27.9307 63.4745 27.8786 63.5264V62.7998L28.5561 62.4365V62.696L28.1392 62.9555Z" fill="#818181"/>
<path d="M29.6504 62.4883C29.6504 62.9036 29.494 63.215 29.1814 63.4226C28.8687 63.5783 28.7124 63.4226 28.7124 63.0074C28.7124 62.5921 28.8687 62.2807 29.1814 62.0731C29.494 61.9174 29.6504 62.0731 29.6504 62.4883ZM29.0251 62.8517C29.0251 63.1631 29.0772 63.215 29.2335 63.1631C29.3377 63.1112 29.4419 62.9555 29.4419 62.644C29.4419 62.3326 29.3898 62.2807 29.2335 62.3326C29.0772 62.3845 29.0251 62.5402 29.0251 62.8517Z" fill="#818181"/>
<path d="M23.2927 66.329V66.6404L23.3969 66.5885C23.7096 66.3809 23.918 66.4847 23.918 66.7961C23.918 67.1594 23.7096 67.5227 23.3448 67.7303C23.1364 67.8341 22.9279 67.886 22.8237 67.8341L22.9801 67.4189C23.0843 67.5227 23.1885 67.5227 23.3448 67.4189C23.5011 67.3151 23.5533 67.2113 23.5533 67.0556C23.5533 66.8999 23.5011 66.8999 23.3448 66.9518C23.2927 67.0037 23.0322 67.1075 22.9801 67.1594V66.1733L23.918 65.6543V66.0176L23.2927 66.329Z" fill="#818181"/>
<path d="M24.439 65.4986C24.439 65.5505 24.439 65.6024 24.3869 65.7062L24.2305 66.0695L24.0742 66.1733L24.1784 65.8619C24.1263 65.8619 24.1263 65.81 24.1263 65.7581C24.1263 65.6543 24.1784 65.4986 24.2827 65.4467C24.3348 65.3429 24.439 65.3948 24.439 65.4986ZM24.8037 65.291C24.8037 65.3429 24.8037 65.3948 24.7516 65.4986L24.5953 65.8619L24.439 65.9657L24.5432 65.6543C24.4911 65.6543 24.4911 65.6024 24.4911 65.5505C24.4911 65.4467 24.5432 65.291 24.6474 65.2391C24.7516 65.1353 24.8037 65.1872 24.8037 65.291Z" fill="#818181"/>
<path d="M23.8138 68.1454L22.8237 68.6644V69.9619L23.8138 69.4429V68.1454Z" fill="#8190FF"/>
<path d="M25.1688 67.3669L24.1787 67.9378V69.1835L25.1688 68.6645V67.3669Z" fill="#BF907A"/>
<path d="M26.5238 66.5884L25.5337 67.1593V68.4568L26.5238 67.8859V66.5884Z" fill="#819031"/>
<defs>
<linearGradient id="paint0_linear" x1="4.09439" y1="23.7503" x2="30.82" y2="70.2264" gradientUnits="userSpaceOnUse">
<stop stop-color="#CFC2BA"/>
<stop offset="0.5494" stop-color="#BAAEA8"/>
<stop offset="0.9156" stop-color="#B3A7A1"/>
</linearGradient>
<linearGradient id="paint1_linear" x1="57.6806" y1="31.7902" x2="72.7174" y2="57.9392" gradientUnits="userSpaceOnUse">
<stop stop-color="#CFC2BA"/>
<stop offset="0.5494" stop-color="#BAAEA8"/>
<stop offset="0.9156" stop-color="#B3A7A1"/>
</linearGradient>
<linearGradient id="paint2_linear" x1="54.6124" y1="31.4439" x2="39.5121" y2="57.7033" gradientUnits="userSpaceOnUse">
<stop offset="0.0640023" stop-color="#F58D62"/>
<stop offset="0.0645455" stop-color="#F58D62"/>
<stop offset="0.6263" stop-color="#F58D62"/>
<stop offset="0.6267" stop-color="#E6845C"/>
<stop offset="0.9258" stop-color="#E6845C"/>
<stop offset="0.9262" stop-color="#EB875E"/>
</linearGradient>
<linearGradient id="paint3_linear" x1="7.95692" y1="53.7376" x2="15.9847" y2="67.698" gradientUnits="userSpaceOnUse">
<stop stop-color="#CFC2BA"/>
<stop offset="0.5494" stop-color="#BAAEA8"/>
<stop offset="0.9156" stop-color="#B3A7A1"/>
</linearGradient>
</defs>
</svg>
