<svg width="45" height="80" viewBox="0 0 45 80" fill="none" xmlns="http://www.w3.org/2000/svg">
<g clip-path="url(#clip0)">
<path d="M17.2969 78.5289C19.8984 80 23.1328 80.07 25.7344 78.5289L29.9531 76.077L41.5547 69.4221C43.9453 68.021 43.9453 64.5884 41.5547 63.2574L26.0859 54.2207C25.4531 53.8704 24.8203 53.5902 24.1875 53.4501C22.0078 52.8196 19.6172 53.0998 17.6484 54.2207L16.8047 54.711L1.75781 63.3275C-0.632812 64.7285 -0.632812 68.1611 1.75781 69.4921L17.2969 78.5289Z" fill="url(#paint0_linear)"/>
<path d="M44.9297 5.53417C44.9297 5.81438 44.7188 5.88443 44.4375 5.88443V60.4554C44.4375 64.0981 42.4687 67.3906 39.375 69.2119L22.3594 78.9492C22.2187 79.0193 22.0781 79.0893 22.0078 79.1594L23.2734 79.93C23.2734 79.93 22.9219 80 22.3594 80C21.5859 80 20.8125 79.7899 20.1094 79.3695L17.6484 77.9685L17.1562 77.6883C16.8047 77.4781 16.5234 77.1979 16.3125 76.8476C15.8203 76.007 15.6797 75.3765 15.6797 75.3765C15.5391 74.9562 15.3984 74.5359 15.3984 74.0455V73.9755V18.2837V17.1629C15.3984 14.1506 17.0156 11.3485 19.6172 9.87742L35.4375 0.770594C35.7891 0.560436 36.0703 0.350279 36.4922 0.280226C36.5625 0.280226 36.7031 0.210173 37.0547 0.140121C37.0547 0.140121 37.125 0.140121 37.1953 0.140121C37.3359 0.140121 37.5469 0.0700684 37.7578 0.0700684C37.8281 0.0700684 37.9688 0.0700684 38.1094 0.0700684C38.1797 0.0700684 38.25 0.0700684 38.3203 0.0700684C38.4609 0.0700684 39.0234 0.140121 39.1641 0.210173L40.0078 0.700541L43.3125 2.59196C44.2266 3.36254 44.9297 4.41333 44.9297 5.53417Z" fill="url(#paint1_linear)"/>
<path d="M45 61.2259V61.8564C45 65.4991 43.0312 68.7916 39.9375 70.613L24.5391 79.4396C21.8672 80.9807 18.4922 79.0193 18.4922 75.937V18.7741C18.4922 15.6217 20.1797 12.7496 22.9219 11.1384L38.25 2.31174C41.0625 0.700535 44.5078 2.5219 44.9297 5.60421C45 5.74432 45 5.95447 45 6.16463V61.2259Z" fill="#C5F3FE"/>
<path d="M44.5078 62.8371C44.5078 65.8494 42.8906 68.6515 40.2891 70.1226L36.0703 72.5744L24.4687 79.2294C22.0781 80.6305 19.125 78.8792 19.125 76.1471V19.3345C19.125 18.634 19.1953 17.9334 19.4062 17.303C19.9687 15.1313 21.375 13.1699 23.4141 12.049L24.2578 11.5587L39.1641 2.87215C41.5547 1.4711 44.5078 3.22241 44.5078 5.95446V62.8371Z" fill="#17353D"/>
<path d="M33.5391 73.6252L24.8906 78.5989C22.5 80 19.5469 79.1594 19.5469 75.5166V19.4746C19.5469 18.7741 19.6172 18.0736 19.8281 17.4431C20.3906 15.2715 21.7969 13.31 23.8359 12.1891L24.6797 11.6988L31.3594 7.84589L33.5391 73.6252Z" fill="#2C8AA3"/>
<path d="M43.875 60.1752L20.25 73.6953V22.1367L43.8047 8.61652C43.8047 8.75662 43.8047 8.96678 43.8047 9.10688L43.875 60.1752Z" fill="#04060D"/>
<path d="M44.2266 59.965L19.8984 73.9055V21.0858L44.1562 7.14539C44.1562 7.28549 44.2266 7.49565 44.2266 7.70581V59.965Z" fill="#04060D"/>
<path d="M43.875 59.8249L20.25 73.345V21.7864L43.8047 8.26624C43.8047 8.40634 43.8047 8.6165 43.8047 8.7566L43.875 59.8249Z" fill="#DBEDFF"/>
<path d="M20.25 73.345L33.2578 65.9194L31.5 15.3415L20.25 21.7863V73.345Z" fill="#E9F3F7"/>
<path d="M40.0078 0.63052C39.8672 0.63052 39.7969 0.63052 39.6563 0.63052C38.3906 0.63052 37.4063 0.840678 37.4063 0.840678C37.0547 0.91073 36.6328 1.05084 36.2812 1.26099L20.4609 10.3678C17.8594 11.8389 16.2422 14.641 16.2422 17.6533V18.7741V74.4659V74.5359C16.2422 75.0263 16.3125 75.4466 16.5234 75.867C16.5234 75.867 16.7344 76.9177 17.5781 78.0386L17.1563 77.8284C16.7344 77.6183 16.4531 77.268 16.1719 76.9177C15.75 76.1472 15.6094 75.5167 15.6094 75.5167C15.4688 75.0964 15.3281 74.6761 15.3281 74.1857V74.1156V18.4239V17.303C15.3281 14.2908 16.9453 11.4887 19.5469 10.0176L35.3672 0.91073C35.7188 0.700573 36 0.490415 36.4219 0.420363C36.5625 0.420363 36.7734 0.35031 36.9844 0.280258C36.9844 0.280258 37.0547 0.280258 37.125 0.280258C37.2656 0.280258 37.4766 0.210205 37.6875 0.210205C37.7578 0.210205 37.8984 0.210205 38.0391 0.210205C38.1094 0.210205 38.1797 0.210205 38.25 0.210205C38.3906 0.210205 38.9531 0.280258 39.0938 0.35031L40.0078 0.63052Z" fill="#E8E7E3"/>
<path d="M30.6562 11.2785C30.3047 11.0683 30.3047 10.4378 30.6562 9.80736C31.0078 9.17689 31.5703 8.89668 31.9219 9.10684C32.2734 9.317 32.2734 9.94747 31.9219 10.5779C31.5703 11.1384 31.0078 11.4886 30.6562 11.2785Z" fill="#DEE5E4"/>
<path d="M30.8672 11.2084C31.1484 11.2084 31.5703 10.9282 31.8516 10.4378C32.2031 9.87739 32.2031 9.31697 31.8516 9.10681C31.7812 9.10681 31.7109 9.10681 31.6406 9.10681C31.3594 9.10681 30.9375 9.38702 30.7266 9.87739C30.5859 10.1576 30.4453 10.4378 30.4453 10.718C30.4453 10.9982 30.5156 11.1383 30.6562 11.2084C30.7266 11.2084 30.7969 11.2084 30.8672 11.2084Z" fill="#245153"/>
<path d="M30.7969 10.7881C31.0078 10.7881 31.2891 10.5779 31.4297 10.2977C31.6406 9.94744 31.6406 9.52713 31.4297 9.38702C31.3594 9.38702 31.3594 9.38702 31.2891 9.38702C31.0781 9.38702 30.7969 9.59718 30.6562 9.87739C30.5859 10.0876 30.5156 10.2277 30.5156 10.4378C30.5156 10.5779 30.5859 10.718 30.6562 10.7881C30.7266 10.7881 30.7969 10.7881 30.7969 10.7881Z" fill="#439995"/>
<path d="M31.0781 10.648C31.2187 10.648 31.3594 10.5079 31.5 10.3678C31.6406 10.1576 31.6406 9.87743 31.5 9.80737H31.4297C31.2891 9.80737 31.1484 9.94748 31.0078 10.0876C30.9375 10.2277 30.9375 10.2977 30.9375 10.4378C30.9375 10.5079 30.9375 10.648 31.0078 10.648C31.0078 10.648 31.0078 10.648 31.0781 10.648Z" fill="#63C2BD"/>
<path d="M33.8906 10.5779L29.3203 13.31C29.1094 13.4501 29.0391 13.6603 29.0391 13.8704V13.9405C29.0391 14.0806 29.1797 14.2207 29.3203 14.0806L33.8906 11.4186C34.1016 11.2785 34.1719 11.0683 34.1719 10.8582V10.7881C34.2422 10.718 34.0313 10.5079 33.8906 10.5779Z" fill="#006873"/>
<path d="M33.8203 10.648L29.3203 13.2399C29.1094 13.38 29.0391 13.5201 29.0391 13.8003V13.8704C29.0391 14.0105 29.25 14.0105 29.3906 13.9404L33.8906 11.3485C34.1016 11.2084 34.1719 11.1383 34.1719 10.9282V10.8581C34.1016 10.648 33.9609 10.5779 33.8203 10.648Z" fill="#04060D"/>
<path d="M33.8203 10.7881L29.3203 13.38C29.25 13.4501 29.1797 13.5201 29.1797 13.6602C29.1797 13.7303 29.25 13.7303 29.3203 13.6602L33.8203 11.0683C33.8906 10.9982 33.9609 10.9982 33.9609 10.8581C33.9609 10.7881 33.8906 10.7881 33.8203 10.7881Z" fill="#435B61"/>
<path d="M30.0937 74.1156C29.6719 74.1156 29.3203 73.275 29.3203 72.8547V72.6445C29.3203 72.0841 29.6016 71.1734 30.0937 70.8932L35.2969 67.881C35.4375 67.8109 35.5078 67.8109 35.6484 67.8109C36.0703 67.8109 36.4219 68.5114 36.4219 68.8617V69.0719C36.4219 69.6323 36.1406 70.6831 35.6484 70.9633L30.4453 73.9755C30.375 74.1156 30.2344 74.1156 30.0937 74.1156Z" fill="#04060D"/>
<path d="M35.4375 68.0211L30.2344 71.0334C29.7422 71.3136 29.3906 72.2243 29.3906 72.7847C29.3906 73.275 29.9531 74.1157 30.4453 73.9055L35.6484 70.8933C36.1406 70.613 36.4922 69.5623 36.4922 68.9318C36.4922 68.4414 35.9297 67.7409 35.4375 68.0211Z" fill="url(#paint2_linear)"/>
<path d="M36.4219 68.9318C36.4219 69.4922 36.1406 70.473 35.6484 70.7532L30.4453 73.7654C30.375 73.7654 30.375 73.7654 30.3047 73.7654C29.8828 73.7654 29.5312 73.135 29.5312 72.7146C29.5312 72.1542 29.8125 71.3136 30.3047 71.0334L33.5391 69.212L35.5078 68.0912C35.5781 68.0912 35.5781 68.0211 35.6484 68.0211C36 68.0211 36.4219 68.5115 36.4219 68.9318Z" fill="url(#paint3_linear)"/>
<path d="M32.9766 72.3644L30.4453 73.8355C30.375 73.8355 30.375 73.8355 30.3047 73.8355C29.8828 73.8355 29.5312 73.205 29.5312 72.7847C29.5312 72.2243 29.8125 71.3836 30.3047 71.1034L33.0469 69.5623V72.3644H32.9766Z" fill="#2A788C"/>
<path d="M22.1483 10.5779C21.9373 10.648 21.6561 10.648 21.4451 10.648C21.3748 10.648 21.3748 10.648 21.3045 10.648C21.0233 10.5779 20.8123 10.4378 20.8123 10.2277C20.742 9.87741 21.1639 9.45709 21.7967 9.24693C22.0076 9.17688 22.1483 9.17688 22.3592 9.17688C22.7811 9.17688 23.0623 9.31698 23.1326 9.59719C23.203 9.94746 22.7811 10.4378 22.1483 10.5779Z" fill="url(#paint4_linear)"/>
<path d="M22.9215 9.52716C22.7106 9.317 22.2887 9.317 21.8668 9.38705C21.3043 9.52716 20.9528 9.87742 21.0231 10.1576C21.0231 10.2277 21.0934 10.2277 21.0934 10.2977C21.3043 10.5079 21.7262 10.5079 22.1481 10.4378C22.4293 10.3678 22.6403 10.2277 22.7809 10.0876C22.9215 9.94747 22.9918 9.80737 22.9918 9.66726C22.9918 9.66726 22.9215 9.59721 22.9215 9.52716Z" fill="url(#paint5_linear)"/>
<path d="M22.3594 9.17688C22.3594 9.31699 22.3594 9.66725 22.3594 9.80735C22.3594 10.1576 22.1484 10.4378 21.5156 10.5079H21.5859C21.6563 10.5079 21.6562 10.5079 21.7266 10.5079C21.8672 10.5079 22.0078 10.5079 22.2187 10.5079C22.8516 10.3678 23.2734 9.94746 23.1328 9.52714C23.0625 9.38704 22.7812 9.17688 22.3594 9.17688Z" fill="#C4C2B8"/>
<path d="M42.8906 36.8477V43.2925C42.8906 44.6235 42.1875 45.8844 40.9922 46.5149L26.3672 54.9212C25.3125 55.5517 23.9062 54.7811 23.9062 53.5202V47.0753C23.9062 45.7443 24.6094 44.4834 25.8047 43.8529L40.4297 35.4466C41.5547 34.8161 42.8906 35.5867 42.8906 36.8477Z" fill="#96BBE0"/>
<path d="M41.9062 36.007V42.4518C41.9062 43.7828 41.2031 45.0438 40.0078 45.6743L33.3281 49.5272L25.3828 54.0806C24.3281 54.711 22.9219 53.9405 22.9219 52.6795V46.2347C22.9219 44.9037 23.625 43.6427 24.8203 43.0123L32.9062 38.3188L39.375 34.606C40.5 33.9755 41.9062 34.7461 41.9062 36.007Z" fill="#C94100"/>
<path d="M33.3281 49.5272L25.3828 54.0806C24.3281 54.7111 22.9219 53.9405 22.9219 52.6796V46.2347C22.9219 44.9037 23.625 43.6428 24.8203 43.0123L32.9063 38.3188L33.3281 49.5272Z" fill="#FF6419"/>
<path d="M26.2266 44.6235L27.8437 43.7129C28.5469 43.3626 28.9688 43.2225 29.3203 43.2925C29.6016 43.4326 29.8125 43.7829 29.8125 44.4134C29.8125 44.8337 29.7422 45.254 29.6016 45.6043C29.4609 45.9545 29.25 46.3048 28.9688 46.515V46.585C29.3203 46.4449 29.6016 46.515 29.7422 46.7251C29.8828 46.9353 29.9531 47.2155 29.9531 47.7059C29.9531 48.3363 29.8125 48.9668 29.4609 49.5272C29.1797 50.0876 28.6875 50.508 28.1953 50.7882L26.2266 51.909V44.6235ZM27.3516 46.8652L27.9141 46.515C28.1953 46.3749 28.3359 46.1647 28.4766 45.9545C28.5469 45.7444 28.6172 45.4642 28.6172 45.184C28.6172 44.9037 28.5469 44.6936 28.4766 44.6235C28.3359 44.5535 28.1953 44.6235 27.9141 44.7636L27.4219 45.0439V46.8652H27.3516ZM27.3516 47.9861V50.0176L27.9844 49.6673C28.2656 49.5272 28.4062 49.3171 28.5469 49.1069C28.6875 48.8967 28.7578 48.5465 28.7578 48.1962C28.7578 47.5657 28.4766 47.3556 27.9844 47.7059L27.3516 47.9861Z" fill="#E9F3F7"/>
<path d="M34.7344 39.7198V44.3433C34.7344 45.1839 34.5938 45.9545 34.2422 46.585C33.8906 47.2155 33.3984 47.7759 32.7656 48.1262C32.1328 48.4764 31.6406 48.5465 31.2891 48.2663C30.9375 47.9861 30.7969 47.4256 30.7969 46.585V42.0316L31.9922 41.3311V46.0246C31.9922 46.9353 32.2734 47.2155 32.8359 46.9353C33.1172 46.7952 33.2578 46.585 33.3984 46.2347C33.5391 45.9545 33.6094 45.5342 33.6094 45.1139V40.3503L34.7344 39.7198Z" fill="#E9F3F7"/>
<path d="M37.4063 40.9808L38.25 37.6883L39.5156 36.9878L37.9688 42.1717V45.0438L36.7734 45.7444V42.9423L35.2266 39.5097L36.4922 38.8092L37.4063 40.9808Z" fill="#E9F3F7"/>
<path d="M40.1484 19.6147L24.6797 28.5114V29.9125L40.1484 21.0858V19.6147Z" fill="#96BBE0"/>
<path d="M40.1484 24.7986L24.6797 33.6953V34.2557L40.1484 25.3591V24.7986Z" fill="#96BBE0"/>
<path d="M40.1484 26.4799L24.6797 35.3765V35.937L40.1484 27.1103V26.4799Z" fill="#96BBE0"/>
<path d="M40.1484 28.1612L24.6797 37.0579V37.6183L40.1484 28.7917V28.1612Z" fill="#96BBE0"/>
<path d="M30.0937 64.3783L22.9922 68.4414V60.1051L30.0234 56.0421C30.0234 56.1121 30.0234 56.1121 30.0234 56.1822L30.0937 64.3783Z" fill="#63A1E0"/>
<path d="M41.9062 57.6533L34.8047 61.7163V53.3801L41.9062 49.317C41.9062 49.3871 41.9062 49.3871 41.9062 49.4571V57.6533Z" fill="#7DB3E9"/>
<path d="M43.875 13.7303L20.25 27.2505V21.7864L43.875 8.26624V13.7303Z" fill="#C94100"/>
<path d="M23.7656 21.0157V21.4361L21.3047 22.8371V22.4168L23.7656 21.0157Z" fill="#E9F3F7"/>
<path d="M23.7656 22.2067V22.627L21.3047 24.028V23.6077L23.7656 22.2067Z" fill="#E9F3F7"/>
<path d="M23.7656 23.3975V23.8879L21.3047 25.2189V24.7986L23.7656 23.3975Z" fill="#E9F3F7"/>
<path d="M40.6406 69.5622L36.4219 72.014L33.4687 73.6953L24.8203 78.669C22.4297 80.0701 19.4766 79.2294 19.4766 75.5867V19.5447C19.4766 18.8441 19.5469 18.1436 19.7578 17.5131C20.3203 15.3415 21.7266 13.38 23.7656 12.2592L24.6094 11.7688L31.2891 7.91594L39.5859 3.15237C40.7109 2.52189 42.0469 2.52189 43.0312 3.08232C41.9766 2.38179 40.5 2.17163 39.2344 2.94221L24.1875 11.4886L23.3438 11.979C21.3047 13.1699 19.8984 15.0613 19.3359 17.2329C19.1953 17.8634 19.0547 18.5639 19.0547 19.2645V76.0771C19.0547 78.8091 22.0078 80.5604 24.3984 79.1594L36 72.5044L40.2187 70.0525C41.5547 69.282 42.6797 68.1611 43.3828 66.8301C42.75 67.951 41.8359 68.8617 40.6406 69.5622Z" fill="#132C33"/>
</g>
<defs>
<linearGradient id="paint0_linear" x1="10.4013" y1="46.8965" x2="27.0739" y2="75.8815" gradientUnits="userSpaceOnUse">
<stop stop-color="#CFC2BA"/>
<stop offset="0.819" stop-color="#B3A7A1"/>
</linearGradient>
<linearGradient id="paint1_linear" x1="50.8753" y1="2.85242" x2="8.47896" y2="76.5575" gradientUnits="userSpaceOnUse">
<stop offset="0.0591807" stop-color="#61CDE0"/>
<stop offset="0.0614459" stop-color="#68DBEF"/>
<stop offset="0.2942" stop-color="#68DBEF"/>
<stop offset="0.2943" stop-color="#5FCADD"/>
<stop offset="0.3538" stop-color="#5FCADD"/>
<stop offset="0.3542" stop-color="#57BAC9"/>
</linearGradient>
<linearGradient id="paint2_linear" x1="33.3625" y1="71.7571" x2="32.4026" y2="69.6878" gradientUnits="userSpaceOnUse">
<stop offset="0.0352941" stop-color="#292A31"/>
<stop offset="1" stop-color="#BABCC2"/>
</linearGradient>
<linearGradient id="paint3_linear" x1="35.8062" y1="69.2878" x2="28.1286" y2="73.7794" gradientUnits="userSpaceOnUse">
<stop offset="0.0509804" stop-color="#1B4651"/>
<stop offset="1" stop-color="#2C8AA3"/>
</linearGradient>
<linearGradient id="paint4_linear" x1="21.0099" y1="9.91537" x2="23.7482" y2="9.91537" gradientUnits="userSpaceOnUse">
<stop offset="0.1261" stop-color="#ECF1F0"/>
<stop offset="0.1272" stop-color="#FAFFFE"/>
<stop offset="0.4378" stop-color="#FAFFFE"/>
<stop offset="0.4407" stop-color="#D9DDDC"/>
<stop offset="0.8367" stop-color="#D9DDDC"/>
<stop offset="0.8387" stop-color="#BFC3C1"/>
</linearGradient>
<linearGradient id="paint5_linear" x1="21.145" y1="9.96512" x2="23.1033" y2="9.96512" gradientUnits="userSpaceOnUse">
<stop offset="0.1261" stop-color="#B7C7C6"/>
<stop offset="0.1272" stop-color="#C5D5D4"/>
<stop offset="0.4378" stop-color="#C5D5D4"/>
<stop offset="0.4407" stop-color="#A6B3B1"/>
<stop offset="0.8367" stop-color="#A6B3B1"/>
<stop offset="0.8387" stop-color="#8E9997"/>
</linearGradient>
<clipPath id="clip0">
<rect width="45" height="80" fill="white"/>
</clipPath>
</defs>
</svg>
