<svg width="88" height="76" viewBox="0 0 88 76" fill="none" xmlns="http://www.w3.org/2000/svg">
<path d="M62.4516 59.0762C60.7619 59.0762 59.275 59.3459 57.9908 59.7504L56.977 59.211L76.6452 47.8835L48.7312 31.634L0 59.683L27.7788 75.9326L51.5699 62.2452L53.3948 63.2566C53.192 63.7285 52.9892 64.1331 52.8541 64.6725C52.1782 67.7067 50.2181 70.0665 55.6928 71.9545C55.7604 71.9545 72.1167 65.0096 72.1167 61.9081C72.1843 58.8739 67.8587 59.0762 62.4516 59.0762Z" fill="url(#paint0_linear)"/>
<path d="M58.7343 70.2688C55.5577 70.2688 53.4624 70.4037 53.6652 68.718C53.3273 70.4037 53.4624 72.0893 57.315 72.0893C62.7896 72.0893 73.8741 65.6839 73.8741 62.6497V61.7732C73.8741 64.8748 64.209 70.2688 58.7343 70.2688Z" fill="url(#paint1_linear)"/>
<path d="M73.874 61.9081C73.874 65.0097 62.7895 71.3477 57.3149 71.3477C51.8402 71.3477 53.9355 67.6393 54.6113 64.6051C55.2872 61.5035 58.6666 59.0088 64.1413 59.0088C69.5484 59.0762 73.874 58.8065 73.874 61.9081Z" fill="#E6EFEC"/>
<path d="M64.2765 61.7058L59.0722 64.6725L55.0845 62.38L60.2888 59.3459L64.2765 61.7058Z" fill="#B9C9C2"/>
<path d="M65.9661 61.908L60.8294 64.9422L59.9507 64.6051L59.1396 62.5149V55.4352L64.4791 53.2101V59.9527C64.4115 59.9527 64.4115 61.7058 65.9661 61.908Z" fill="#C7D6D0"/>
<path d="M59.1396 55.7723V62.1103L64.0736 59.211L64.4115 59.0088V53.4799L59.1396 55.7723Z" fill="#A6B3AE"/>
<path d="M58.4639 53.345L59.2749 52.873L59.4777 61.9755C59.4777 63.4589 59.8156 64.4028 60.8295 65.0096L60.7619 65.6839L59.0722 64.6725C58.8018 64.1331 58.7342 63.324 58.7342 62.1778L58.4639 53.345Z" fill="#96A7A0"/>
<path d="M60.6943 65.6165L65.4931 62.7846L65.831 62.5823L65.9662 61.9081L60.8295 64.9422L60.6943 65.6165Z" fill="#CBDAD4"/>
<path d="M85.2291 0.550787L39.2691 73.1007L38.7284 72.8984L35.8896 28.465L84.6884 0.348511L85.2291 0.550787Z" fill="#E6EFEC"/>
<path d="M88.0001 44.9842L65.5607 57.9299L39.2013 73.1007L36.4302 28.6672L60.424 14.845L85.1614 0.550781L88.0001 44.9842Z" fill="#CBDAD4"/>
<path d="M65.5607 57.93L39.2013 73.1007L36.4302 28.6673L60.424 14.845L65.5607 57.93Z" fill="#D6E6DF"/>
<path d="M86.5131 41.4107L64.9525 53.817L40.2151 68.1112L37.7144 29.0718L60.5592 15.9238L84.0124 2.37128L86.5131 41.4107Z" fill="#17353D"/>
<path d="M64.9524 53.817L40.2151 68.1112L37.7144 29.0718L60.5592 15.9238L64.9524 53.817Z" fill="#2C8AA3"/>
<path d="M85.4318 38.444L40.8235 64.2006L38.6606 29.7461L83.2689 4.05695L85.4318 38.444Z" fill="#04060D"/>
<path d="M84.9587 38.3765L41.229 63.5937L39.1338 29.8135L82.8634 4.66376L84.9587 38.3765Z" fill="#E82200"/>
<path d="M41.229 63.5937L64.547 50.176L60.6945 17.3398L39.1338 29.8135L41.229 63.5937Z" fill="#FF4545"/>
<path d="M36.4303 28.6672L39.2014 73.1007C39.2014 73.1007 38.8635 73.2355 38.6607 72.8984C33.9971 65.1445 35.8896 28.465 35.8896 28.465L36.4303 28.6672Z" fill="#96A7A0"/>
<path d="M35.8894 28.465C35.7542 30.0158 34.8756 64.9422 38.5253 72.6287C36.2949 60.627 35.8894 32.0385 35.8894 28.465Z" fill="#737D7D"/>
<defs>
<linearGradient id="paint0_linear" x1="0" y1="53.8137" x2="76.5454" y2="53.8137" gradientUnits="userSpaceOnUse">
<stop stop-color="#CFC2BA"/>
<stop offset="0.5494" stop-color="#BAAEA8"/>
<stop offset="0.9156" stop-color="#B3A7A1"/>
</linearGradient>
<linearGradient id="paint1_linear" x1="53.5244" y1="66.9328" x2="73.8486" y2="66.9328" gradientUnits="userSpaceOnUse">
<stop offset="0.1613" stop-color="#97A6A2"/>
<stop offset="0.1633" stop-color="#B7C9C5"/>
<stop offset="0.5593" stop-color="#B7C9C5"/>
<stop offset="0.5622" stop-color="#C3D6D1"/>
<stop offset="0.8728" stop-color="#C3D6D1"/>
<stop offset="0.8739" stop-color="#B5C7C3"/>
</linearGradient>
</defs>
</svg>
