<svg width="103" height="86" viewBox="0 0 103 86" fill="none" xmlns="http://www.w3.org/2000/svg">
<g clip-path="url(#clip0)">
<path d="M83.3 44.7L36.3 72L0 51L47 23.7L83.3 44.7Z" fill="url(#paint0_linear)"/>
<path d="M52.3002 43.3L47.5002 45.9L11.2002 25L15.9002 22.4L52.3002 43.3Z" fill="url(#paint1_linear)"/>
<path d="M49.8998 63.2999L43.5998 69.1999L60.1998 78.3L57.2998 82.5999L37.0998 71L33.7998 54.7L49.8998 63.2999Z" fill="#B81200"/>
<path d="M92.6002 66.9L65.6002 82.7C63.4002 84 60.8002 84 58.6002 82.7L41.5002 72.8C39.6002 71.7 39.6002 69 41.5002 67.9L68.5002 52.1C70.7002 50.8 73.3002 50.8 75.5002 52.1L92.5002 62C94.4002 63.1 94.4002 65.8 92.6002 66.9Z" fill="#C42912"/>
<path d="M93.2 62.5L76.5 52.7L91.7 43.5L97.6 43.1L93.2 62.5Z" fill="#A60000"/>
<path d="M64.2997 84.3C63.2997 84.9 62.0997 85.2 60.7997 85.2C59.5997 85.2 58.3997 84.9 57.3997 84.3L56.3997 68.5L56.1997 65.2H64.1997V68.4L64.2997 84.3Z" fill="#B81200"/>
<path d="M34.9998 70.4C34.9998 70.7 35.0998 71.4 35.7998 71.8L36.4998 72.2L32.0998 49.6C31.7998 49.4 31.5998 49.2 31.2998 49L30.2998 49.1L34.9998 70.4Z" fill="#A81C00"/>
<path d="M57.6998 46.7V47.0999L57.4998 50.0999C57.4998 50.7999 57.0998 51.3999 56.4998 51.7999L55.3998 52.4C55.0998 52.6 54.8998 52.6 54.5998 52.5C54.5998 52.4 54.5998 52.3999 54.4998 52.2999C54.4998 52.1999 54.4998 52.1 54.4998 52L54.8998 46.9L53.4998 47L52.4998 47.0999L52.2998 51.5999L49.3998 50L49.4998 47.4L47.9998 47.5999H46.9998V48.5999L45.4998 47.7L41.4998 48.0999L31.2998 49L30.2998 49.0999L30.4998 49.9L30.6998 50.7999L31.3998 54.2L34.9998 70.4C34.9998 70.7 35.0998 71.4 35.7998 71.8L36.4998 72.1999L57.3998 84.3L56.9998 78.6999L56.2998 68.5L56.0998 65.5V65.1999L56.7998 58.9L56.9998 56.9L57.2998 54.5999L57.4998 52.4L58.0998 47.0999V46.7H57.6998ZM40.3998 71.5C40.1998 71.5 39.8998 71.5 39.6998 71.3L38.5998 70.6999C37.9998 70.3999 37.5998 69.7999 37.5998 69.0999L35.4998 57.5999C35.4998 57.3999 35.4998 57.2 35.5998 57C35.7998 57 36.0998 57 36.2998 57.2L37.3998 57.7999C37.9998 58.0999 38.3998 58.7 38.3998 59.4L40.4998 70.9C40.5998 71.1 40.4998 71.2999 40.3998 71.5ZM45.6998 74.5999C45.4998 74.5999 45.1998 74.6 44.9998 74.5L43.8998 73.8C43.2998 73.5 42.8998 72.7999 42.8998 72.0999L41.2998 61C41.2998 60.8 41.2998 60.6 41.3998 60.4C41.5998 60.4 41.8998 60.4 42.0998 60.5L43.1998 61.0999C43.7998 61.4999 44.1998 62.0999 44.1998 62.7999L45.7998 74C45.8998 74.2 45.7998 74.3999 45.6998 74.5999ZM50.9998 77.5999C50.7998 77.5999 50.4998 77.6 50.2998 77.5L49.0998 76.8C48.4998 76.4 48.0998 75.7999 48.0998 75L46.9998 64.1999C46.9998 63.9999 46.9998 63.8 47.0998 63.7C47.2998 63.7 47.5998 63.6999 47.7998 63.7999L48.9998 64.5C49.5998 64.9 49.9998 65.5 49.9998 66.3L51.0998 77.0999C51.1998 77.2999 51.0998 77.3999 50.9998 77.5999ZM56.4998 80.1999C56.4998 80.3999 56.4998 80.4999 56.3998 80.6999C56.1998 80.6999 55.8998 80.6999 55.6998 80.5999L54.4998 79.9C53.7998 79.5 53.3998 78.7999 53.4998 78.0999L52.8998 67.5999C52.8998 67.3999 52.8998 67.2999 52.9998 67.0999C53.1998 67.0999 53.4998 67.0999 53.6998 67.1999L54.8998 67.9C55.5998 68.3 55.8998 69 55.8998 69.8L56.4998 80.1999Z" fill="#A60000"/>
<path d="M36.4998 72.2L35.7998 71.8C35.0998 71.4 34.9998 70.7 34.9998 70.4L31.3998 54.1L30.2998 49.1L31.2998 49C31.5998 49.2 31.7998 49.4 32.0998 49.6L33.1998 55.1L36.4998 72.2Z" fill="#8F0000"/>
<path d="M67.9999 77.6L67.7999 67.6C67.7999 66.8 68.1999 66.1001 68.7999 65.8001L69.9999 65.1C70.0999 65.1 70.1999 65 70.2999 65C70.3999 65 70.4999 65 70.5999 65C70.6999 65 70.6999 65 70.7999 65C70.7999 65.1 70.8999 65.3001 70.8999 65.4001L71.0999 75.4001C71.0999 76.2001 70.6999 76.9001 70.0999 77.3001L68.8999 78C68.5999 78.1 68.3999 78.2 68.0999 78.1C67.9999 77.9 67.9999 77.8 67.9999 77.6ZM73.2999 74.5L73.3999 64.3001C73.3999 63.6001 73.7999 62.9 74.3999 62.5L75.5999 61.8C75.6999 61.7 75.7999 61.7001 75.8999 61.7001C75.9999 61.7001 76.0999 61.7001 76.1999 61.7001C76.2999 61.7001 76.3999 61.7001 76.4999 61.7001C76.4999 61.8001 76.5999 62 76.5999 62.1L76.4999 72.3001C76.4999 73.0001 76.0999 73.7 75.4999 74.1L74.2999 74.8001C73.8999 75.0001 73.5999 75 73.3999 75C73.2999 74.9001 73.2999 74.7001 73.2999 74.5ZM78.5999 71.9001C78.5999 71.8001 78.5999 71.8 78.5999 71.7C78.5999 71.6 78.5999 71.5001 78.5999 71.4001L78.9999 61C78.9999 60.3 79.3999 59.6 79.9999 59.3L81.0999 58.6C81.1999 58.6 81.2999 58.5 81.3999 58.5C81.4999 58.5 81.5999 58.5 81.5999 58.5C81.6999 58.5 81.7999 58.5 81.8999 58.5C81.8999 58.6 81.9999 58.8 81.9999 59L81.5999 69.4001C81.5999 70.1001 81.1999 70.8 80.5999 71.1L79.4999 71.8001C79.1999 71.9001 78.8999 72.0001 78.5999 71.9001ZM83.8999 68.8001C83.8999 68.7001 83.8999 68.7 83.8999 68.6C83.8999 68.5 83.8999 68.4001 83.8999 68.3001L84.6999 57.6C84.6999 56.9 85.0999 56.3 85.6999 56L86.7999 55.4001C86.8999 55.3001 86.9999 55.3 87.0999 55.3C87.1999 55.3 87.2999 55.3 87.3999 55.3C87.4999 55.3 87.5999 55.3 87.5999 55.3C87.6999 55.5 87.6999 55.6 87.6999 55.8L86.8999 66.4001C86.8999 67.1001 86.4999 67.7 85.8999 68.1L84.7999 68.7C84.4999 68.9 84.1999 68.9001 83.8999 68.8001C83.8999 68.9001 83.8999 68.8001 83.8999 68.8001ZM89.1999 65.8001C89.1999 65.7001 89.1999 65.7 89.1999 65.6C89.1999 65.5 89.1999 65.4001 89.1999 65.3001L90.2999 54.4001C90.3999 53.7001 90.6999 53.1 91.2999 52.8L92.3999 52.2001C92.6999 52.1 92.8999 52 93.1999 52.1C93.2999 52.3 93.2999 52.4 93.2999 52.6L92.1999 63.5C92.0999 64.2001 91.7999 64.8 91.1999 65.1L89.9999 65.7C89.6999 65.8 89.4999 65.9001 89.1999 65.8001ZM85.4999 44.2001L79.9999 44.7001L64.9999 46L63.7999 46.1H63.3999V47L63.4999 48.4001L63.6999 54.1V54.8L63.7999 56.5L64.0999 65V65.3001V68.2L64.2999 82V84.3001L95.1999 66.4001C95.8999 66.0001 95.9999 65.3 95.9999 65L99.5999 47.9001L100.3 44.5L100.5 43.6L100.7 42.8L85.4999 44.2001Z" fill="#D12D00"/>
<path d="M99.7998 41.2L95.1998 38.5L92.8998 37.2L74.8998 26.7999C73.6998 26.0999 72.2998 25.7 70.8998 25.7C69.4998 25.7 68.0998 26.0999 66.8998 26.7999L64.9998 27.9L38.0998 43.5L35.7998 44.7999L31.1998 47.5C30.3998 48 30.2998 48.7999 30.2998 49.0999C30.2998 49.2999 30.2998 49.6 30.4998 49.9C30.5998 50.2 30.7998 50.5 31.1998 50.7L51.0998 62.2L55.2998 64.6999L56.0998 65.1999C56.9998 65.6999 57.8998 65.9999 58.8998 66.1999C58.9998 66.1999 59.1998 66.1999 59.2998 66.1999C59.2998 66.1999 59.2998 66.1999 59.3998 66.1999H59.4998C59.6998 66.1999 59.7998 66.1999 59.9998 66.1999C60.1998 66.1999 60.2998 66.1999 60.4998 66.1999C60.4998 66.1999 60.4998 66.1999 60.5998 66.1999C60.6998 66.1999 60.6998 66.1999 60.7998 66.1999H60.8998H60.9998C61.9998 66.0999 62.9998 65.6999 63.8998 65.1999L64.6998 64.6999L80.9998 55.2999L99.7998 44.4C100.2 44.2 100.4 43.8999 100.5 43.5999C100.6 43.2999 100.7 43 100.7 42.7999C100.7 42.5 100.6 41.7 99.7998 41.2ZM44.1998 47C44.3998 46.7 44.6998 46.4 44.9998 46.2L46.1998 45.5C46.2998 45.5 46.3998 45.4 46.4998 45.4C46.5998 45.4 46.6998 45.4 46.6998 45.4C46.6998 45.4 46.8998 45.4 46.9998 45.4C46.9998 45.5 47.0998 45.6999 47.0998 45.7999V47.5999V48.5999L45.5998 47.7L44.1998 47ZM49.4998 47.4L49.5998 44.5999C49.5998 43.8999 49.9998 43.2 50.5998 42.9L51.6998 42.2C51.7998 42.1 51.8998 42.0999 51.9998 42.0999C52.0998 42.0999 52.1998 42.0999 52.2998 42.0999C52.3998 42.0999 52.3998 42.0999 52.4998 42.0999C52.4998 42.1999 52.5998 42.4 52.5998 42.5L52.3998 47.0999L52.1998 51.5999L49.3998 50L49.4998 47.4ZM63.7998 36.2L62.6998 47C62.5998 47.7 62.2998 48.2999 61.6998 48.5999L60.5998 49.2C60.2998 49.3 60.0998 49.4 59.7998 49.2999C59.7998 49.1999 59.7998 49.1999 59.7998 49.0999C59.7998 48.9999 59.7998 48.9 59.7998 48.7999L59.9998 46.9L60.8998 37.9C60.9998 37.2 61.2998 36.5999 61.8998 36.2999L62.9998 35.7C63.0998 35.6 63.2998 35.5999 63.4998 35.5999C63.5998 35.5999 63.6998 35.5999 63.7998 35.5999C63.7998 35.7999 63.7998 36 63.7998 36.2ZM58.0998 38.9C58.1998 39.1 58.1998 39.2 58.1998 39.4L57.6998 46.7V47.0999L57.4998 50.0999C57.4998 50.7999 57.0998 51.4 56.4998 51.7999L55.3998 52.4C55.0998 52.5 54.8998 52.6 54.5998 52.5C54.5998 52.4 54.5998 52.4 54.4998 52.2999C54.4998 52.1999 54.4998 52.1 54.4998 52L54.8998 46.9L55.2998 41.2999C55.2998 40.5999 55.6998 40 56.2998 39.7L57.3998 39.0999C57.5998 38.9999 57.7998 38.9 57.9998 38.9C57.9998 38.9 57.9998 38.9 58.0998 38.9C57.9998 38.9 57.9998 38.9 58.0998 38.9Z" fill="#E04704"/>
<path d="M100.7 42.8L100.5 43.6L100.3 44.5L99.5998 47.9001L83.8998 57L65.2998 67.8001C64.8998 68.0001 64.5998 68.2001 64.1998 68.4001C61.6998 69.5001 58.8998 69.5 56.3998 68.5C55.8998 68.3 55.4998 68.1001 54.9998 67.8001L48.1998 63.9001L33.1998 55.2001L31.3998 54.2001L30.6998 50.8L30.4998 49.9001L30.2998 49.1L31.2998 49L41.4998 48.1L45.4998 47.7001L46.9998 48.6V47.6L47.8998 47.5L49.3998 47.4001V50L52.2998 51.7001L52.4998 47.2001L53.4998 47.1L54.8998 47L54.3998 52C54.3998 52.1 54.3998 52.2 54.3998 52.3C54.3998 52.4 54.3998 52.4 54.4998 52.5C54.7998 52.5 54.9998 52.5001 55.2998 52.4001L56.3998 51.8C56.9998 51.5 57.3998 50.8 57.3998 50.1L57.5998 47.1V46.7001H58.0998V47.1L57.4998 52.4001L57.2998 54.6L56.9998 56.9001L56.7998 58.9001L56.0998 65.2H64.0998L63.7998 56.7001L63.6998 55V54.3L63.4998 48.6L63.3998 47V46.1H63.7998L64.9998 46L79.9998 44.7001L85.3998 44.2001L100.7 42.8Z" fill="#DE4800"/>
<path d="M100.7 31.8L93.1001 32.5L76.0001 22.5C72.8001 20.7 68.9001 20.7 65.7001 22.5L59.9001 25.9L40.7001 37.1L30.3001 38L28.0001 38.2V46.7C27.9001 48.2 28.6001 49.7 30.1001 50.5L30.7001 50.8L50.8001 62.4L55.1001 64.9C55.2001 65 55.3001 65 55.4001 65.1C55.7001 65.3 56.0001 65.4 56.3001 65.5C56.4001 65.5 56.4001 65.5 56.5001 65.6C56.6001 65.6 56.6001 65.7 56.7001 65.7C56.9001 65.8 57.1001 65.8 57.3001 65.9C57.3001 65.9 57.3001 65.9 57.4001 65.9C57.5001 65.9 57.6001 66 57.6001 66H57.7001C57.7001 66 57.7001 66 57.8001 66C57.9001 66 58.1001 66.1 58.3001 66.1C58.7001 66.2 59.2001 66.3 59.7001 66.3H59.8001C60.0001 66.3 60.1001 66.3 60.3001 66.3C60.5001 66.3 60.6001 66.3 60.8001 66.3H60.9001C61.0001 66.3 61.1001 66.3 61.1001 66.3C61.3001 66.3 61.5001 66.3 61.7001 66.2C61.8001 66.2 61.9001 66.2 62.1001 66.1C62.7001 66 63.3001 65.8 63.9001 65.6C64.0001 65.6 64.1001 65.5 64.2001 65.5C64.2001 65.5 64.3001 65.5 64.3001 65.4C64.5001 65.3 64.8001 65.2 65.0001 65.1C65.1001 65.1 65.2001 65 65.3001 64.9L81.4001 55.6L100.4 44.6L101 44.3C102.3 43.6 102.9 42.3 103 41V31.7L100.7 31.8ZM44.2001 47C44.4001 46.7 44.7001 46.4 45.0001 46.2L46.2001 45.5C46.3001 45.5 46.4001 45.4 46.5001 45.4C46.6001 45.4 46.7001 45.4 46.7001 45.4C46.7001 45.4 46.9001 45.4 47.0001 45.4C47.0001 45.5 47.1001 45.7 47.1001 45.8V47.6V48.6L45.6001 47.7L44.2001 47ZM54.8001 46.9L55.2001 41.3C55.2001 40.6 55.6001 40 56.2001 39.7L57.3001 39.1C57.5001 39 57.7001 38.9 57.9001 38.9H58.0001C58.0001 38.9 58.0001 38.9 58.1001 38.9C58.2001 39.1 58.2001 39.2 58.2001 39.4L57.7001 46.7V47.1L57.5001 50.1C57.5001 50.8 57.1001 51.4 56.5001 51.8L55.4001 52.4C55.1001 52.5 54.9001 52.6 54.6001 52.5C54.6001 52.4 54.6001 52.4 54.5001 52.3C54.5001 52.2 54.5001 52.1 54.5001 52L54.8001 46.9ZM63.8001 36.2L62.7001 47C62.6001 47.7 62.3001 48.3 61.7001 48.6L60.6001 49.2C60.3001 49.3 60.1001 49.4 59.8001 49.3C59.8001 49.2 59.8001 49.2 59.8001 49.1C59.8001 49 59.8001 48.9 59.8001 48.8L60.0001 46.9L60.9001 37.9C61.0001 37.2 61.3001 36.6 61.9001 36.3L63.0001 35.7C63.1001 35.6 63.3001 35.6 63.5001 35.6C63.6001 35.6 63.7001 35.6 63.8001 35.6C63.8001 35.8 63.8001 36 63.8001 36.2ZM49.5001 47.4L49.6001 44.6C49.6001 43.9 50.0001 43.2 50.6001 42.9L51.7001 42.2C51.8001 42.1 51.9001 42.1 52.0001 42.1C52.1001 42.1 52.2001 42.1 52.3001 42.1C52.4001 42.1 52.4001 42.1 52.5001 42.1C52.5001 42.2 52.6001 42.4 52.6001 42.5L52.4001 47.1L52.2001 51.6L49.4001 50L49.5001 47.4Z" fill="#FF4530"/>
<path d="M59.9001 25.9L40.7001 37.1L30.3001 38L28.0001 38.2V46.7C27.9001 48.2 28.6001 49.7 30.1001 50.5L30.7001 50.8L50.8001 62.4L55.1001 64.9C55.2001 65 55.3001 65 55.4001 65.1C55.7001 65.3 56.0001 65.4 56.3001 65.5C56.4001 65.5 56.4001 65.5 56.5001 65.6C56.6001 65.6 56.6001 65.7 56.7001 65.7C56.9001 65.8 57.1001 65.8 57.3001 65.9C57.3001 65.9 57.3001 65.9 57.4001 65.9C57.5001 65.9 57.6001 66 57.6001 66H57.7001C57.9001 66 58.1001 66.1 58.2001 66.1C58.6001 66.2 59.1001 66.3 59.6001 66.3H59.7001C59.9001 66.3 60.0001 66.3 60.2001 66.3C60.4001 66.3 60.5001 66.3 60.7001 66.3H60.8001C60.9001 66.3 61.0001 66.3 61.0001 66.3C61.2001 66.3 61.4001 66.3 61.6001 66.2C61.7001 66.2 61.8001 66.2 62.0001 66.1C62.6001 66 63.2001 65.8 63.8001 65.6C63.9001 65.6 64.0001 65.5 64.1001 65.5H64.2001C64.4001 65.4 64.7001 65.3 64.9001 65.2V25.9H59.9001ZM63.8001 36.2L62.7001 47C62.6001 47.7 62.3001 48.3 61.7001 48.6L60.6001 49.2C60.3001 49.3 60.1001 49.4 59.8001 49.3C59.8001 49.2 59.8001 49.2 59.8001 49.1C59.8001 49 59.8001 48.9 59.8001 48.8L60.0001 46.9L60.9001 37.9C61.0001 37.2 61.3001 36.6 61.9001 36.3L63.0001 35.7C63.1001 35.6 63.3001 35.6 63.5001 35.6C63.6001 35.6 63.7001 35.6 63.8001 35.6C63.8001 35.8 63.8001 36 63.8001 36.2ZM58.1001 38.9C58.2001 39.1 58.2001 39.2 58.2001 39.4L57.7001 46.7V47.1L57.5001 50.1C57.5001 50.8 57.1001 51.4 56.5001 51.8L55.4001 52.4C55.1001 52.5 54.9001 52.6 54.6001 52.5C54.6001 52.4 54.6001 52.4 54.5001 52.3C54.5001 52.2 54.5001 52.1 54.5001 52L54.9001 46.9L55.3001 41.3C55.3001 40.6 55.7001 40 56.3001 39.7L57.4001 39.1C57.6001 39 57.8001 38.9 58.0001 38.9C58.0001 38.9 58.0001 38.9 58.1001 38.9C58.0001 38.9 58.0001 38.9 58.1001 38.9ZM52.6001 42.2C52.6001 42.3 52.7001 42.5 52.7001 42.6L52.5001 47.2L52.3001 51.7L49.4001 50L49.5001 47.4L49.6001 44.6C49.6001 43.9 50.0001 43.2 50.6001 42.9L51.7001 42.2C51.8001 42.1 51.9001 42.1 52.0001 42.1C52.1001 42.1 52.2001 42.1 52.3001 42.1C52.4001 42.1 52.5001 42.1 52.6001 42.2ZM47.1001 45.8V47.6V48.6L45.6001 47.7L44.2001 47C44.4001 46.7 44.7001 46.4 45.0001 46.2L46.2001 45.5C46.3001 45.5 46.4001 45.4 46.5001 45.4C46.6001 45.4 46.7001 45.4 46.7001 45.4C46.7001 45.4 46.9001 45.4 47.0001 45.4C47.0001 45.5 47.1001 45.7 47.1001 45.8Z" fill="#BD1806"/>
<path d="M65 47V65C64.8 65.1 64.5 65.2 64.3 65.3H64.2C64.1 65.3 64 65.4 63.9 65.4C63.3 65.6 62.7 65.8 62.1 65.9C62 65.9 61.8 65.9 61.7 66C61.6 66 61.4 66 61.3 66H61.2C61.1 66 61 66 60.9 66C60.7 66 60.5 66 60.3 66C60.1 66 59.9 66 59.7 66C59.7 66 59.7 66 59.6 66C59.5 66 59.3 66 59.2 66C58.8 66 58.3 65.9 57.9 65.8C57.8 65.8 57.6 65.7 57.5 65.7C57.5 65.7 57.5 65.7 57.4 65.7C57.2 65.6 57 65.6 56.8 65.5C56.7 65.5 56.7 65.5 56.6 65.4C56.5 65.4 56.5 65.3 56.4 65.3C56.1 65.2 55.8 65.1 55.5 64.9V52.3L56.6 51.7C57.2 51.4 57.6 50.7 57.6 50L57.8 47H60L59.8 48.9C59.8 49 59.8 49.1 59.8 49.2C59.8 49.3 59.8 49.3 59.8 49.4C60.1 49.4 60.3 49.4 60.6 49.3L61.7 48.7C62.3 48.4 62.7 47.8 62.7 47.1H65V47Z" fill="#CF2F1D"/>
<path d="M101 28L76 13.6C72.8 11.8 68.9 11.8 65.7 13.6L30 34.3C28.5 35.2 27.8 36.7 27.9 38.2C28 39.5 28.7 40.8 30 41.5L35.8 44.8L41.5 48.1L55 55.9C55.1 56 55.2 56 55.3 56.1C55.9 56.4 56.5 56.6 57.1 56.8C57.9 57.1 58.8 57.2 59.6 57.2C61 57.3 62.4 57.1 63.8 56.5C64.2 56.4 64.6 56.2 65 56C65.1 55.9 65.2 55.9 65.3 55.8L73.2 51.2L85.4 44.1L95.1 38.5L100.9 35.1C102.3 34.3 103 32.9 103 31.5C103 30.2 102.3 28.8 101 28ZM56.4 51.7L55.3 52.3C55 52.4 54.8 52.5 54.5 52.4C54.5 52.3 54.5 52.3 54.4 52.2C54.4 52.1 54.4 52 54.4 51.9L54.8 46.8L55.2 41.2C55.2 40.5 55.6 39.9 56.2 39.6L57.3 39C57.5 38.9 57.7 38.8 57.9 38.8H58C58 38.8 58 38.8 58.1 38.8C58.2 39 58.2 39.1 58.2 39.3L57.7 46.6V47L57.5 50C57.4 50.8 57 51.4 56.4 51.7ZM59.9 47L60.8 38C60.9 37.3 61.2 36.7 61.8 36.4L62.9 35.8C63 35.7 63.2 35.7 63.4 35.7C63.5 35.7 63.6 35.7 63.7 35.7C63.8 35.9 63.8 36 63.8 36.2L62.7 47C62.6 47.7 62.3 48.3 61.7 48.6L60.6 49.2C60.3 49.3 60.1 49.4 59.8 49.3C59.8 49.2 59.8 49.2 59.8 49.1C59.8 49 59.8 48.9 59.8 48.8L59.9 47ZM45.5 47.8L44.2 47C44.4 46.7 44.7 46.4 45 46.2L46.2 45.5C46.3 45.5 46.4 45.4 46.5 45.4C46.6 45.4 46.7 45.4 46.7 45.4C46.7 45.4 46.9 45.4 47 45.4C47 45.5 47.1 45.7 47.1 45.8V47.6V48.6L45.5 47.8ZM49.4 50L49.5 47.4L49.6 44.6C49.6 43.9 50 43.2 50.6 42.9L51.7 42.2C51.8 42.1 51.9 42.1 52 42.1C52.1 42.1 52.2 42.1 52.3 42.1C52.4 42.1 52.4 42.1 52.5 42.1C52.5 42.2 52.6 42.4 52.6 42.5L52.4 47.1L52.2 51.6L49.4 50Z" fill="#FF8B6B"/>
<path d="M100.5 30.7C100.5 30.6 100.4 30.6 100.4 30.5C100.4 30.4 100.3 30.4 100.3 30.3C100.2 30.2 99.9998 30 99.7998 29.9L74.7998 15.5C73.5998 14.8 72.1998 14.4 70.7998 14.4C69.3998 14.4 67.9998 14.8 66.7998 15.5L31.1998 36.3C30.3998 36.8 30.2998 37.6 30.2998 37.9V38V38.1C30.2998 38.2 30.2998 38.2 30.2998 38.3V38.4C30.2998 38.5 30.3998 38.7 30.4998 38.8C30.4998 38.9 30.5998 38.9 30.6998 39C30.7998 39.1 30.9998 39.3 31.1998 39.4L38.0998 43.4H38.1998L41.0998 45.1L44.1998 46.9C44.3998 46.6 44.6998 46.3 44.9998 46.1L46.1998 45.4C46.2998 45.4 46.3998 45.3 46.4998 45.3C46.5998 45.3 46.6998 45.3 46.6998 45.3C46.7998 45.3 46.8998 45.3 46.9998 45.3C46.9998 45.4 47.0998 45.6 47.0998 45.7V47.5V48.5L47.9998 49L49.3998 49.8L49.4998 47.2L49.5998 44.4C49.5998 43.7 49.9998 43 50.5998 42.7L51.6998 42C51.7998 41.9 51.8998 41.9 51.9998 41.9C52.0998 41.9 52.1998 41.9 52.2998 41.9C52.3998 41.9 52.3998 41.9 52.4998 41.9C52.4998 42 52.5998 42.2 52.5998 42.3L52.3998 46.9L52.1998 51.4L53.0998 51.9L55.1998 53.1L55.9998 53.6C56.3998 53.8 56.7998 54 57.1998 54.2C58.0998 54.5 58.9998 54.7 59.9998 54.7C61.1998 54.7 62.3998 54.4 63.4998 53.9L63.8998 53.7L64.6998 53.2L79.9998 44.7L92.7998 37.3H92.8998L99.7998 33.3C99.8998 33.2 99.9998 33.2 100.1 33.1C100.2 33 100.2 33 100.3 32.9C100.4 32.8 100.4 32.7 100.5 32.6C100.5 32.5 100.6 32.5 100.6 32.4C100.7 32.3 100.7 32.1 100.7 32V31.9C100.7 31.9 100.7 31.9 100.7 31.8C100.7 31.7 100.7 31.7 100.7 31.6C100.7 31.4 100.7 31.1 100.5 30.7ZM57.6998 46.7V47.1L57.4998 50.1C57.4998 50.8 57.0998 51.4 56.4998 51.8L55.3998 52.4C55.0998 52.5 54.8998 52.6 54.5998 52.5C54.5998 52.4 54.5998 52.4 54.4998 52.3C54.4998 52.2 54.4998 52.1 54.4998 52L54.8998 46.9L55.2998 41.3C55.2998 40.6 55.6998 40 56.2998 39.7L57.3998 39.1C57.5998 39 57.7998 38.9 57.9998 38.9H58.0998C58.0998 38.9 58.0998 38.9 58.1998 38.9C58.2998 39.1 58.2998 39.2 58.2998 39.4L57.6998 46.7ZM62.6998 47C62.5998 47.7 62.2998 48.3 61.6998 48.6L60.5998 49.2C60.2998 49.3 60.0998 49.4 59.7998 49.3C59.7998 49.2 59.7998 49.2 59.7998 49.1C59.7998 49 59.7998 48.9 59.7998 48.8L59.9998 46.9L60.8998 37.9C60.9998 37.2 61.2998 36.6 61.8998 36.3L62.9998 35.7C63.0998 35.6 63.2998 35.6 63.4998 35.6C63.5998 35.6 63.6998 35.6 63.7998 35.6C63.8998 35.8 63.8998 35.9 63.8998 36.1L62.6998 47Z" fill="#B81200"/>
<path d="M81.5998 19.5L73.2998 18L73.8998 30.5L74.4998 47.9L99.4998 33.4L99.8998 30.2L99.7998 30.1L81.5998 19.5Z" fill="#A60000"/>
<path d="M31.1998 39.5L38.1998 43.5L66.8998 26.9C68.0998 26.2 69.4998 25.8 70.8998 25.8C72.2998 25.8 73.6998 26.2 74.8998 26.9L92.8998 37.3L99.8998 33.2C100.7 32.7 100.8 31.9 100.8 31.6C100.8 31.3 100.7 30.5 99.8998 30L74.8998 15.6C73.6998 14.9 72.2998 14.5 70.8998 14.5C69.4998 14.5 68.0998 14.9 66.8998 15.6L31.1998 36.3C30.3998 36.8 30.2998 37.6 30.2998 37.9C30.2998 38.2 30.3998 39 31.1998 39.5Z" fill="#CF2F1D"/>
<path d="M100.5 30.7001C100.5 30.6001 100.4 30.6001 100.4 30.5001C100.4 30.4001 100.3 30.4001 100.3 30.3001L80.2001 26.6001C76.9001 26.0001 73.6001 26.6001 70.7001 28.2001L41.1001 45.2001L44.2001 47.0001C44.4001 46.7001 44.7001 46.4001 45.0001 46.2001L46.2001 45.5001C46.3001 45.5001 46.4001 45.4001 46.5001 45.4001C46.6001 45.4001 46.7001 45.4001 46.7001 45.4001C46.8001 45.4001 46.9001 45.4001 47.0001 45.4001C47.0001 45.5001 47.1001 45.7001 47.1001 45.8001V47.6001V48.6001L48.0001 49.1001L49.4001 49.9001L49.5001 47.3001L49.6001 44.5001C49.6001 43.8001 50.0001 43.1001 50.6001 42.8001L51.7001 42.1001C51.8001 42.0001 51.9001 42.0001 52.0001 42.0001C52.1001 42.0001 52.2001 42.0001 52.3001 42.0001C52.4001 42.0001 52.4001 42.0001 52.5001 42.0001C52.5001 42.1001 52.6001 42.3001 52.6001 42.4001L52.4001 47.0001L52.2001 51.5001L53.1001 52.0001L55.2001 53.2001L56.0001 53.7001C56.4001 53.9001 56.8001 54.1001 57.2001 54.3001C58.1001 54.6001 59.0001 54.8001 60.0001 54.8001C61.2001 54.8001 62.4001 54.5001 63.5001 54.0001L63.9001 53.8001L64.7001 53.3001L80.0001 44.7001L92.8001 37.3001H92.9001L99.8001 33.3001C99.9001 33.2001 100 33.2001 100.1 33.1001C100.2 33.0001 100.2 33.0001 100.3 32.9001C100.4 32.8001 100.4 32.7001 100.5 32.6001C100.5 32.5001 100.6 32.5001 100.6 32.4001C100.7 32.3001 100.7 32.1001 100.7 32.0001V31.9001C100.7 31.9001 100.7 31.9001 100.7 31.8001C100.7 31.7001 100.7 31.7001 100.7 31.6001C100.7 31.4001 100.7 31.1001 100.5 30.7001ZM57.7001 46.7001V47.1001L57.5001 50.1001C57.5001 50.8001 57.1001 51.4001 56.5001 51.8001L55.4001 52.4001C55.1001 52.5001 54.9001 52.6001 54.6001 52.5001C54.6001 52.4001 54.6001 52.4001 54.5001 52.3001C54.5001 52.2001 54.5001 52.1001 54.5001 52.0001L54.9001 46.9001L55.3001 41.3001C55.3001 40.6001 55.7001 40.0001 56.3001 39.7001L57.4001 39.1001C57.6001 39.0001 57.8001 38.9001 58.0001 38.9001H58.1001C58.1001 38.9001 58.1001 38.9001 58.2001 38.9001C58.3001 39.1001 58.3001 39.2001 58.3001 39.4001L57.7001 46.7001ZM62.7001 47.0001C62.6001 47.7001 62.3001 48.3001 61.7001 48.6001L60.6001 49.2001C60.3001 49.3001 60.1001 49.4001 59.8001 49.3001C59.8001 49.2001 59.8001 49.2001 59.8001 49.1001C59.8001 49.0001 59.8001 48.9001 59.8001 48.8001L60.0001 46.9001L60.9001 37.9001C61.0001 37.2001 61.3001 36.6001 61.9001 36.3001L63.0001 35.7001C63.1001 35.6001 63.3001 35.6001 63.5001 35.6001C63.6001 35.6001 63.7001 35.6001 63.8001 35.6001C63.9001 35.8001 63.9001 35.9001 63.9001 36.1001L62.7001 47.0001Z" fill="#C70000"/>
<path d="M93.1002 52C93.2002 52.2 93.2002 52.3 93.2002 52.5L92.1002 63.4C92.0002 64.1 91.7002 64.7 91.1002 65L90.0002 65.7C89.7002 65.9 89.5002 65.9 89.2002 65.8C89.4002 66.5 90.2002 66.8 90.9002 66.4L92.0002 65.8C92.6002 65.5 93.0002 64.9 93.0002 64.2L94.1002 53.3C94.2002 52.6 93.7002 52.1 93.1002 52ZM87.5002 55.3C87.6002 55.5 87.6002 55.6 87.6002 55.8L86.8002 66.4C86.8002 67.1 86.4002 67.7 85.8002 68.1L84.7002 68.7C84.4002 68.9 84.2002 68.9 83.9002 68.8C84.1002 69.5 84.9002 69.8 85.6002 69.4L86.7002 68.8C87.3002 68.4 87.7002 67.8 87.7002 67.1L88.5002 56.4C88.6002 55.9 88.1002 55.4 87.5002 55.3ZM82.0002 58.5C82.0002 58.6 82.1002 58.8 82.1002 59L81.7002 69.4C81.7002 70.1 81.3002 70.8 80.7002 71.1L79.6002 71.8C79.3002 71.9 79.1002 72 78.8002 71.9C79.0002 72.6 79.8002 72.9 80.5002 72.5L81.6002 71.8C82.2002 71.4 82.6002 70.8 82.6002 70.1L83.0002 59.7C83.0002 59.1 82.5002 58.6 82.0002 58.5ZM76.4002 61.8C76.4002 61.9 76.5002 62.1 76.5002 62.2L76.4002 72.4C76.4002 73.1 76.0002 73.8 75.4002 74.2L74.2002 74.9C73.9002 75 73.6002 75 73.4002 75C73.6002 75.7 74.4002 76 75.1002 75.6L76.3002 74.9C76.9002 74.5 77.3002 73.9 77.3002 73.1L77.4002 62.9C77.4002 62.3 77.0002 61.8 76.4002 61.8ZM71.9002 66.1C71.9002 65.5 71.4002 65 70.9002 64.9C70.9002 65 71.0002 65.2 71.0002 65.3L71.2002 75.3C71.2002 76.1 70.8002 76.8 70.2002 77.2L69.0002 77.9C68.7002 78 68.5002 78.1 68.2002 78C68.4002 78.7 69.3002 79 69.9002 78.6L71.1002 77.9C71.8002 77.5 72.2002 76.8 72.1002 76.1L71.9002 66.1Z" fill="#FF8B6B"/>
<path d="M63.7 35.7C63.8 35.9 63.8 36 63.8 36.2L62.7 47C62.6 47.7 62.3 48.2999 61.7 48.5999L60.6 49.2C60.3 49.3 60.1 49.4 59.8 49.2999C60 49.9999 60.8 50.3 61.5 49.9L62.6 49.2999C63 49.0999 63.3 48.6999 63.5 48.2999C63.6 48.0999 63.6 47.9 63.7 47.7L63.8 46.9L63.9 46L64.8 36.7999C64.8 36.2999 64.3 35.7 63.7 35.7ZM58.1 38.9C58.2 39.1 58.2 39.2 58.2 39.4L57.7 46.7V47.0999L57.5 50.0999C57.5 50.7999 57.1 51.4 56.5 51.7999L55.4 52.4C55.1 52.5 54.9 52.6 54.6 52.5C54.7 52.9 55 53.1 55.4 53.2C55.7 53.3 56 53.2999 56.3 53.0999L57.4 52.5C57.5 52.5 57.6 52.4 57.6 52.2999C58.1 51.9 58.3 51.4 58.4 50.7999L58.7 47L59.2 40.0999C59.2 39.4999 58.7 39 58.1 38.9ZM52.6 42.2C52.6 42.3 52.7 42.4999 52.7 42.5999L52.5 47.2L52.3 51.7L53.2 52.2L53.4 47.0999L53.5 43.4C53.6 42.7 53.1 42.3 52.6 42.2ZM47 45.4C47 45.5 47.1 45.6999 47.1 45.7999V47.5999V48.5999L48 49.0999V47.5V46.5C48 45.9 47.5 45.5 47 45.4Z" fill="#FF8B6B"/>
<path d="M56.3003 80.6C56.0003 81.2 55.3003 81.5 54.6003 81.1L53.4003 80.4C52.7003 80 52.3003 79.3 52.4003 78.6L51.8003 68.1C51.8003 67.4 52.3003 67 52.9003 66.9C52.8003 67 52.8003 67.2 52.8003 67.4L53.4003 77.9C53.4003 78.7 53.8003 79.4 54.4003 79.7L55.6003 80.4C55.9003 80.6 56.1003 80.7 56.3003 80.6Z" fill="#FF8B6B"/>
<path d="M51 77.5999C50.7 78.1999 50 78.4999 49.3 78.0999L48.1 77.4C47.5 77 47.1 76.3999 47.1 75.5999L46 64.9C46 64.2 46.5 63.7 47.1 63.7C47 63.8 47 63.9999 47 64.1999L48.1 75C48.1 75.7 48.5 76.4 49.1 76.8L50.3 77.5C50.6 77.6 50.8 77.5999 51 77.5999Z" fill="#FF8B6B"/>
<path d="M45.7003 74.6C45.4003 75.2 44.7003 75.5 44.0003 75.1L42.9003 74.4001C42.3003 74.1001 41.9003 73.4 41.9003 72.7L40.3003 61.6C40.3003 60.9 40.8003 60.4 41.4003 60.3C41.3003 60.5 41.3003 60.7001 41.3003 60.9001L42.9003 72C42.9003 72.7 43.3003 73.3 43.9003 73.7L45.0003 74.4001C45.3003 74.5001 45.5003 74.6 45.7003 74.6Z" fill="#FF8B6B"/>
<path d="M40.4002 71.5C40.1002 72.1 39.4002 72.4 38.7002 72L37.6002 71.4C37.0002 71.1 36.6002 70.5 36.6002 69.8L34.5002 58.3C34.4002 57.6 35.0002 57 35.6002 57C35.5002 57.2 35.5002 57.4 35.5002 57.6L37.6002 69.1C37.7002 69.8 38.0002 70.4 38.6002 70.7L39.7002 71.3C39.9002 71.5 40.2002 71.6 40.4002 71.5Z" fill="#FF8B6B"/>
<path d="M43.4001 28.6L49.2001 22.5C49.2001 21.7 50.4001 21.8 49.9001 21.4C49.7001 21.2 47.9001 20.2 47.6001 20C46.8001 19.6 45.9001 19.6 45.0001 20.1L44.7001 20.3C42.8001 21.4 41.6001 23.4 41.6001 25.7V27.6L43.4001 28.6Z" fill="url(#paint2_linear)"/>
<path d="M50.9003 24.3V23.6C50.9003 21.5 48.6003 20.1 46.7003 21.2L46.4003 21.4C44.5003 22.5 43.3003 24.5 43.3003 26.8V28.7L50.9003 24.3Z" fill="#FF4530"/>
<path d="M79.9001 46.1H76.4001V22.6C76.4001 21 75.6001 19.6 74.2001 18.8L51.2001 5.60002C50.3001 5.10002 49.3001 5.10002 48.5001 5.60002C47.7001 6.10002 47.1001 7.00002 47.1001 8.00002V29.3L43.6001 27.3V7.90002C43.6001 5.70002 44.8001 3.70002 46.7001 2.60002C48.6001 1.50002 50.9001 1.50002 52.9001 2.60002L75.9001 15.8C78.3001 17.2 79.9001 19.8 79.9001 22.6V46.1Z" fill="#17353D"/>
<path d="M48.5001 5.49998C47.7001 5.99998 47.1001 6.89998 47.1001 7.89998V29.2L50.2001 27.5V6.19998C50.2001 5.89998 50.3001 5.49998 50.4001 5.19998C49.8001 5.09998 49.1001 5.19998 48.5001 5.49998Z" fill="url(#paint3_linear)"/>
<path d="M79.1001 14L56.0001 0.799976C54.1001 -0.300024 51.8001 -0.300024 49.8001 0.799976C48.5001 1.49998 47.0001 1.99998 46.1001 2.89998C46.3001 2.79998 46.5001 2.59998 46.7001 2.49998C48.6001 1.39998 50.9001 1.39998 52.9001 2.49998L75.9001 15.7C78.3001 17.1 79.9001 19.7 79.9001 22.5V44.3H83.0001V20.9C83.0001 18 81.5001 15.4 79.1001 14Z" fill="url(#paint4_linear)"/>
<path d="M77.9001 48.6L83.7001 42.5C83.7001 41.7 84.9001 41.8 84.4001 41.4C84.2001 41.2 82.4001 40.2 82.1001 40C81.3001 39.6 80.4001 39.6 79.5001 40.1L79.2001 40.3C77.3001 41.4 76.1001 43.4 76.1001 45.7V47.6L77.9001 48.6Z" fill="url(#paint5_linear)"/>
<path d="M85.4999 44.2V43.5C85.4999 41.4 83.1999 40 81.2999 41.1L80.9999 41.3C79.0999 42.4 77.8999 44.4 77.8999 46.7V48.6L85.4999 44.2Z" fill="#FF4530"/>
<path d="M80.7002 46.2C80.2002 45.9 80.2002 44.9 80.7002 44C81.2002 43.1 82.1002 42.6 82.6002 42.9C83.1002 43.2 83.1002 44.2 82.6002 45.1C82.1002 46 81.2002 46.5 80.7002 46.2Z" fill="#A60000"/>
<path d="M81.2 46.2C81.7 46.2 82.3 45.7 82.6 45.1C83.1 44.3 83.1 43.4 82.6 43.1C82.5 43.1 82.4 43 82.3 43C81.8 43 81.2 43.5 80.9 44.1C80.7 44.5 80.5 45 80.5 45.3C80.5 45.7 80.6 45.9 80.8 46.1C81 46.2 81.1 46.2 81.2 46.2Z" fill="#17353D"/>
</g>
<defs>
<linearGradient id="paint0_linear" x1="31.1786" y1="29.6996" x2="56.0567" y2="72.7898" gradientUnits="userSpaceOnUse">
<stop stop-color="#CFC2BA"/>
<stop offset="0.5494" stop-color="#BAAEA8"/>
<stop offset="0.9156" stop-color="#B3A7A1"/>
</linearGradient>
<linearGradient id="paint1_linear" x1="21.2224" y1="15.9671" x2="46.1118" y2="59.0769" gradientUnits="userSpaceOnUse">
<stop stop-color="#CFC2BA"/>
<stop offset="0.5494" stop-color="#BAAEA8"/>
<stop offset="0.9156" stop-color="#B3A7A1"/>
</linearGradient>
<linearGradient id="paint2_linear" x1="42.7143" y1="28.2276" x2="47.4843" y2="19.9658" gradientUnits="userSpaceOnUse">
<stop offset="0.1613" stop-color="#AD0700"/>
<stop offset="0.1633" stop-color="#D42626"/>
<stop offset="0.5593" stop-color="#D42626"/>
<stop offset="0.5622" stop-color="#FFB6A3"/>
<stop offset="0.8728" stop-color="#FFB6A3"/>
<stop offset="0.8739" stop-color="#FF9E8F"/>
</linearGradient>
<linearGradient id="paint3_linear" x1="43.6653" y1="8.32728" x2="53.6131" y2="25.5573" gradientUnits="userSpaceOnUse">
<stop offset="0.1613" stop-color="#283036"/>
<stop offset="0.1633" stop-color="#364349"/>
<stop offset="0.5593" stop-color="#364349"/>
<stop offset="0.5622" stop-color="#3E4D55"/>
<stop offset="0.8728" stop-color="#3E4D55"/>
<stop offset="0.8739" stop-color="#344147"/>
</linearGradient>
<linearGradient id="paint4_linear" x1="82.7559" y1="42.2451" x2="55.5202" y2="-4.92852" gradientUnits="userSpaceOnUse">
<stop offset="0.4047" stop-color="#364349"/>
<stop offset="0.4065" stop-color="#3E4D55"/>
<stop offset="0.945" stop-color="#3E4D55"/>
<stop offset="0.9461" stop-color="#344147"/>
</linearGradient>
<linearGradient id="paint5_linear" x1="77.2462" y1="48.1802" x2="82.0164" y2="39.918" gradientUnits="userSpaceOnUse">
<stop offset="0.1613" stop-color="#AD0700"/>
<stop offset="0.1633" stop-color="#D42626"/>
<stop offset="0.5593" stop-color="#D42626"/>
<stop offset="0.5622" stop-color="#FFB6A3"/>
<stop offset="0.8728" stop-color="#FFB6A3"/>
<stop offset="0.8739" stop-color="#FF9E8F"/>
</linearGradient>
<clipPath id="clip0">
<rect width="103" height="85.2" fill="white"/>
</clipPath>
</defs>
</svg>
