<svg width="77" height="79" viewBox="0 0 77 79" fill="none" xmlns="http://www.w3.org/2000/svg">
<g clip-path="url(#clip0)">
<path d="M0.372403 52.1207L23.532 38.7182C24.0533 38.4204 24.649 38.4204 25.1703 38.7182L67.766 70.0651C68.2128 70.3629 68.2128 71.033 67.766 71.2564L54.1384 78.7767C53.6171 79.0745 53.0213 79.0745 52.5001 78.7767L0.372403 53.312C-0.148874 53.0887 -0.148874 52.4185 0.372403 52.1207Z" fill="url(#paint0_linear)"/>
<path d="M53.2447 78.3299L49.2979 71.8521L50.1915 71.3309C50.7127 71.033 51.383 71.1075 52.1276 71.4798C53.617 72.2988 54.883 74.3836 54.883 76.0962C54.883 76.9152 54.5851 77.5109 54.1383 77.8087H54.0638L53.2447 78.3299Z" fill="black"/>
<path d="M49.9683 72.2988L51.6066 71.3308C51.7555 71.4053 51.9044 71.4797 52.0534 71.5542C53.5427 72.3732 54.8087 74.4581 54.8087 76.1706C54.8087 76.4684 54.8087 76.7663 54.7342 76.9896L53.7661 77.5853C53.5427 77.5108 53.3193 77.4364 53.0215 77.2875C52.7236 77.1385 52.5002 76.9152 52.2023 76.6918L50.1172 73.2667C50.0427 72.9689 49.9683 72.5966 49.9683 72.2988Z" fill="#1F1F1F"/>
<path d="M48.5532 73.5646C48.5532 75.2771 49.8192 77.3619 51.3085 78.181C52.7979 79 53.9894 78.3299 53.9894 76.6174C53.9894 74.9048 52.7234 72.8945 51.2341 72.001C49.7447 71.1819 48.5532 71.9265 48.5532 73.5646Z" fill="#2A2A2A"/>
<path d="M48.6279 73.639C48.6279 75.2771 49.8194 77.2875 51.3088 78.032C52.7237 78.8511 53.9152 78.181 53.9152 76.5429C53.9152 74.9048 52.7237 72.8944 51.2343 72.1499C49.8194 71.3308 48.6279 72.0009 48.6279 73.639Z" fill="#1D1D1D"/>
<path d="M49.2236 74.0114C49.2236 75.2771 50.1917 76.8408 51.3087 77.4364C52.4258 78.0321 53.3194 77.5109 53.3194 76.2451C53.3194 74.9793 52.3513 73.4157 51.2343 72.82C50.1173 72.2244 49.2236 72.6711 49.2236 74.0114Z" fill="#3B3B3B"/>
<path d="M49.3726 74.0859C49.3726 75.2772 50.2662 76.6919 51.3087 77.2876C52.3513 77.8832 53.1704 77.362 53.1704 76.2452C53.1704 75.0538 52.2768 73.6391 51.2343 73.0435C50.1917 72.3733 49.3726 72.8945 49.3726 74.0859Z" fill="#FF4F4F"/>
<path d="M51.3085 72.969C52.351 73.5647 53.1702 74.9794 53.2446 76.1707C53.2446 76.3196 53.2446 76.4685 53.1702 76.6174L51.8298 77.4365C51.6808 77.362 51.5319 77.362 51.3829 77.2131C50.3404 76.6174 49.5212 75.2772 49.4468 74.0859L51.3085 72.969Z" fill="#D12700"/>
<path d="M52.3513 73.9369C52.7236 74.4581 53.0215 74.9793 53.1704 75.575L50.9364 76.9152C50.4895 76.5429 50.1172 76.0217 49.8193 75.4261L52.3513 73.9369Z" fill="#E9EAE7"/>
<path d="M52.3513 73.9369C52.7236 74.4581 53.0215 74.9793 53.1704 75.575L50.9364 76.9152C50.4895 76.5429 50.1172 76.0217 49.8193 75.4261L52.3513 73.9369Z" fill="#FF8372"/>
<path d="M49.7446 74.0858C49.7446 75.1282 50.4893 76.3195 51.3829 76.8407C52.2765 77.362 53.0212 76.9152 53.0212 75.9473C53.0212 74.9048 52.2765 73.7135 51.3829 73.1923C50.4148 72.6711 49.7446 73.1178 49.7446 74.0858Z" fill="#B01300"/>
<path d="M49.7446 74.5326C49.7446 75.3516 50.3404 76.3196 51.0851 76.6919C51.8297 77.0641 52.351 76.7663 52.351 75.9473C52.351 75.1282 51.7553 74.1603 51.0106 73.788C50.2659 73.4157 49.7446 73.7135 49.7446 74.5326Z" fill="#990F0F"/>
<path d="M51.979 70.6606L51.5322 76.0961L52.5748 75.3515L54.8833 72.2243L51.979 70.6606Z" fill="#C4C4C4"/>
<path d="M50.9361 71.4053L50.4893 75.2026L51.5318 76.0961L53.8403 72.9689L50.9361 71.4053Z" fill="#828282"/>
<path d="M67.7661 69.9906L63.8193 63.5127L64.713 62.9915C65.2342 62.6937 65.9044 62.7681 66.6491 63.1404C68.1385 63.9595 69.4044 66.0443 69.4044 67.7568C69.4044 68.5759 69.1066 69.1715 68.6598 69.4694H68.5853L67.7661 69.9906Z" fill="black"/>
<path d="M64.4893 63.8849L66.1276 62.917C66.2765 62.9915 66.4254 63.0659 66.5744 63.1404C68.0637 63.9594 69.3297 66.0442 69.3297 67.7568C69.3297 68.0546 69.3297 68.3524 69.2552 68.5758L68.2871 69.1715C68.0637 69.097 67.8403 69.0226 67.5424 68.8736C67.2446 68.7247 67.0212 68.5013 66.7233 68.278L64.6382 64.8529C64.5637 64.5551 64.4893 64.2572 64.4893 63.8849Z" fill="#1F1F1F"/>
<path d="M63.0746 65.2252C63.0746 66.9378 64.3406 69.0226 65.8299 69.8416C67.3193 70.6607 68.5108 69.9905 68.5108 68.278C68.5108 66.5655 67.2448 64.4807 65.7555 63.6616C64.1916 62.8426 63.0001 63.5127 63.0746 65.2252Z" fill="#2A2A2A"/>
<path d="M63.1489 65.2252C63.1489 66.8633 64.3404 68.8737 65.8298 69.6183C67.2447 70.4373 68.4362 69.7672 68.4362 68.1291C68.4362 66.491 67.2447 64.4806 65.7553 63.7361C64.2659 62.9915 63.1489 63.6616 63.1489 65.2252Z" fill="#1D1D1D"/>
<path d="M63.7446 65.5976C63.7446 66.8634 64.7127 68.427 65.8297 69.0226C66.9468 69.6183 67.8404 69.0971 67.8404 67.8313C67.8404 66.5655 66.8723 65.0019 65.7553 64.4062C64.6382 63.8106 63.7446 64.3318 63.7446 65.5976Z" fill="#3B3B3B"/>
<path d="M63.8936 65.672C63.8936 66.8634 64.7872 68.2781 65.8297 68.8737C66.8723 69.4694 67.6914 68.9482 67.6914 67.8313C67.6914 66.64 66.7978 65.2253 65.7553 64.6296C64.7127 64.034 63.8936 64.4807 63.8936 65.672Z" fill="#CA0D00"/>
<path d="M65.7553 64.6296C66.7978 65.2253 67.617 66.64 67.6914 67.8313C67.6914 67.9802 67.6914 68.1292 67.617 68.2781L66.2765 69.0971C66.1276 69.0227 65.9787 69.0227 65.8297 68.8737C64.7872 68.2781 63.968 66.9378 63.8936 65.7465L65.7553 64.6296Z" fill="#FF644F"/>
<path d="M66.798 65.5231C67.1704 66.0443 67.4682 66.5655 67.6172 67.1611L65.3831 68.5014C64.9363 68.1291 64.564 67.6079 64.2661 67.0122L66.798 65.5231Z" fill="#E9EAE7"/>
<path d="M66.798 65.5231C67.1704 66.0443 67.4682 66.5655 67.6172 67.1611L65.3831 68.5014C64.9363 68.1291 64.564 67.6079 64.2661 67.0122L66.798 65.5231Z" fill="#FF8372"/>
<path d="M64.1914 65.7464C64.1914 66.7888 64.9361 67.9802 65.8297 68.5014C66.7233 69.0226 67.468 68.5758 67.468 67.6079C67.468 66.5655 66.7233 65.3741 65.8297 64.8529C64.9361 64.3317 64.1914 64.704 64.1914 65.7464Z" fill="#B01300"/>
<path d="M64.1914 66.1933C64.1914 67.0123 64.7872 67.9803 65.5318 68.3525C66.2765 68.7248 66.7978 68.427 66.7978 67.608C66.7978 66.7889 66.202 65.821 65.4574 65.4487C64.7872 65.0019 64.1914 65.3742 64.1914 66.1933Z" fill="#990F0F"/>
<path d="M43.7876 53.5354L39.8408 47.0575L40.7344 46.5363C41.2557 46.2385 41.9259 46.3129 42.6706 46.6852C44.16 47.5043 45.4259 49.5891 45.4259 51.3016C45.4259 52.1207 45.1281 52.7163 44.6812 53.0142H44.6068L43.7876 53.5354Z" fill="black"/>
<path d="M40.5107 47.4297L42.149 46.4618C42.298 46.5363 42.4469 46.6107 42.5958 46.6852C44.0852 47.5042 45.3512 49.589 45.3512 51.3016C45.3512 51.5994 45.3512 51.8972 45.2767 52.1206L44.3086 52.7163C44.0852 52.6418 43.8618 52.5674 43.5639 52.4184C43.2661 52.2695 43.0427 52.0461 42.7448 51.8228L40.6597 48.3977C40.5852 48.0999 40.5107 47.802 40.5107 47.4297Z" fill="#1F1F1F"/>
<path d="M39.0959 48.77C39.0959 50.4826 40.3619 52.4929 41.8512 53.3864C43.3406 54.2055 44.5321 53.5353 44.5321 51.8228C44.5321 50.1103 43.2661 48.0255 41.7768 47.2064C40.2874 46.3874 39.0214 47.0575 39.0959 48.77Z" fill="#2A2A2A"/>
<path d="M39.1704 48.8446C39.1704 50.4827 40.3619 52.493 41.8513 53.2376C43.2662 54.0566 44.4576 53.3865 44.4576 51.7484C44.4576 50.1104 43.2662 48.1 41.7768 47.3554C40.2874 46.5364 39.1704 47.2065 39.1704 48.8446Z" fill="#1D1D1D"/>
<path d="M39.7661 49.1424C39.7661 50.4082 40.7342 51.9718 41.8512 52.5674C42.9682 53.1631 43.8619 52.6419 43.8619 51.3761C43.8619 50.1103 42.8938 48.5467 41.7768 47.951C40.6597 47.3554 39.7661 47.8766 39.7661 49.1424Z" fill="#3B3B3B"/>
<path d="M39.915 49.2169C39.915 50.4082 40.8087 51.8229 41.8512 52.4186C42.8938 53.0142 43.7129 52.493 43.7129 51.3761C43.7129 50.1848 42.8193 48.7701 41.7767 48.1744C40.7342 47.5788 39.915 48.0255 39.915 49.2169Z" fill="#FF4F4F"/>
<path d="M41.7767 48.1744C42.8193 48.7701 43.6384 50.1848 43.7129 51.3761C43.7129 51.5251 43.7129 51.674 43.6384 51.8229L42.298 52.6419C42.1491 52.5675 42.0001 52.5675 41.8512 52.4185C40.8087 51.8229 39.9895 50.4826 39.915 49.2913L41.7767 48.1744Z" fill="#D12700"/>
<path d="M42.8195 49.0679C43.1918 49.5891 43.4897 50.1103 43.6387 50.7059L41.4046 52.0462C40.9578 51.6739 40.5855 51.1527 40.2876 50.557L42.8195 49.0679Z" fill="#E9EAE7"/>
<path d="M42.8195 49.0679C43.1918 49.5891 43.4897 50.1103 43.6387 50.7059L41.4046 52.0462C40.9578 51.6739 40.5855 51.1527 40.2876 50.557L42.8195 49.0679Z" fill="#FFC123"/>
<path d="M40.2874 49.2912C40.2874 50.3336 41.032 51.525 41.9257 52.0462C42.8193 52.5674 43.564 52.1206 43.564 51.1527C43.564 50.1102 42.8193 48.9189 41.9257 48.3977C40.9576 47.8765 40.2129 48.2488 40.2874 49.2912Z" fill="#B01300"/>
<path d="M40.2876 49.7381C40.2876 50.5571 40.8833 51.5251 41.628 51.8973C42.3727 52.2696 42.894 51.9718 42.894 51.1528C42.894 50.3337 42.2982 49.3658 41.5536 48.9935C40.8089 48.5467 40.2876 48.919 40.2876 49.7381Z" fill="#D92800"/>
<path d="M24.649 64.4062L20.7021 57.9284L21.5958 57.4072C22.117 57.1093 22.7873 57.1838 23.5319 57.5561C25.0213 58.3751 26.2873 60.4599 26.2873 62.1725C26.2873 62.9915 25.9894 63.5872 25.5426 63.885H25.4681L24.649 64.4062Z" fill="black"/>
<path d="M21.3726 58.3006L23.0109 57.3326C23.1598 57.4071 23.3087 57.4816 23.4577 57.556C24.947 58.3751 26.213 60.4599 26.213 62.1724C26.213 62.4702 26.213 62.7681 26.1385 62.9915L25.1704 63.5871C24.947 63.5127 24.7236 63.4382 24.4257 63.2893C24.1279 63.1404 23.9045 62.917 23.6066 62.6936L21.5215 59.2686C21.447 58.9707 21.447 58.6729 21.3726 58.3006Z" fill="#1F1F1F"/>
<path d="M19.9575 59.6409C19.9575 61.3534 21.2235 63.4383 22.7128 64.2573C24.2022 65.0763 25.3937 64.4062 25.3937 62.6937C25.3937 60.9811 24.1277 58.8963 22.6384 58.0773C21.149 57.2582 19.9575 57.9283 19.9575 59.6409Z" fill="#2A2A2A"/>
<path d="M20.1063 59.7153C20.1063 61.3534 21.2978 63.3638 22.7872 64.1083C24.2021 64.9274 25.3936 64.2573 25.3936 62.6192C25.3936 60.9811 24.2021 58.9707 22.7127 58.2261C21.2234 57.4071 20.0319 58.0772 20.1063 59.7153Z" fill="#1D1D1D"/>
<path d="M20.7021 60.0132C20.7021 61.279 21.6702 62.8426 22.7872 63.4383C23.9042 64.034 24.7978 63.5128 24.7978 62.247C24.7978 60.9812 23.8297 59.4176 22.7127 58.8219C21.5212 58.2262 20.6276 58.7474 20.7021 60.0132Z" fill="#3B3B3B"/>
<path d="M20.7769 60.0877C20.7769 61.279 21.6705 62.6937 22.713 63.2894C23.7556 63.8851 24.5747 63.3639 24.5747 62.247C24.5747 61.0557 23.6811 59.641 22.6386 59.0453C21.596 58.4496 20.7769 58.8964 20.7769 60.0877Z" fill="#CA0D00"/>
<path d="M22.7128 59.0453C23.7553 59.641 24.5745 61.0557 24.6489 62.247C24.6489 62.3959 24.6489 62.5448 24.5745 62.6937L23.2341 63.5128C23.0851 63.4383 22.9362 63.4383 22.7872 63.2894C21.7447 62.6937 20.9255 61.3535 20.8511 60.1622L22.7128 59.0453Z" fill="#FF644F"/>
<path d="M23.7555 60.0132C24.1279 60.5344 24.4258 61.0556 24.5747 61.6513L22.3407 62.9915C21.8938 62.6192 21.5215 62.098 21.2236 61.5023L23.7555 60.0132Z" fill="#E9EAE7"/>
<path d="M23.7555 60.0132C24.1279 60.5344 24.4258 61.0556 24.5747 61.6513L22.3407 62.9915C21.8938 62.6192 21.5215 62.098 21.2236 61.5023L23.7555 60.0132Z" fill="#FF8372"/>
<path d="M21.1489 60.1621C21.1489 61.2045 21.8936 62.3958 22.7872 62.917C23.6808 63.4382 24.4255 62.9915 24.4255 62.0235C24.4255 60.9811 23.6808 59.7898 22.7872 59.2686C21.8936 58.7474 21.1489 59.1197 21.1489 60.1621Z" fill="#B01300"/>
<path d="M21.1489 60.6089C21.1489 61.4279 21.7447 62.3959 22.4894 62.7681C23.234 63.1404 23.7553 62.8426 23.7553 62.0236C23.7553 61.2045 23.1596 60.2366 22.4149 59.8643C21.7447 59.492 21.1489 59.7898 21.1489 60.6089Z" fill="#990F0F"/>
<path d="M23.3086 56.7371L22.8618 62.1725L23.9044 61.4279L26.2129 58.3007L23.3086 56.7371Z" fill="#C4C4C4"/>
<path d="M22.2659 57.4817L21.7446 61.2791L22.8616 62.1725L25.1702 59.0453L22.2659 57.4817Z" fill="#828282"/>
<path d="M66.5003 61.4279L65.5322 61.8001L66.9471 66.6399L69.2556 63.4382L66.5003 61.4279Z" fill="#C4C4C4"/>
<path d="M65.4576 62.1725L64.8618 66.4166L65.9044 67.3101L68.2129 64.1829L65.4576 62.1725Z" fill="#828282"/>
<path d="M54.6595 73.1922C54.0638 73.1922 53.3936 73.0433 52.8723 72.82L22.7127 58.6729C22.1914 58.4496 21.8191 57.8539 21.7446 57.2582C21.7446 56.6626 22.0425 56.0669 22.5638 55.7691L39.2446 46.0895C40.6595 45.2705 42.4468 45.3449 43.7872 46.2384L68.5106 63.1404C68.9574 63.4382 69.2553 63.9594 69.2553 64.5551C69.2553 65.1508 68.9574 65.5975 68.4361 65.8954L56.7446 72.671C56.1489 72.9689 55.4042 73.1922 54.6595 73.1922ZM41.4787 46.8341C40.9574 46.8341 40.4361 46.983 39.9893 47.2064L23.3085 56.8859C23.1595 56.9604 23.1595 57.1093 23.1595 57.1838C23.1595 57.2582 23.1595 57.3327 23.3085 57.4071L53.468 71.5542C54.3616 71.9265 55.3297 71.9265 56.1489 71.4053L67.8404 64.6296C67.9893 64.5551 67.9893 64.4807 67.9893 64.4062C67.9893 64.3317 67.9893 64.2573 67.8404 64.1828L43.117 47.2808C42.5957 46.983 41.9999 46.8341 41.4787 46.8341Z" fill="#C4C4C4"/>
<path d="M54.9574 72.7456C54.3616 72.7456 53.7659 72.5966 53.2446 72.3733L23.085 58.1518C22.6382 57.9284 22.3403 57.4817 22.3403 57.0349C22.3403 56.5137 22.5637 56.067 23.0105 55.8436L39.6914 46.164C40.2871 45.7917 40.9574 45.6428 41.702 45.6428C42.5212 45.6428 43.2659 45.8662 43.9361 46.3129L68.6595 63.2149C69.0318 63.4383 69.2552 63.885 69.2552 64.4063C69.2552 64.853 68.9573 65.2998 68.585 65.5231L56.8935 72.2244C56.2978 72.5222 55.6276 72.7456 54.9574 72.7456ZM41.702 46.3874C41.1063 46.3874 40.585 46.5363 40.0637 46.8342L23.3829 56.5137C23.1595 56.5882 23.085 56.7371 23.085 56.9604C23.085 57.1838 23.2339 57.4072 23.4574 57.4817L53.6169 71.6287C54.0637 71.8521 54.5105 71.9265 55.0318 71.9265C55.6276 71.9265 56.1488 71.7776 56.6701 71.4798L68.3616 64.7041C68.5105 64.6296 68.6595 64.4063 68.6595 64.1829C68.6595 63.9595 68.585 63.8106 68.4361 63.6617L43.5637 46.9086C42.968 46.5363 42.3722 46.3874 41.702 46.3874Z" fill="#E0E0E0"/>
<path d="M41.4041 46.3873L40.8828 50.1102L41.9998 51.0037L44.3083 47.8765L41.4041 46.3873Z" fill="#828282"/>
<path d="M56.3725 72.6711C55.4789 72.6711 54.7342 71.6287 53.9895 70.6607C53.6172 70.1395 53.0959 69.3949 52.798 69.3205L24.7236 56.0669L23.3087 56.886C22.9363 57.1094 22.3406 58.3751 22.1172 58.0028C21.0746 56.4392 23.5321 54.0566 23.9789 54.2799L24.7236 54.5033L39.3938 46.0151C39.7661 45.7917 40.2129 45.1216 40.6597 44.6004C41.5534 43.4091 42.6704 41.9199 43.9363 42.7389L68.6597 59.6409C69.5534 60.2366 69.4789 63.2149 69.4789 63.5872C69.4044 65.2253 69.1065 65.672 68.7342 65.8209L57.0427 72.5966C56.8193 72.6711 56.5959 72.6711 56.3725 72.6711ZM26.1385 55.2479L53.4683 68.1291C54.064 68.427 54.5853 69.1716 55.181 69.9161C55.5534 70.3629 56.1491 71.2564 56.447 71.3308L67.9895 64.7041C68.2874 64.034 68.1385 61.3535 67.8406 60.6833L43.1172 43.8558C42.8193 43.8558 42.0746 44.8982 41.7023 45.4194C41.1065 46.164 40.5853 46.9086 39.9895 47.2064L26.1385 55.2479Z" fill="#C4C4C4"/>
<path d="M56.5957 72.2987C55.851 72.2987 55.1063 71.2563 54.5106 70.3628C53.9893 69.6182 53.5425 69.0226 53.2446 68.8737L25.0212 55.6946C24.7233 55.5457 24.4255 55.6201 24.2765 55.8435L23.7553 56.4392C23.6808 56.5136 23.0851 57.8539 23.0106 57.8539C22.8616 57.8539 22.5638 57.705 22.4893 57.556C22.117 57.1093 24.1276 54.3543 24.2021 54.4288L24.7978 54.8011L39.617 46.2384C39.9893 46.015 40.5106 45.3449 40.9574 44.7493C41.6276 43.8558 42.4468 42.7389 43.2659 42.7389C43.4893 42.7389 43.6382 42.8133 43.8616 42.9623L68.585 59.8642C69.1063 60.2365 69.3297 61.9491 69.2553 63.5127C69.1808 65.2252 68.8085 65.4486 68.6595 65.5231L56.968 72.2987C56.8936 72.2243 56.7446 72.2987 56.5957 72.2987ZM43.2659 43.409C42.968 43.409 42.5212 43.8558 41.6276 45.1215C41.1063 45.8661 40.5851 46.5363 40.0638 46.8341L25.6914 55.1734L53.5425 68.278C54.0638 68.5014 54.5851 69.246 55.1063 69.9905C55.7021 70.884 56.1489 71.4052 56.4468 71.5542L56.5957 71.6286L68.3616 64.7785L68.4361 64.704C68.734 63.9594 68.6595 61.13 68.2872 60.4599V60.3854L43.4148 43.409H43.2659Z" fill="#E0E0E0"/>
<path d="M27.4789 55.918C27.4789 55.918 27.2555 56.2159 26.7342 56.0669C26.064 55.8436 26.1384 55.6202 26.1384 55.6202L27.8512 48.3233L25.6916 47.3553L24.1278 54.5778L23.4576 55.4713L22.564 55.3224L24.6491 45.4194L29.4895 47.5043L27.4789 55.918Z" fill="#828282"/>
<path d="M27.1812 55.9925C27.1067 55.9925 27.1067 55.9925 27.0323 55.9925C26.5854 55.8436 26.6599 55.4713 26.6599 55.4713L28.3727 48.2489L25.6918 47.0575L24.0535 54.5778L23.5323 55.2479L23.0854 55.1735L25.0961 45.8662L29.4152 47.7277L27.4791 55.918C27.4046 55.918 27.3301 55.9925 27.1812 55.9925Z" fill="#B8B8B8"/>
<path d="M45.5001 47.4297C45.5001 47.4297 45.2767 47.8765 44.7554 47.6531C44.0852 47.4297 44.2341 46.7596 44.2341 46.7596L45.8724 39.7606L43.7129 38.7926L42.0746 46.164L41.4044 47.0575L40.5107 46.9085L42.5958 37.0056L47.4363 39.0904L45.5001 47.4297Z" fill="#828282"/>
<path d="M42.2235 17.721C41.7767 17.4976 41.3299 17.2743 40.8086 17.1998L40.5107 11.7644V11.0942L42.3724 11.0198L42.4469 12.7323L42.7448 18.0188L42.2235 17.721Z" fill="#B8B8B8"/>
<path d="M43.0426 23.901L42.298 23.4542C41.9256 23.2309 41.5533 23.0819 41.1065 22.933L40.8086 18.0933C41.1065 18.1677 41.4043 18.3166 41.7022 18.4656L42.7448 19.0612L43.0426 23.901Z" fill="#B8B8B8"/>
<path d="M43.4152 30.0066L42.5216 29.4854C42.4471 29.4109 42.2982 29.4109 42.1492 29.3365C41.9258 29.262 41.7024 29.1875 41.479 29.1131L41.1812 24.1244C41.4046 24.1988 41.628 24.2733 41.8514 24.4222L43.1173 25.1668L43.4152 30.0066Z" fill="#B8B8B8"/>
<path d="M43.7128 35.2187L41.8511 35.2931L41.5532 30.0066C41.7022 30.081 41.8511 30.1555 42 30.23L42.149 30.3044L43.4149 31.049L43.7128 35.2187Z" fill="#B8B8B8"/>
<path d="M71.936 51.3015C71.8615 51.376 71.8615 51.376 71.8615 51.376L71.7126 51.4504L68.8828 53.0885C68.8828 53.0885 68.8828 53.0885 68.8083 53.0885L66.053 54.7266C66.053 54.7266 65.9785 54.7266 65.9041 54.801C65.9041 54.801 65.9041 54.801 65.8296 54.801L63.2232 56.2902C63.1488 56.3647 63.0743 56.3647 62.9998 56.4391L62.7764 56.588C62.1807 56.8859 61.436 57.0348 60.7658 57.0348C60.2445 57.0348 59.7977 56.9603 59.3509 56.8114C59.2764 56.8114 59.1275 56.7369 59.053 56.7369L27.0317 44.6747C26.2871 44.3769 25.6913 43.7068 25.5424 42.9622C25.5424 42.7388 25.4679 42.5155 25.5424 42.2921L25.6168 41.3241C25.6168 41.1008 25.6168 40.9518 25.6913 40.7285L27.0317 39.9839C27.0317 40.5051 26.9573 40.9518 26.8828 41.473L26.8083 42.2176V42.3665C26.8083 42.7388 26.9573 43.26 27.4785 43.4834L59.4998 55.4712C60.0211 55.6945 60.6168 55.769 61.2126 55.6945C61.6594 55.6201 62.0317 55.5456 62.4041 55.3223L62.553 55.2478C62.6275 55.2478 62.6275 55.2478 62.7019 55.1733L62.9254 55.0244L65.4573 53.5353L65.9785 53.2374L68.436 51.8227L69.1062 51.4504L71.4147 50.1102L71.936 51.3015Z" fill="#828282"/>
<path d="M72.2337 51.1526L72.0847 51.2271L71.9358 51.376H71.8613H71.7868L69.1805 52.8651L66.4251 54.4287C66.3507 54.5032 66.2017 54.5032 66.1273 54.5777C66.1273 54.5777 66.0528 54.5777 65.9783 54.6521C65.9783 54.6521 65.9783 54.6521 65.9039 54.6521H65.8294L65.6805 54.7266C65.0847 54.95 64.489 55.0244 63.8932 55.0244C63.5954 55.0244 63.223 55.0244 62.9251 54.95C62.7762 54.95 62.6273 54.8755 62.4783 54.801C62.4039 54.801 62.3294 54.7266 62.1805 54.7266L30.1592 42.7388C29.34 42.441 28.8188 41.7709 28.6698 40.9518C28.6698 40.7285 28.5953 40.5051 28.6698 40.3562L28.7443 39.4627C28.7443 39.2393 28.8188 39.0159 28.8188 38.7926L30.1592 38.048C30.0847 38.5692 30.0847 39.0904 30.0102 39.6116L29.9358 40.3562V40.5795C29.9358 40.9518 30.0847 41.473 30.606 41.6964L62.6273 53.6842C63.1485 53.9075 63.6698 53.982 64.2656 53.9075C64.6379 53.9075 65.0103 53.7586 65.3826 53.6842L65.4571 53.6097L65.6805 53.5353H65.7549L65.9783 53.3863L68.5847 51.8972L69.0315 51.5993L71.2656 50.2591L71.5634 50.1102H71.6379V50.6314L72.2337 51.1526Z" fill="#828282"/>
<path d="M72.234 51.0781L71.9361 51.376L71.7872 51.4504L69.4787 52.7907C69.3298 52.8651 69.2553 52.9396 69.1064 52.9396C69.0319 52.9396 68.9574 53.0141 68.883 53.0141C68.883 53.0141 68.883 53.0141 68.8085 53.0141H68.734H68.6595C68.1383 53.2374 67.5425 53.3119 66.9468 53.3119C66.6489 53.3119 66.2766 53.3119 65.9787 53.2374C65.8298 53.2374 65.7553 53.163 65.6064 53.163C65.6064 53.163 65.6064 53.163 65.5319 53.163C65.4574 53.163 65.3829 53.0885 65.3085 53.0885L33.2872 41.1008C32.4681 40.8029 31.9468 40.1328 31.7979 39.3138C31.7979 39.0904 31.7979 38.9415 31.7979 38.7181L31.8723 37.6012C31.8723 37.4523 31.8723 37.2289 31.9468 37.08L33.2872 36.3354C33.2872 36.7822 33.2127 37.3034 33.1383 37.7502L33.0638 38.6437V38.867C33.0638 39.2393 33.2127 39.7605 33.734 39.9839L65.7553 51.9716C66.2766 52.195 66.7978 52.2695 67.3936 52.195C67.7659 52.195 68.0638 52.1206 68.4361 51.9716H68.5106H68.5851H68.6595C68.734 51.9716 68.8085 51.8972 68.883 51.8227L69.1064 51.6738L71.3404 50.408L71.6383 50.2591H71.7127L71.9361 50.1846V50.6314L72.5319 50.9292L72.234 51.0781Z" fill="#828282"/>
<path d="M72.2338 51.0782L72.0104 51.376H71.9359H71.8615V51.4504H71.7125C71.1912 51.5994 70.67 51.6738 70.2232 51.6738C69.9253 51.6738 69.5529 51.6738 69.2551 51.5994C69.1061 51.5994 68.9572 51.5249 68.8083 51.4504C68.7338 51.4504 68.6593 51.376 68.5849 51.376L36.5636 39.3882C35.7444 39.0904 35.2232 38.4203 35.0742 37.6012C35.0742 37.4523 35.0742 37.229 35.0742 37.0056L35.1487 36.1121C35.1487 35.8887 35.2232 35.6653 35.2232 35.3675L36.5636 34.6229C36.4891 35.1441 36.4891 35.6653 36.4146 36.1865L36.3402 36.8567V37.08C36.3402 37.4523 36.4891 37.9735 37.0104 38.1969L69.0317 50.1847C69.5529 50.3336 70.0742 50.408 70.5955 50.408C70.8934 50.408 71.1912 50.3336 71.4146 50.2591L71.4891 50.1847L71.8615 50.1102H71.9359H72.0104H72.2338V50.6314L72.8295 50.9292L72.2338 51.0782Z" fill="#828282"/>
<path d="M74.3189 49.8124C73.9466 49.8869 73.5743 49.9613 73.2019 49.9613C72.6806 49.9613 72.1594 49.8869 71.7126 49.738C71.6381 49.738 71.5636 49.6635 71.4892 49.6635L39.4679 37.6013C38.6487 37.3035 38.1275 36.6333 37.9785 35.7398C37.9785 35.5909 37.9785 35.3675 37.9785 35.2186L38.053 34.623C38.053 34.3251 38.1275 33.9528 38.1275 33.655C38.4998 33.5061 38.9466 33.4316 39.3934 33.3572C39.3934 33.8039 39.3189 34.2507 39.2445 34.6974L39.17 35.2186V35.2931C39.17 35.6654 39.3189 36.1866 39.8402 36.41L71.8615 48.3977C72.3083 48.5466 72.8296 48.6211 73.3509 48.6211C73.5743 48.6211 73.7977 48.6211 73.9466 48.5466H74.0955V49.2167L74.3189 49.8124Z" fill="#828282"/>
<path d="M60.9894 56.5136C60.5426 56.5136 60.0958 56.4391 59.649 56.2902C59.5745 56.2902 59.4256 56.2158 59.3511 56.2158L27.3298 44.228C26.6596 44.0046 26.1383 43.409 26.0639 42.7389C26.0639 42.5899 25.9894 42.3666 26.0639 42.1432C26.0639 42.1432 26.2128 40.8774 26.2128 40.7285L26.9575 40.2817C26.9575 40.4307 26.7341 42.2176 26.7341 42.2176C26.6596 42.7389 26.9575 43.3345 27.6277 43.6324L59.649 55.6201C60.0958 55.769 60.5426 55.8435 61.0639 55.8435C61.2128 55.8435 61.3617 55.8435 61.5107 55.8435C61.9575 55.769 62.4043 55.6946 62.7766 55.4712L62.9256 55.3967C63 55.3967 63 55.3223 63.0745 55.3223L71.4894 50.4825L71.8617 51.0782L69.1064 52.6418H69.0319L68.9575 52.7162L66.1277 54.3543H65.9787H65.9043L63.2979 55.8435C63.2234 55.8435 63.0745 55.9924 63.0745 55.9924L62.8511 56.0668C62.2553 56.3647 61.6596 56.5136 60.9894 56.5136Z" fill="#E0E0E0"/>
<path d="M64.1171 54.7266C63.8192 54.7266 63.5213 54.7266 63.149 54.6522C63.0001 54.6522 62.8511 54.5777 62.7022 54.5777C62.5532 54.5777 62.4788 54.5032 62.4043 54.5032L30.383 42.5155C29.7128 42.2921 29.1915 41.6964 29.1171 40.9519C29.1171 40.803 29.0426 40.5796 29.1171 40.3562L29.1916 39.4627C29.1916 39.3138 29.266 39.0904 29.266 38.9415L30.0107 38.4948C30.0107 38.867 29.9362 39.1649 29.9362 39.5372L29.7873 40.5051C29.7128 41.0263 30.0107 41.622 30.6809 41.9198L62.7022 53.9076C63.149 54.0565 63.5958 54.1309 64.0426 54.1309C64.1915 54.1309 64.266 54.1309 64.415 54.1309C64.7873 54.1309 65.2341 53.982 65.6064 53.8331L65.9788 53.6842L66.2767 53.4608L68.883 51.9717L71.5639 50.408V50.6314L71.8618 50.9293H71.7873L71.7128 51.0037L69.1064 52.4929H69.032V52.5673L66.3511 54.0565C66.2767 54.1309 66.2022 54.1309 66.1277 54.2054L66.0532 54.3543H65.9788L65.7554 54.4288C65.2341 54.6522 64.6384 54.7266 64.1171 54.7266Z" fill="#E0E0E0"/>
<path d="M67.1702 53.0141C66.8723 53.0141 66.5744 53.0141 66.2765 52.9396H66.2021C66.1276 52.9396 66.0531 52.8652 65.9042 52.8652H65.8297H65.7553L65.5319 52.7162L33.5106 40.7285C32.8404 40.5051 32.3191 39.9095 32.2446 39.1649C32.2446 39.016 32.2446 38.7926 32.2446 38.6437C32.2446 38.6437 32.3936 37.3034 32.3936 37.1545L33.1382 36.7078C33.1382 37.0056 32.9893 38.4203 32.9893 38.4203V38.6437C32.9148 39.1649 33.2127 39.7605 33.8085 40.0584L65.8297 52.0461C66.2765 52.195 66.7234 52.2695 67.1702 52.2695C67.3191 52.2695 67.3936 52.2695 67.5425 52.2695C67.9148 52.2695 68.2872 52.195 68.6595 52.0461L68.8085 51.9717H68.8829L68.9574 51.8972L69.0319 51.8227C69.1063 51.8227 69.1808 51.7483 69.2553 51.6738L69.4787 51.5249L71.9361 50.1102V50.6314L72.234 50.7803L72.1595 50.8548L72.234 50.9293L69.7021 52.4184C69.5531 52.4929 69.4787 52.5673 69.4042 52.5673H69.3297L69.2553 52.6418H69.1808L69.0319 52.7162H68.9574C68.2872 52.8652 67.6914 53.0141 67.1702 53.0141Z" fill="#E0E0E0"/>
<path d="M70.2981 51.2271C70.0002 51.2271 69.7023 51.2271 69.4045 51.1526C69.1811 51.0782 69.0321 51.0782 68.8832 51.0037C68.8087 51.0037 68.7343 50.9293 68.6598 50.9293L36.6385 38.9415C35.9683 38.7181 35.447 38.1225 35.3726 37.3779C35.3726 37.1545 35.3726 37.0056 35.3726 36.8567L35.5215 35.3675L36.2662 34.9208L36.1172 36.6333V36.8567C36.0428 37.3779 36.3406 37.9736 37.0109 38.2714L69.0321 50.2591C69.4789 50.4081 69.9257 50.4825 70.447 50.4825C70.5215 50.4825 70.6704 50.4825 70.7449 50.4825C71.0428 50.4825 71.3406 50.4081 71.6385 50.3336H71.713L71.7875 50.2591L72.0109 50.1847H72.0853V50.6314L72.3832 50.7803L72.3087 50.8548L72.3832 50.9293H72.3087L72.2343 51.0037H72.1598H72.0853C71.2662 51.1526 70.7449 51.2271 70.2981 51.2271Z" fill="#E0E0E0"/>
<path d="M73.3511 49.4401C72.9043 49.4401 72.383 49.3657 71.9362 49.2168L71.7872 49.1423L39.766 37.1545C39.0957 36.9312 38.5745 36.2611 38.5 35.5165C38.5 35.3676 38.5 35.2186 38.5 34.9953C38.5 34.9953 38.6489 33.8784 38.6489 33.655C38.8723 33.5806 39.0957 33.5061 39.3191 33.5061C39.3191 33.7295 39.2447 33.9529 39.2447 34.1762L39.1702 35.0697C39.0957 35.6654 39.3936 36.2611 39.9894 36.4844L72.0106 48.4722C72.4574 48.6211 72.9043 48.6955 73.3511 48.6955C73.4255 48.6955 73.5745 48.6955 73.5745 48.6955C73.7234 48.6955 73.8723 48.6955 74.0213 48.6211V48.9189L74.0957 49.2912C73.8723 49.4401 73.6489 49.4401 73.3511 49.4401Z" fill="#E0E0E0"/>
<path d="M44.1818 35.2453L26.0952 46.2074L26.7515 47.2899L44.8381 36.3278L44.1818 35.2453Z" fill="#AEAEAE"/>
<path d="M47.1577 36.3871L29.0732 47.3492L29.7295 48.4316L47.814 37.4695L47.1577 36.3871Z" fill="#AEAEAE"/>
<path d="M50.8825 37.5066L32.7959 48.4688L33.4522 49.5513L51.5387 38.5891L50.8825 37.5066Z" fill="#AEAEAE"/>
<path d="M53.7135 38.9225L35.627 49.8826L36.2831 50.9651L54.3697 40.005L53.7135 38.9225Z" fill="#AEAEAE"/>
<path d="M57.1938 39.8798L39.1094 50.8419L39.7656 51.9243L57.8501 40.9622L57.1938 39.8798Z" fill="#AEAEAE"/>
<path d="M60.2482 41.166L42.1616 52.1282L42.8179 53.2107L60.9045 42.2485L60.2482 41.166Z" fill="#AEAEAE"/>
<path d="M63.3647 42.7802L45.2803 53.7423L45.9365 54.8247L64.021 43.8626L63.3647 42.7802Z" fill="#AEAEAE"/>
<path d="M66.8029 43.836L48.7163 54.7981L49.3726 55.8806L67.4592 44.9185L66.8029 43.836Z" fill="#AEAEAE"/>
<path d="M70.2261 44.8893L52.1416 55.8514L52.7979 56.9338L70.8823 45.9717L70.2261 44.8893Z" fill="#AEAEAE"/>
<path d="M43.971 35.356L26.3281 46.0417L26.6754 46.6149L44.3182 35.9292L43.971 35.356Z" fill="#E0E0E0"/>
<path d="M47.0154 36.4626L29.3726 47.1483L29.7198 47.7215L47.3626 37.0357L47.0154 36.4626Z" fill="#E0E0E0"/>
<path d="M50.7346 37.5797L33.0918 48.2655L33.439 48.8387L51.0819 38.1529L50.7346 37.5797Z" fill="#E0E0E0"/>
<path d="M53.5691 38.9943L35.9263 49.6801L36.2735 50.2532L53.9163 39.5675L53.5691 38.9943Z" fill="#E0E0E0"/>
<path d="M57.0266 40.0581L39.3838 50.7439L39.731 51.3171L57.3739 40.6313L57.0266 40.0581Z" fill="#E0E0E0"/>
<path d="M60.1384 41.3028L42.4956 51.9885L42.8428 52.5617L60.4857 41.8759L60.1384 41.3028Z" fill="#E0E0E0"/>
<path d="M63.198 42.9587L45.5552 53.6444L45.9024 54.2176L63.5452 43.5318L63.198 42.9587Z" fill="#E0E0E0"/>
<path d="M66.6922 43.9751L49.0493 54.6609L49.3966 55.234L67.0394 44.5483L66.6922 43.9751Z" fill="#E0E0E0"/>
<path d="M70.1233 45.0267L52.4805 55.7124L52.8277 56.2856L70.4705 45.5998L70.1233 45.0267Z" fill="#E0E0E0"/>
<path d="M47.9576 36.9312L47.064 36.8568L48.5533 15.7107L49.4469 15.7852L47.9576 36.9312Z" fill="#828282"/>
<path d="M51.8362 17.7964L50.3271 38.0665L51.2183 38.1329L52.7273 17.8627L51.8362 17.7964Z" fill="#828282"/>
<path d="M55.0871 19.9105L53.5684 39.2838L54.4592 39.3536L55.9779 19.9803L55.0871 19.9105Z" fill="#828282"/>
<path d="M58.4021 22.1033L56.8823 40.5803L57.7729 40.6536L59.2927 22.1765L58.4021 22.1033Z" fill="#828282"/>
<path d="M61.6472 24.2149L60.1304 41.7961L61.0207 41.8729L62.5376 24.2917L61.6472 24.2149Z" fill="#828282"/>
<path d="M64.9692 26.2568L63.457 43.017L64.3471 43.0972L65.8592 26.337L64.9692 26.2568Z" fill="#828282"/>
<path d="M68.2207 28.3739L66.6948 44.2346L67.5843 44.3202L69.1103 28.4594L68.2207 28.3739Z" fill="#828282"/>
<path d="M71.4518 30.4876L69.9541 45.4529L70.8432 45.5418L72.341 30.5765L71.4518 30.4876Z" fill="#828282"/>
<path d="M74.7803 32.6051L73.2607 46.67L74.1492 46.766L75.6688 32.701L74.7803 32.6051Z" fill="#828282"/>
<path d="M45.0665 13.644L44.0303 35.7338L44.9229 35.7756L45.9591 13.6859L45.0665 13.644Z" fill="#828282"/>
<path d="M49.0558 16.0423L47.585 36.6156L47.9564 36.6421L49.4272 16.0688L49.0558 16.0423Z" fill="#B8B8B8"/>
<path d="M50.8613 37.8991L52.2762 18.1677L52.6486 18.2422L51.2337 37.8991H50.8613Z" fill="#B8B8B8"/>
<path d="M55.6128 20.352L54.1475 39.1334L54.5187 39.1624L55.984 20.381L55.6128 20.352Z" fill="#B8B8B8"/>
<path d="M57.4146 40.3561L58.8294 22.4117H59.2018L57.7869 40.3561H57.4146Z" fill="#B8B8B8"/>
<path d="M60.6914 41.5475L62.1063 24.4966L62.4786 24.571L61.0637 41.6219L60.6914 41.5475Z" fill="#B8B8B8"/>
<path d="M63.9678 42.8133L65.3827 26.6559H65.755L64.3401 42.8133H63.9678Z" fill="#B8B8B8"/>
<path d="M68.6676 28.7424L67.2119 44.0117L67.5826 44.047L69.0382 28.7777L68.6676 28.7424Z" fill="#B8B8B8"/>
<path d="M71.9877 30.792L70.5298 45.2373L70.9002 45.2747L72.3582 30.8294L71.9877 30.792Z" fill="#B8B8B8"/>
<path d="M75.2335 32.903L73.7808 46.4512L74.151 46.4909L75.6037 32.9427L75.2335 32.903Z" fill="#B8B8B8"/>
<path d="M44.5317 35.5164L45.5743 13.998H45.9466L44.9041 35.5164H44.5317Z" fill="#B8B8B8"/>
<path d="M63.2234 41.771L61.2128 43.0368L49 38.4204L41.8511 33.804L63.2234 41.771Z" fill="#C4C4C4"/>
<path d="M73.5747 45.6428V46.015L73.5002 47.2064L73.3513 47.6531C73.2768 47.5787 73.2023 47.5042 73.0534 47.4297L63.3726 43.8558L65.4577 42.6644L73.5747 45.6428Z" fill="#C4C4C4"/>
<path d="M40.9576 29.6343C39.8406 29.1876 38.5746 29.262 37.5321 29.8577L24.2767 37.5269L23.5321 37.9736C23.2342 38.1226 23.0108 38.4204 22.9363 38.7182C22.9363 38.5693 22.9363 38.3459 22.9363 38.0481C22.8618 37.5269 22.415 37.7503 22.415 37.7503C22.564 37.5269 22.7874 37.3035 23.0853 37.1546L24.2023 36.5589L37.0852 29.1131C38.2767 28.443 39.6172 28.2941 40.8831 28.7408L40.9576 29.6343Z" fill="#828282"/>
<path d="M23.532 37.6013C23.4575 37.4524 23.3831 37.378 23.3086 37.3035C23.3831 37.229 23.4575 37.229 23.532 37.1546L37.532 29.0387C38.2022 28.6664 39.0214 28.443 39.766 28.443C40.1384 28.443 40.5852 28.5175 40.9575 28.5919V28.9642C40.5852 28.8153 40.2128 28.8153 39.766 28.8153C39.0214 28.8153 38.3511 29.0387 37.6809 29.3365L23.7554 37.4524C23.6809 37.5269 23.6065 37.5269 23.532 37.6013Z" fill="#C4C4C4"/>
<path d="M40.5853 23.6777C39.4683 23.2309 38.2023 23.3054 37.1597 23.901L23.9789 31.5702L23.2342 32.017C22.9363 32.1659 22.7129 32.4637 22.6385 32.7616C22.6385 32.6126 22.6385 32.3893 22.6385 32.0914C22.564 31.5702 22.1172 31.7936 22.1172 31.7936C22.2661 31.5702 22.4895 31.3469 22.7874 31.1979L23.9044 30.6023L36.7874 23.1565C37.9789 22.4863 39.3193 22.3374 40.5853 22.7842V23.6777Z" fill="#828282"/>
<path d="M23.2341 31.6447C23.1597 31.4958 23.0852 31.4213 23.0107 31.3468C23.0852 31.2724 23.1597 31.2724 23.2341 31.1979L37.2341 23.082C37.9044 22.7097 38.7235 22.4863 39.4682 22.4863C39.8405 22.4863 40.2873 22.5608 40.6597 22.6352V23.0075C40.2873 22.8586 39.915 22.8586 39.4682 22.8586C38.7235 22.8586 38.0533 23.082 37.3831 23.3798L23.4576 31.4958C23.3831 31.5702 23.3086 31.5702 23.2341 31.6447Z" fill="#C4C4C4"/>
<path d="M40.4363 18.0189C39.3193 17.5721 38.0534 17.6466 37.0108 18.2422L23.83 25.837L23.0853 26.2837C22.7874 26.4326 22.564 26.7304 22.4895 27.0283C22.4895 26.8794 22.4895 26.656 22.4895 26.3582C22.4151 25.837 21.9683 26.0603 21.9683 26.0603C22.1172 25.837 22.3406 25.6136 22.6385 25.4647L23.7555 24.869L36.6385 17.4232C37.83 16.7531 39.1704 16.6042 40.4363 17.0509V18.0189Z" fill="#828282"/>
<path d="M23.0852 25.9114C23.0108 25.7625 22.9363 25.688 22.8618 25.6136C22.9363 25.5391 23.0108 25.5391 23.0852 25.4646L37.0108 17.4232C37.681 17.0509 38.5001 16.8275 39.2448 16.8275C39.6171 16.8275 40.0639 16.902 40.4363 16.9764V17.3487C40.0639 17.1998 39.6916 17.1998 39.2448 17.1998C38.5001 17.1998 37.8299 17.4232 37.1597 17.721L23.3086 25.8369C23.2342 25.8369 23.1597 25.9114 23.0852 25.9114Z" fill="#C4C4C4"/>
<path d="M65.6063 53.2375C65.6063 53.2375 65.5318 53.2375 65.6063 53.2375C65.5318 53.2375 65.5318 53.2375 65.6063 53.2375L64.2658 53.9821C64.6382 53.9821 65.0105 53.8332 65.3829 53.7587L65.4573 53.6843L65.9786 53.3864C65.8297 53.312 65.7552 53.312 65.6063 53.2375ZM65.6063 53.2375C65.6063 53.2375 65.5318 53.2375 65.6063 53.2375C65.5318 53.2375 65.5318 53.2375 65.6063 53.2375L64.2658 53.9821C64.6382 53.9821 65.0105 53.8332 65.3829 53.7587L65.4573 53.6843L65.9786 53.3864C65.8297 53.312 65.7552 53.312 65.6063 53.2375ZM65.6063 53.2375C65.6063 53.2375 65.5318 53.2375 65.6063 53.2375C65.5318 53.2375 65.5318 53.2375 65.6063 53.2375L64.2658 53.9821C64.6382 53.9821 65.0105 53.8332 65.3829 53.7587L65.4573 53.6843L65.9786 53.3864C65.8297 53.312 65.7552 53.312 65.6063 53.2375ZM65.6063 53.2375C65.6063 53.2375 65.5318 53.2375 65.6063 53.2375C65.5318 53.2375 65.5318 53.2375 65.6063 53.2375L64.2658 53.9821C64.6382 53.9821 65.0105 53.8332 65.3829 53.7587L65.4573 53.6843L65.9786 53.3864C65.8297 53.312 65.7552 53.312 65.6063 53.2375ZM65.6063 53.2375C65.6063 53.2375 65.5318 53.2375 65.6063 53.2375C65.5318 53.2375 65.5318 53.2375 65.6063 53.2375L64.2658 53.9821C64.6382 53.9821 65.0105 53.8332 65.3829 53.7587L65.4573 53.6843L65.9786 53.3864C65.8297 53.312 65.7552 53.312 65.6063 53.2375ZM65.6063 53.2375C65.6063 53.2375 65.5318 53.2375 65.6063 53.2375C65.5318 53.2375 65.5318 53.2375 65.6063 53.2375L64.2658 53.9821C64.6382 53.9821 65.0105 53.8332 65.3829 53.7587L65.4573 53.6843L65.9786 53.3864C65.8297 53.312 65.7552 53.312 65.6063 53.2375ZM63.2233 41.771L61.1382 42.9623L63.3722 43.7814L65.4573 42.59L63.2233 41.771ZM65.6063 53.2375C65.6063 53.2375 65.5318 53.2375 65.6063 53.2375C65.5318 53.2375 65.5318 53.2375 65.6063 53.2375L64.2658 53.9821C64.6382 53.9821 65.0105 53.8332 65.3829 53.7587L65.4573 53.6843L65.9786 53.3864C65.8297 53.312 65.7552 53.312 65.6063 53.2375ZM65.6063 53.2375C65.6063 53.2375 65.5318 53.2375 65.6063 53.2375C65.5318 53.2375 65.5318 53.2375 65.6063 53.2375L64.2658 53.9821C64.6382 53.9821 65.0105 53.8332 65.3829 53.7587L65.4573 53.6843L65.9786 53.3864C65.8297 53.312 65.7552 53.312 65.6063 53.2375ZM65.6063 53.2375C65.6063 53.2375 65.5318 53.2375 65.6063 53.2375C65.5318 53.2375 65.5318 53.2375 65.6063 53.2375L64.2658 53.9821C64.6382 53.9821 65.0105 53.8332 65.3829 53.7587L65.4573 53.6843L65.9786 53.3864C65.8297 53.312 65.7552 53.312 65.6063 53.2375ZM65.6063 53.2375C65.6063 53.2375 65.5318 53.2375 65.6063 53.2375C65.5318 53.2375 65.5318 53.2375 65.6063 53.2375L64.2658 53.9821C64.6382 53.9821 65.0105 53.8332 65.3829 53.7587L65.4573 53.6843L65.9786 53.3864C65.8297 53.312 65.7552 53.312 65.6063 53.2375Z" fill="#C4C4C4"/>
<path d="M74.0956 50.4081L60.319 58.3751C59.4999 58.8219 58.6063 59.0452 57.7126 59.0452C57.1169 59.0452 56.4467 58.9708 55.8509 58.7474L23.8297 46.7596C22.8616 46.3874 22.2658 45.5683 22.1169 44.5259C22.0424 43.4835 22.4892 42.59 23.3828 42.0688L25.6914 40.7285L27.0318 39.984L28.819 38.9416L30.1594 38.197L31.9467 37.1546L33.2871 36.41L35.0743 35.3676L36.4148 34.623L37.3084 34.1018C37.6063 33.9529 37.9041 33.8039 38.202 33.655H38.2765L41.0318 35.442C40.436 35.2186 39.8403 35.2186 39.2446 35.2931C38.8722 35.3676 38.4999 35.5165 38.202 35.6654L37.9786 35.8143L36.1169 36.9312L34.8509 37.6758L32.9892 38.7182L31.7233 39.4628L29.8616 40.5796L28.6701 41.2498L26.8084 42.2922L25.6169 42.9623L24.4254 43.6324C24.0531 43.8558 24.0531 44.2281 24.0531 44.377C24.0531 44.5259 24.1275 44.8982 24.4999 45.0471L56.5211 57.0349C57.4892 57.4072 58.5318 57.3327 59.3509 56.8115L61.1382 55.7691L62.4041 55.0245L64.1914 53.9821C64.5637 53.9821 64.936 53.8332 65.3084 53.7587L65.3829 53.6842L65.9041 53.3864C65.7552 53.3864 65.6807 53.312 65.5318 53.312C65.5318 53.312 65.5318 53.312 65.4573 53.312L67.2446 52.2695L68.5105 51.525L70.2977 50.4826L71.6382 49.738L73.1275 48.8445C73.1275 48.8445 73.202 48.8445 73.202 48.77L73.2765 48.6956C73.4999 48.4722 73.4999 48.2488 73.4999 48.0999C73.4999 48.0254 73.4254 47.8021 73.2765 47.6531L73.3509 47.2064L73.4254 46.0151V45.6428L73.5743 45.7172C74.319 46.0151 74.8403 46.5363 75.1382 47.2809C75.2126 47.5042 75.2871 47.7276 75.2871 47.951C75.5105 48.9189 74.9892 49.8869 74.0956 50.4081Z" fill="#C4C4C4"/>
<path d="M65.3086 43.7069L42.8937 30.7512L41.6277 30.0066L41.4788 29.9322C41.3299 29.8577 41.1809 29.7833 41.032 29.7088L40.9575 28.7408C41.1809 28.8153 41.4043 28.8898 41.6277 28.9642C41.7022 29.0387 41.8511 29.0387 42.0001 29.1131L42.8937 29.6343L65.9043 42.9623C65.9788 42.9623 65.3831 43.7069 65.3086 43.7069Z" fill="#828282"/>
<path d="M41.5533 29.411C41.4043 29.3365 41.032 29.1131 40.9575 29.0387V28.6664C41.032 28.6664 41.6277 29.0387 41.6277 29.0387C41.7022 29.0387 41.7767 29.1131 41.8511 29.1131L65.6065 42.8134C65.532 42.8879 65.4575 43.0368 65.3831 43.1112L41.5533 29.411Z" fill="#C4C4C4"/>
<path d="M41.6278 17.3487C41.181 17.1253 40.7342 16.9019 40.2129 16.8275L39.915 11.392V10.7219L41.7767 10.6475L41.8512 12.36L42.1491 17.6465L41.6278 17.3487Z" fill="#828282"/>
<path d="M42.0746 17.6465L41.6278 17.3487C41.4044 17.1998 41.1065 17.0509 40.8086 16.9764L40.5107 11.7644V11.0942L41.7767 11.0198L41.8512 12.36L42.0746 17.6465Z" fill="#9E9E9E"/>
<path d="M42.4469 23.5287L41.7023 23.0819C41.3299 22.8586 40.9576 22.7096 40.5108 22.5607L40.2129 17.7954C40.5108 17.8699 40.8086 18.0188 41.1065 18.1677L42.1491 18.7634L42.4469 23.5287Z" fill="#828282"/>
<path d="M42.4469 23.5287L41.7022 23.082C41.5533 23.0075 41.3299 22.8586 41.1065 22.7841L40.8086 18.0933C41.1065 18.1677 41.4043 18.3166 41.7022 18.4656L42.0746 18.6889L42.4469 23.5287Z" fill="#9E9E9E"/>
<path d="M42.8193 29.6343L41.8512 29.0386C41.7767 28.9641 41.6278 28.9641 41.4788 28.8897C41.2554 28.8152 41.032 28.7408 40.8086 28.6663L40.5107 23.6776C40.7341 23.7521 40.9575 23.8265 41.181 23.9754L42.4469 24.72L42.8193 29.6343Z" fill="#828282"/>
<path d="M42.8192 29.6343L41.8511 29.0386C41.7767 28.9642 41.6277 28.9642 41.4788 28.8897C41.4788 28.8897 41.4788 28.8897 41.4043 28.8897L41.1064 24.0499C41.3298 24.1244 41.5533 24.1988 41.7767 24.3478L42.4469 24.7201L42.8192 29.6343Z" fill="#9E9E9E"/>
<path d="M43.1171 34.8463L41.2554 34.9953L40.9575 29.6343C41.1065 29.7087 41.2554 29.7832 41.4043 29.8577L41.5533 29.9321L42.8192 30.6767L43.1171 34.8463Z" fill="#828282"/>
<path d="M43.1171 34.8464L41.8511 34.9208L41.5532 30.0066C41.7022 30.081 41.8511 30.1555 42 30.23L42.149 30.3044L42.8192 30.6767L43.1171 34.8464Z" fill="#9E9E9E"/>
<path d="M27.0322 39.9839L25.6918 40.7285C25.8407 39.016 25.9896 37.3034 25.8407 35.6654L24.1279 17.9443L25.3194 17.8699L27.0322 35.5909C27.2556 37.0801 27.1811 38.5692 27.0322 39.9839Z" fill="#9E9E9E"/>
<path d="M30.1596 38.1969L28.8192 38.9415C28.9681 37.1545 29.1171 35.442 28.9681 33.7294L27.4043 16.0084L28.6703 15.934L30.2341 33.655C30.383 35.2186 30.3085 36.7078 30.1596 38.1969Z" fill="#9E9E9E"/>
<path d="M33.2126 36.4099L31.8722 37.1545C32.0211 35.3675 32.17 33.7294 32.0211 32.0169L30.5317 14.2214L31.7977 14.147L33.3615 31.868C33.436 33.4316 33.3615 34.9208 33.2126 36.4099Z" fill="#9E9E9E"/>
<path d="M36.3403 34.6229L34.9999 35.3675C35.1488 33.655 35.2977 32.0169 35.0743 30.3788L33.2871 12.5834L34.5531 12.4344L36.3403 30.2299C36.5637 31.7191 36.4892 33.2082 36.3403 34.6229Z" fill="#9E9E9E"/>
<path d="M39.3938 33.4316C38.947 33.4316 38.5746 33.5806 38.1278 33.7295C38.1278 33.2827 38.2023 32.7615 38.1278 32.3148L36.1172 11.0198L37.3831 10.9453L39.3938 32.2403C39.4683 32.6126 39.4683 32.9849 39.3938 33.4316Z" fill="#9E9E9E"/>
<path d="M26.2872 40.2818C26.4362 38.7181 26.5106 37.229 26.3617 35.6654L24.6489 18.2422L25.3191 18.1677L27.0319 35.5909C27.1808 37.0801 27.1064 38.5692 26.9574 39.835L26.2872 40.2818Z" fill="#B1B1B1"/>
<path d="M29.4149 38.4948C29.5638 37.0056 29.6383 35.3675 29.5638 33.8039L28 16.3063L28.6702 16.2318L30.234 33.7295C30.383 35.2931 30.3085 36.7822 30.1596 38.048L29.4149 38.4948Z" fill="#B1B1B1"/>
<path d="M32.5426 36.7078C32.6915 35.0697 32.766 33.5805 32.6171 32.0169L31.0532 14.5193L31.7234 14.4448L33.2873 31.9425C33.3617 33.2083 33.3617 34.5485 33.2128 36.261L32.5426 36.7078Z" fill="#B1B1B1"/>
<path d="M35.6703 34.9208C35.8192 33.4317 35.8937 31.9425 35.7448 30.4533L33.9575 12.9557L34.6277 12.8812L36.415 30.3789C36.5639 31.868 36.4894 33.3572 36.415 34.5485L35.6703 34.9208Z" fill="#B1B1B1"/>
<path d="M38.7235 33.3572C38.7235 32.9849 38.7235 32.6126 38.7235 32.3148L36.7129 11.3176L37.3831 11.2432L39.3937 32.2403C39.3937 32.5382 39.3937 32.836 39.3937 33.2083C39.1703 33.2827 38.9469 33.2827 38.7235 33.3572Z" fill="#B1B1B1"/>
<path d="M64.4695 42.1161L63.2651 55.465L64.1552 55.5452L65.3595 42.1964L64.4695 42.1161Z" fill="#9E9E9E"/>
<path d="M68.8176 39.5259L67.6133 52.8748L68.5033 52.955L69.7077 39.6062L68.8176 39.5259Z" fill="#9E9E9E"/>
<path d="M72.4163 37.6817L71.2119 51.0305L72.102 51.1108L73.3063 37.762L72.4163 37.6817Z" fill="#9E9E9E"/>
<path d="M61.2871 44.6003L60.9892 47.951L60.8403 49.1423L60.4679 53.6098L60.319 54.7266L60.1701 56.8115C60.1701 56.8115 60.0956 57.7794 59.1275 57.9283C58.3084 58.0772 58.2339 57.4071 58.2339 57.4071L58.4573 55.2478L58.5318 54.2799L58.9041 49.8124L58.9786 48.8444L59.3509 44.5259L61.2871 44.6003Z" fill="#9E9E9E"/>
<path d="M76.2553 36.1866L75.6596 42.9623L75.3617 46.0151L75.2128 47.2809L75.1383 48.3233C75.1383 48.3233 75.0638 49.2912 74.2447 49.2912C73.5 49.2912 73.2021 48.6956 73.2021 48.6956L73.2766 47.5787L73.3511 47.132L73.4255 45.9406V45.5683L73.649 42.6645L73.7234 41.6221L74.2447 35.8888L76.2553 36.1866Z" fill="#9E9E9E"/>
<path d="M73.9469 41.771L73.8724 42.8134L42.5214 24.6456L41.2554 23.901C41.032 23.7521 40.8086 23.6777 40.5852 23.6032L40.5107 22.5608C40.8831 22.6352 41.3299 22.8586 41.7022 23.082L42.4469 23.5287L73.9469 41.771Z" fill="#828282"/>
<path d="M41.3299 23.5288C41.181 23.4543 40.5852 23.1565 40.3618 23.082V22.6353C40.5852 22.7097 41.3299 23.082 41.5533 23.2309L42.298 23.6777L73.6491 41.6965L73.5746 42.1433L41.3299 23.5288Z" fill="#C4C4C4"/>
<path d="M73.5743 35.8143L72.6063 36.3355L42.1488 18.7634L41.1063 18.1678C40.8084 18.0188 40.5105 17.8699 40.2127 17.7955L40.1382 16.7531C40.6595 16.8275 41.1063 17.0509 41.5531 17.2743L41.9999 17.5721L73.5743 35.8143Z" fill="#828282"/>
<path d="M42.298 18.3167L41.2554 17.721C41.032 17.5721 40.4363 17.4232 40.2129 17.2743V16.8275C40.5852 16.902 41.181 17.1253 41.4788 17.3487L41.9257 17.6466L73.0533 35.5909L72.681 35.8143L42.298 18.3167Z" fill="#C4C4C4"/>
<path d="M76.181 37.3035V37.6014C76.181 37.6014 75.5853 38.197 75.5853 38.7927C75.5853 39.3883 74.3193 37.4524 74.3193 37.4524V37.378L74.3938 36.3356V36.1866L76.181 37.3035Z" fill="#9E9E9E"/>
<path d="M29.4148 47.5043C28.968 47.5788 28.8936 47.0576 28.8936 47.0576L30.3084 27.1772L31.2021 27.2517L29.7872 47.0576C29.7872 47.0576 29.8616 47.4298 29.4148 47.5043Z" fill="#828282"/>
<path d="M32.6912 48.6212C32.3189 48.5467 32.1699 48.1744 32.1699 48.1744L33.5848 29.2621L34.4784 29.3365L33.0635 48.2489C33.0635 48.2489 33.138 48.6956 32.6912 48.6212Z" fill="#828282"/>
<path d="M35.9681 49.887C35.5957 49.9614 35.4468 49.4402 35.4468 49.4402L36.8617 31.4214L37.7553 31.4958L36.3404 49.5892C36.3404 49.5147 36.3404 49.7381 35.9681 49.887Z" fill="#828282"/>
<path d="M39.2444 51.1527C38.7976 51.376 38.7231 50.7804 38.7231 50.7804L40.138 33.5061L41.0317 33.5806L39.6168 50.7059C39.6912 50.7059 39.7657 51.0037 39.2444 51.1527Z" fill="#828282"/>
<path d="M42.5958 52.4929C41.9256 52.6418 42 52.1206 42 52.1206L43.4149 35.5909L44.3085 35.6654L42.8936 51.9717C42.9681 51.9717 42.8936 52.4185 42.5958 52.4929Z" fill="#828282"/>
<path d="M45.7976 53.6098C45.4253 53.6843 45.2764 53.2375 45.2764 53.2375L46.6913 37.6758L47.5849 37.7502L46.17 53.312C46.17 53.312 46.17 53.6098 45.7976 53.6098Z" fill="#828282"/>
<path d="M48.9998 54.8012C48.4785 54.8012 48.553 54.3544 48.553 54.3544L49.9679 39.8351L50.8615 39.9095L49.5211 54.3544C49.5211 54.3544 49.4466 54.8012 48.9998 54.8012Z" fill="#828282"/>
<path d="M52.4254 56.067C51.7551 56.1414 51.8296 55.5457 51.8296 55.5457L53.17 41.9199L54.0637 41.9944L52.7232 55.6202C52.7977 55.6202 52.7977 55.9925 52.4254 56.067Z" fill="#828282"/>
<path d="M55.7022 57.4072C55.1809 57.4817 55.1064 56.9605 55.1064 56.9605L56.5213 44.0048L57.415 44.0792L56.0745 56.886C56.0745 56.886 56.0745 57.3328 55.7022 57.4072Z" fill="#828282"/>
<path d="M26.1382 46.2385C25.9148 46.2385 25.8403 45.8662 25.8403 45.8662L26.8084 25.0924L27.702 25.1669L26.7339 46.0151C26.7339 46.0151 26.585 46.2385 26.1382 46.2385Z" fill="#828282"/>
<path d="M29.4893 47.2808C29.4148 47.2808 29.3403 47.0574 29.3403 47.0574L30.7552 27.5494H31.1276L29.7127 47.1319C29.7127 47.2064 29.6382 47.2064 29.4893 47.2808Z" fill="#B8B8B8"/>
<path d="M32.8404 48.3232C32.6169 48.3232 32.5425 48.0999 32.5425 48.0999L33.9574 29.5598H34.3297L32.9148 48.1743V48.2488L32.8404 48.3232Z" fill="#B8B8B8"/>
<path d="M36.0425 49.589C35.968 49.589 35.8936 49.5146 35.8936 49.3657L37.234 31.6447H37.6063L36.1914 49.4401C36.2659 49.5146 36.1914 49.589 36.0425 49.589Z" fill="#B8B8B8"/>
<path d="M39.2446 50.9293C39.1702 50.9293 39.0957 50.7804 39.0957 50.7059L40.5106 33.7295H40.8829L39.468 50.6315C39.5425 50.7804 39.468 50.8548 39.2446 50.9293Z" fill="#B8B8B8"/>
<path d="M42.5212 52.195C42.4468 52.195 42.4468 52.195 42.4468 52.195L43.7872 35.8887H44.1595L42.7447 51.9716C42.7447 51.9716 42.7447 52.195 42.5957 52.195C42.5957 52.195 42.5957 52.195 42.5212 52.195Z" fill="#B8B8B8"/>
<path d="M45.8723 53.3863C45.7979 53.3863 45.7234 53.3119 45.6489 53.2374L47.0638 37.9735H47.4362L46.0213 53.2374C46.0957 53.3119 46.0213 53.3863 45.8723 53.3863Z" fill="#B8B8B8"/>
<path d="M49.1489 54.5032C49.0745 54.5032 49 54.5032 49 54.5032V54.4288L50.3404 40.1328H50.7128L49.3723 54.3543C49.3723 54.4288 49.2979 54.5032 49.1489 54.5032Z" fill="#B8B8B8"/>
<path d="M52.4998 55.8435C52.4253 55.8435 52.3508 55.8435 52.3508 55.769C52.2764 55.6946 52.2764 55.6201 52.2764 55.6201L53.6168 42.2177H53.9891L52.6487 55.5456C52.6487 55.5456 52.6487 55.769 52.5742 55.769L52.4998 55.8435Z" fill="#B8B8B8"/>
<path d="M55.7766 57.1093C55.6277 57.1093 55.5532 56.9604 55.5532 56.9604L56.8936 44.3025L57.266 44.3769L55.9256 56.8859C55.9256 56.8859 55.9256 57.1093 55.7766 57.1093Z" fill="#B8B8B8"/>
<path d="M26.2871 45.9406V45.7916L27.2552 25.3901H27.6275L26.6594 45.8661C26.585 45.9406 26.436 45.9406 26.2871 45.9406Z" fill="#B8B8B8"/>
<path d="M75.7341 32.2403L42 10.2751C40.2873 9.15828 38.1277 9.08382 36.3405 10.1262L21.8936 18.3911C21.0745 18.8378 20.6277 19.6569 20.5532 20.6248C20.5532 21.5928 21 22.4118 21.7447 22.933L24.1277 24.4966L25.0213 25.0923L38.1277 33.655L40.883 35.442L55.4787 44.9726C56.3724 45.5683 57.4149 45.8661 58.4575 45.8661C59.3511 45.8661 60.3192 45.6427 61.1383 45.1215L63.3724 43.8557L65.4575 42.6644L74.4681 37.4523L75.4362 36.9311L75.6596 36.8567C76.4787 36.4099 76.9256 35.5164 77 34.6229C77 33.655 76.5532 32.7615 75.7341 32.2403ZM74.6915 35.1441L73.5745 35.8143L72.6064 36.3355L63.2234 41.7709L61.1383 42.9622L60.3192 43.4834C59.1277 44.1536 57.7128 44.0791 56.5958 43.409L49 38.4203L41.8511 33.8039L26.883 24.0499L25.9894 23.4542L22.7873 21.3694C22.4149 21.146 22.4149 20.8482 22.4149 20.6993C22.4149 20.5504 22.4894 20.2525 22.7873 20.0292L37.2341 11.6899C38.0532 11.2431 38.9468 11.0942 39.8405 11.3176C40.2128 11.392 40.5851 11.5409 40.9575 11.7643L41.7766 12.2855L74.766 33.7294C75.1383 33.9528 75.1383 34.2506 75.1383 34.3996C75.0639 34.6229 75.0639 34.9952 74.6915 35.1441Z" fill="#C4C4C4"/>
<path d="M76.1809 44.3025C76.1809 44.9727 75.8831 45.5683 75.4362 46.0151C75.3618 46.0895 75.2128 46.164 75.1384 46.2384L73.5001 47.2064L60.8405 54.5033C60.6916 54.5777 60.5426 54.6522 60.3937 54.7267C59.7979 55.0245 59.1277 55.1734 58.4575 55.1734L58.532 54.2055C59.1277 54.2055 59.7979 53.9821 60.3192 53.6842L60.4682 53.6098L73.5745 46.0151L74.6171 45.4194C74.9894 45.196 75.2128 44.8237 75.2128 44.377C75.2128 44.3025 75.2128 44.1536 75.1384 44.0792C75.1384 43.4835 75.6596 43.0367 75.6596 43.0367C76.032 43.3346 76.1809 43.7813 76.1809 44.3025Z" fill="#C4C4C4"/>
<path d="M58.7551 54.131C59.3509 54.0565 59.8721 53.9076 60.3934 53.6098L74.6913 45.3449C75.1381 45.0471 75.436 44.6004 75.436 44.0047C75.436 43.8558 75.436 43.7069 75.3615 43.6324C75.3615 43.409 75.436 43.2601 75.5849 43.1112C75.7339 43.409 75.8083 43.7069 75.8083 44.0792C75.8083 44.6748 75.5849 45.196 75.1381 45.5683C75.0636 45.6428 74.9892 45.7172 74.8402 45.7917L73.2019 46.7596L60.5424 54.0565C60.3934 54.131 60.2445 54.2055 60.17 54.2799C59.7232 54.5033 59.2019 54.6522 58.6807 54.6522L58.7551 54.131Z" fill="#E0E0E0"/>
<path d="M76.4788 38.7927C76.4788 39.6117 76.1064 40.2818 75.3617 40.7286L60.9149 49.0679C60.9149 49.0679 60.8405 49.0679 60.8405 49.1423C60.2447 49.4402 59.5745 49.6635 58.9043 49.738L58.9788 48.77C59.5 48.6956 59.9469 48.5467 60.3937 48.2488L60.9149 47.951L74.9149 39.9095C75.2873 39.6861 75.5107 39.3139 75.5107 38.8671C75.5107 38.2714 76.1064 37.6758 76.1064 37.6758C76.4043 37.8992 76.4788 38.3459 76.4788 38.7927Z" fill="#C4C4C4"/>
<path d="M59.2766 48.6956C59.7234 48.6211 60.1702 48.4722 60.617 48.1744L75.0639 39.8351C75.5107 39.5372 75.8085 39.0905 75.8085 38.4948C75.8085 38.197 75.9575 37.9736 76.1064 37.7502C76.1809 37.9736 76.2553 38.197 76.2553 38.4948C76.2553 39.1649 75.883 39.8351 75.2873 40.2074L60.766 48.5467H60.6915C60.2447 48.77 59.7234 48.9934 59.2021 49.0679L59.2766 48.6956Z" fill="#E0E0E0"/>
<path d="M24.5747 40.5796L24.2768 37.4524L24.2024 36.4844V36.1121L24.0534 34.9953L23.7556 31.7936L23.6811 30.7511V30.4533L23.6066 29.262L23.3088 26.2092L23.0854 25.1668L22.9364 23.7521L21.7449 23.0075C21.3726 22.7841 21.0747 22.4863 20.9258 22.114L21.3726 26.507L21.596 29.1875L21.8194 31.9425L22.1173 35.0697L22.3407 37.8247L22.6385 40.6541L23.0854 44.7493C23.0854 44.7493 23.3088 45.9406 24.1279 45.9406C24.7237 45.9406 24.9471 45.3449 24.9471 45.3449L24.6492 41.8454L24.5747 40.5796Z" fill="#828282"/>
<path d="M24.351 45.6428C23.8298 45.6428 23.6064 44.6749 23.5319 44.6749L23.0851 40.5797L21.4468 23.0076C21.5212 23.082 21.6702 23.1565 21.8191 23.2309L22.8617 23.9011L23.0106 25.1669L23.0851 26.2093L23.5319 30.6767L23.6064 31.7192L24.0532 36.4845L24.1276 37.5269L24.5 41.771L24.7978 45.1961C24.8723 45.4194 24.7234 45.6428 24.351 45.6428Z" fill="#B8B8B8"/>
<path d="M46.6169 53.312C46.5425 53.312 45.8723 53.0886 45.5744 53.2375C45.2765 53.3865 45.2021 53.6098 45.2021 53.6098L24.7233 41.771L23.085 40.803C22.9361 40.7286 22.7872 40.6541 22.7127 40.5052C22.2659 40.1329 22.0425 39.5373 22.0425 38.9416C22.0425 38.4948 22.1914 38.0481 22.4148 37.6758C22.4148 37.6758 22.9361 37.5269 22.9361 37.9736C22.9361 38.2715 22.9361 38.4948 22.9361 38.6438V38.7182C22.9361 38.7927 22.9361 38.7927 22.9361 38.8671C22.9361 39.3139 23.1595 39.6862 23.5318 39.9095L24.5744 40.5052L46.6169 53.312Z" fill="#828282"/>
<path d="M23.3087 40.4307C23.1597 40.3563 23.0853 40.2818 23.0108 40.2074C22.6384 39.8351 22.415 39.3883 22.415 38.8671C22.415 38.4948 22.4895 38.1225 22.7129 37.8992C22.7874 37.8992 22.7874 37.8992 22.7874 37.9736C22.7874 38.2715 22.7874 38.4948 22.7874 38.5693C22.7874 38.7182 22.7874 38.7927 22.7874 38.8671C22.7874 39.3883 23.0853 39.9095 23.5321 40.1329L24.5746 40.7286L45.5746 52.8652C45.4257 52.9397 45.3512 53.0142 45.2767 53.0886L23.3087 40.4307Z" fill="#C4C4C4"/>
<path d="M58.5319 54.131L58.4574 55.099H58.383C57.5638 55.099 56.6702 54.8756 55.9255 54.4288L24.1276 36.1122L22.4149 35.1442C22.3404 35.0698 22.1915 34.9953 22.117 34.9208C21.5957 34.5486 21.2979 33.8784 21.2979 33.2083C21.2979 32.6871 21.4468 32.1659 21.8191 31.7936C21.8191 31.7936 22.3404 31.6447 22.3404 32.0914C22.3404 32.3148 22.3404 32.5382 22.3404 32.6871C22.3404 32.9105 22.3404 33.0594 22.3404 33.2828C22.3404 33.7295 22.5638 34.1018 22.9361 34.3252L24.0532 34.9208L56.3723 53.6098C57.0425 54.0566 57.7872 54.2055 58.5319 54.131Z" fill="#828282"/>
<path d="M58.7553 54.5778C58.0106 54.5778 56.7446 54.4288 56.0744 54.0565L22.7127 34.6975C22.6382 34.623 22.5638 34.5485 22.4148 34.5485C21.968 34.1762 21.7446 33.655 21.7446 33.0594C21.7446 32.6126 21.8936 32.2403 22.117 31.9425C22.1914 31.9425 22.1914 31.9425 22.1914 32.017C22.1914 32.3148 22.1914 32.4637 22.1914 32.5382C22.117 32.6126 22.117 32.836 22.117 33.0594C22.117 33.5806 22.4148 34.1018 22.8616 34.3996L56.2233 53.6843C56.8191 54.0565 58.0106 54.131 58.7553 54.131V54.5778Z" fill="#C4C4C4"/>
<path d="M59.0532 48.77L58.9787 49.738C58.8298 49.738 58.6809 49.738 58.4574 49.738C57.6383 49.738 56.7447 49.5146 56 49.0678L23.6064 30.3789L22.117 29.5598C21.8936 29.4109 21.7447 29.3365 21.5957 29.1131C21.2234 28.7408 21 28.2196 21 27.6239C21 27.1772 21.0745 26.8049 21.2979 26.4326C21.2979 26.4326 21.8936 26.2092 21.8936 26.7304C21.9681 27.2516 21.8936 27.5495 21.8936 27.5495C21.8936 27.9962 22.117 28.443 22.4894 28.6663L23.383 29.1875L56.2979 48.2488C57.1915 48.6956 58.1596 48.8445 59.0532 48.77Z" fill="#828282"/>
<path d="M58.5321 49.2912C57.713 49.2912 56.8938 49.0679 56.1492 48.6956L22.3406 29.1131C22.1917 29.0387 21.9683 28.8897 21.8938 28.7408C21.596 28.3685 21.3726 27.9218 21.3726 27.4006C21.3726 27.1027 21.447 26.7305 21.596 26.5071C21.596 26.5071 21.596 26.5071 21.6704 26.5071C21.7449 26.5071 21.7449 26.5071 21.7449 26.5815C21.8194 27.0283 21.7449 27.3261 21.7449 27.3261C21.7449 27.9218 22.0428 28.443 22.4896 28.7408L56.2981 48.2488C56.9683 48.6211 57.713 48.8445 58.4577 48.8445C58.5321 48.8445 59.1279 48.6956 59.2023 48.6956V49.1423C59.1279 49.1423 58.6066 49.2912 58.5321 49.2912Z" fill="#C4C4C4"/>
<path d="M58.5318 44.9727C57.5637 44.9727 56.6701 44.6748 55.8509 44.1536L41.2552 34.623L22.0424 22.114C21.3722 21.6673 20.9999 20.9972 21.0743 20.1781C21.0743 19.4335 21.5211 18.689 22.1914 18.3167L36.5637 9.97737C37.3084 9.53062 38.202 9.30725 39.0211 9.30725C39.9892 9.30725 40.8829 9.60508 41.702 10.1263L75.5105 32.0914C76.1807 32.5382 76.5531 33.2083 76.4786 33.9529C76.4786 34.6974 76.0318 35.3676 75.3616 35.8143L60.9892 44.3025C60.2446 44.6748 59.4254 44.9727 58.5318 44.9727ZM39.0211 10.3497C38.3509 10.3497 37.6807 10.4986 37.085 10.8709L22.6382 19.2102C22.0424 19.5825 22.0424 20.1037 22.0424 20.2526C22.0424 20.5504 22.1914 21.0716 22.6382 21.3695L25.8403 23.4543L26.7339 24.0499L41.702 33.804L48.8509 38.4204L56.4467 43.409C57.1169 43.8558 57.8616 44.0792 58.6063 44.0792C59.2765 44.0792 60.0211 43.8558 60.6169 43.558L61.5105 43.0368L63.5956 41.8454L75.0637 35.2187C75.436 34.9953 75.6594 34.623 75.6594 34.1762C75.6594 33.655 75.436 33.2827 75.0637 33.0594L41.1807 11.0198C40.7339 10.7964 40.3616 10.573 39.9148 10.4986C39.6169 10.4241 39.319 10.3497 39.0211 10.3497Z" fill="#E0E0E0"/>
<path d="M41.3297 11.0943C40.0638 10.9454 39.8404 9.82851 39.8404 9.82851L38.2765 6.70127L32.7659 3.94632L32.3936 0.670166L39.468 5.21211L39.6914 5.43548L42.2233 10.5731C42.2233 10.5731 42.2978 11.2432 41.3297 11.0943Z" fill="#828282"/>
<path d="M15.3407 15.3383L13.9258 12.9557L32.8407 2.01034C33.2875 1.78697 33.8832 1.93588 34.1066 2.38263L34.2556 2.53155C34.7024 3.27613 34.4045 4.31854 33.6598 4.76529L15.3407 15.3383Z" fill="url(#paint1_linear)"/>
<path d="M19.3616 17.7955L18.8403 16.902L38.202 5.73325C38.351 5.65879 38.5744 5.65879 38.6488 5.88217L38.7233 5.95663C38.8722 6.25446 38.7978 6.62675 38.4999 6.77567L19.3616 17.7955Z" fill="url(#paint2_linear)"/>
<path d="M32.3936 0.670123L33.3616 0L39.6914 5.43544L39.0212 5.88219L32.3936 0.670123Z" fill="#E0E0E0"/>
<path d="M41.33 11.0942L39.0215 5.88217L39.7662 5.43542L42.2981 10.573C42.2236 10.573 42.2981 11.2432 41.33 11.0942Z" fill="#B8B8B8"/>
<path d="M22.266 20.8483C22.266 20.9972 22.266 21.444 21.5958 21.3695C21.5213 21.3695 21.5213 21.3695 21.4469 21.3695C20.9256 21.444 20.9256 22.263 20.9256 22.263L18.8405 17.9444L13.3299 15.1895L12.9575 11.9133L20.032 16.4553L20.2554 16.6786L20.3299 16.8276L22.266 20.8483Z" fill="#828282"/>
<path d="M12.9575 11.9877L13.9256 11.3176L20.2554 16.7531L19.5852 17.1998L12.9575 11.9877Z" fill="#E0E0E0"/>
<path d="M22.2658 20.8482C22.2658 20.9972 22.2658 21.4439 21.5956 21.3695C21.5211 21.3695 21.5211 21.3695 21.4467 21.3695L19.585 17.1998L20.3296 16.7531L22.2658 20.8482Z" fill="#B8B8B8"/>
</g>
<defs>
<linearGradient id="paint0_linear" x1="-5.69168" y1="27.8532" x2="272.787" y2="265.039" gradientUnits="userSpaceOnUse">
<stop stop-color="#CFC2BA"/>
<stop offset="0.5494" stop-color="#BAAEA8"/>
<stop offset="0.9156" stop-color="#B3A7A1"/>
</linearGradient>
<linearGradient id="paint1_linear" x1="23.7772" y1="7.22665" x2="25.1781" y2="9.65355" gradientUnits="userSpaceOnUse">
<stop offset="0.1261" stop-color="#FF4747"/>
<stop offset="0.1272" stop-color="#F25555"/>
<stop offset="0.4378" stop-color="#F25555"/>
<stop offset="0.4407" stop-color="#C23226"/>
<stop offset="0.8367" stop-color="#C23226"/>
<stop offset="0.8387" stop-color="#961E1E"/>
</linearGradient>
<linearGradient id="paint2_linear" x1="28.6917" y1="11.224" x2="29.2067" y2="12.1162" gradientUnits="userSpaceOnUse">
<stop offset="0.1261" stop-color="#E7E8E9"/>
<stop offset="0.1272" stop-color="#DBDBDB"/>
<stop offset="0.4378" stop-color="#DBDBDB"/>
<stop offset="0.4407" stop-color="#A9AAAB"/>
<stop offset="0.8367" stop-color="#A9AAAB"/>
<stop offset="0.8387" stop-color="#7E7F80"/>
</linearGradient>
<clipPath id="clip0">
<rect width="77" height="79" fill="white"/>
</clipPath>
</defs>
</svg>
