<svg width="93" height="72" viewBox="0 0 93 72" fill="none" xmlns="http://www.w3.org/2000/svg">
<g clip-path="url(#clip0)">
<path d="M72.3 36.2L31.5 59.9L0 41.7L40.8 18L72.3 36.2Z" fill="url(#paint0_linear)"/>
<path d="M92.1999 47.9V18.2L51.3999 41.7999V71.5999L92.1999 47.9Z" fill="#D9B059"/>
<path d="M51.3999 41.7999L19.8999 23.7V53.4L51.3999 71.5999V41.7999Z" fill="#BF8A39"/>
<path d="M92.1999 18.2L51.3999 41.8L19.8999 23.7L60.6999 0L92.1999 18.2Z" fill="#FACB6B"/>
<path d="M34.7998 65.8V31.4L77.2998 6.59998V9.59998L76.1998 9.19998L36.4998 32.4V62.8L38.0998 63.9L34.7998 65.8Z" fill="#17353D"/>
<path d="M73.7 62.6L70.3 60.6L72 59.6V29.2001L41.6 11.4L40.5 11.7V8.80005L73.7 28.2001V62.6Z" fill="#17353D"/>
<path d="M76.7999 45.7999L89.3999 38.4999C89.7999 38.2999 90.2999 38.5999 90.2999 38.9999V45.7999C90.2999 46.3999 89.9999 46.9999 89.3999 47.2999L76.7999 54.5999C76.3999 54.7999 75.8999 54.4999 75.8999 54.0999V47.2999C75.8999 46.6999 76.1999 46.0999 76.7999 45.7999Z" fill="#DAE6E8"/>
<path d="M88.8001 40.7L84.1001 43.4V48.7999L88.8001 46.0999V40.7Z" fill="#17353D"/>
<path d="M87.8997 40.5L87.1997 41V43.4L87.8997 43V40.5Z" fill="#DAE6E8"/>
<path d="M86.6997 46.7L85.6997 47.2V48.2999L86.6997 47.7V46.7Z" fill="#DAE6E8"/>
<path d="M85.7001 43.5L84.1001 44.4V46.3L85.7001 45.4V43.5Z" fill="#DAE6E8"/>
<path d="M88.4998 44.5L87.2998 45.2V46.6L88.4998 45.9V44.5Z" fill="#DAE6E8"/>
<path d="M86.8998 44.1L86.2998 44.4V45.1L86.8998 44.7V44.1Z" fill="#DAE6E8"/>
<path d="M86.2997 42.1L85.6997 42.4V43.5L86.2997 43.1V42.1Z" fill="#DAE6E8"/>
<path d="M85.6997 46.1L85.1997 46.4V47.5L85.6997 47.2V46.1Z" fill="#DAE6E8"/>
<path d="M88.2001 43.2999L87.6001 43.6999V44.2999L88.2001 43.9999V43.2999Z" fill="#DAE6E8"/>
<path d="M87.3 44.7999L87 44.9999V45.2999L87.3 45.1999V44.7999Z" fill="#DAE6E8"/>
<path d="M86.3 44.1L86 44.2V44.6L86.3 44.4V44.1Z" fill="#DAE6E8"/>
<path d="M87.5998 44.2999L87.2998 44.4999V44.7999L87.5998 44.6999V44.2999Z" fill="#DAE6E8"/>
<path d="M87.9997 43.6L87.6997 43.8V44.1L87.9997 43.9V43.6Z" fill="#17353D"/>
<path d="M85.0001 47.2L84.1001 47.7V48.7999L85.0001 48.2999V47.2Z" fill="#DAE6E8"/>
<path d="M84.7998 47.6L84.2998 47.9V48.4L84.7998 48.2V47.6Z" fill="#17353D"/>
<path d="M86.9999 44.8999H86.8999V45.0999L86.9999 44.9999V44.8999Z" fill="#DAE6E8"/>
<path d="M87.1 44.7H87V44.9L87.1 44.7999V44.7Z" fill="#DAE6E8"/>
<path d="M86.9999 44.6L86.8999 44.7V44.8L86.9999 44.7V44.6Z" fill="#DAE6E8"/>
<path d="M86.2997 45.1L85.6997 45.4V46.1L86.2997 45.7V45.1Z" fill="#DAE6E8"/>
<path d="M88.3 44.8999L87.5 45.2999V46.1999L88.3 45.6999V44.8999Z" fill="#17353D"/>
<path d="M88.3 41.5L87.5 42V42.8L88.3 42.4V41.5Z" fill="#17353D"/>
<path d="M87.3997 42.7999L86.6997 43.1999V44.0999L87.3997 43.5999V42.7999Z" fill="#17353D"/>
<path d="M85.3001 44.6L84.6001 45V45.9L85.3001 45.4V44.6Z" fill="#17353D"/>
<path d="M85.6001 43.8999L84.1001 44.6999V45.5999L85.6001 44.6999V43.8999Z" fill="#17353D"/>
<path d="M87.3999 41.7999L85.8999 42.5999V43.4999L87.3999 42.5999V41.7999Z" fill="#17353D"/>
<path d="M82.7001 44.2999L78.1001 46.9999V47.6999L82.7001 45.0999V44.2999Z" fill="#17353D"/>
<path d="M82.7001 45.7999L78.1001 48.4999V48.7999L82.7001 46.0999V45.7999Z" fill="#17353D"/>
<path d="M82.7001 46.7L78.1001 49.4V49.7L82.7001 47V46.7Z" fill="#17353D"/>
<path d="M82.7001 47.6L78.1001 50.3V50.6L82.7001 47.9V47.6Z" fill="#17353D"/>
<path d="M82.7001 49.2999L80.6001 50.4999V50.7999L82.7001 49.5999V49.2999Z" fill="#17353D"/>
</g>
<defs>
<linearGradient id="paint0_linear" x1="22.7854" y1="15.819" x2="44.8022" y2="53.9533" gradientUnits="userSpaceOnUse">
<stop stop-color="#CFC2BA"/>
<stop offset="0.5494" stop-color="#BAAEA8"/>
<stop offset="0.9156" stop-color="#B3A7A1"/>
</linearGradient>
<clipPath id="clip0">
<rect width="92.2" height="71.6" fill="white"/>
</clipPath>
</defs>
</svg>
